<svg width="1528" height="318" viewBox="0 0 1528 318" fill="none" xmlns="http://www.w3.org/2000/svg">
<path d="M1501.7 3.2525L1489.84 0.944763M1501.7 3.2525H1466.57M1501.7 3.2525L1513.95 5.63645M1501.7 3.2525H1526.58M1455.28 0.944763H1489.84L1494.16 0.945663L1498.43 0.95066L1502.61 0.964709L1506.66 0.992379L1510.53 1.03728L1514.19 1.10487L1517.58 1.19876L1520.73 1.31849L1523.44 1.48405L1525.9 1.67591L1526.58 1.74311V3.2525M1455.28 0.944763H1420.71M1455.28 0.944763L1466.57 3.2525M1420.71 0.944763H1386.15M1420.71 0.944763L1431.44 3.2525M1386.15 0.944763H1351.58M1386.15 0.944763L1396.31 3.2525M1351.58 0.944763H1317.02M1351.58 0.944763L1361.18 3.2525M1317.02 0.944763H1282.45M1317.02 0.944763L1326.05 3.2525M1282.45 0.944763H1247.89M1282.45 0.944763L1290.92 3.2525M1247.89 0.944763H1213.32M1247.89 0.944763L1255.79 3.2525M1213.32 0.944763H1178.75M1213.32 0.944763L1220.66 3.2525M1178.75 0.944763H1144.19M1178.75 0.944763L1185.53 3.2525M1144.19 0.944763H1109.62M1144.19 0.944763L1150.4 3.2525M1109.62 0.944763H1075.06M1109.62 0.944763L1115.27 3.2525M1075.06 0.944763H1040.49M1075.06 0.944763L1076.31 1.51489L1078.21 2.37803L1080.14 3.2525M1040.49 0.944763H1005.93M1040.49 0.944763L1041.61 1.51489L1045.01 3.2525M1005.93 0.944763H971.361M1005.93 0.944763L1009.88 3.2525M971.361 0.944763H936.795M971.361 0.944763L972.618 1.80154L973.891 2.66831L974.319 2.95995L974.748 3.2525M936.795 0.944763H902.23M936.795 0.944763L937.843 1.80154L938.195 2.0891L938.549 2.37803L939.618 3.2525M902.23 0.944763H867.664M902.23 0.944763L904.488 3.2525M867.664 0.944763L867.873 1.22914L868.082 1.51489L869.143 2.95995L869.358 3.2525M867.664 0.944763H833.099M833.099 0.944763H798.533M833.099 0.944763L834.228 3.2525M798.533 0.944763H763.967M798.533 0.944763L798.742 1.80154L799.098 3.2525M763.967 0.944763H729.402M763.967 0.944763V3.2525M729.402 0.944763H694.836M729.402 0.944763L729.192 1.80154L728.837 3.2525M694.836 0.944763H660.27M694.836 0.944763L693.707 3.2525M660.27 0.944763L660.062 1.22914L659.853 1.51489L658.792 2.95995L658.577 3.2525M660.27 0.944763H625.705M625.705 0.944763H591.139M625.705 0.944763L623.733 2.95995L623.447 3.2525M591.139 0.944763H556.573M591.139 0.944763L590.092 1.80154L589.739 2.0891L589.031 2.66831L588.675 2.95995L588.316 3.2525M556.573 0.944763H522.008M556.573 0.944763L555.317 1.80154L554.043 2.66831L553.616 2.95995L553.186 3.2525M522.008 0.944763H487.443M522.008 0.944763L518.057 3.2525M487.443 0.944763H452.877M487.443 0.944763L486.327 1.51489L482.927 3.2525M452.877 0.944763H418.311M452.877 0.944763L447.796 3.2525M418.311 0.944763H383.746M418.311 0.944763L412.666 3.2525M383.746 0.944763H349.18M383.746 0.944763L377.536 3.2525M349.18 0.944763H314.614M349.18 0.944763L342.406 3.2525M314.614 0.944763H280.049M314.614 0.944763L307.276 3.2525M280.049 0.944763H245.484M280.049 0.944763L272.146 3.2525M245.484 0.944763H210.917M245.484 0.944763L237.015 3.2525M210.917 0.944763H176.352M210.917 0.944763L201.885 3.2525M176.352 0.944763H141.787M176.352 0.944763L166.755 3.2525M141.787 0.944763H107.221M141.787 0.944763L131.625 3.2525M107.221 0.944763H72.6551M107.221 0.944763L96.4955 3.2525M1.35571 3.2525V1.74313L2.03253 1.67591L4.49512 1.48405L7.20001 1.31849L10.3521 1.19876L13.7481 1.10487L17.4047 1.03728L21.2781 0.992379L25.3271 0.964709L29.5072 0.95066L33.7762 0.945663L38.0898 0.944763H72.6551M72.6551 0.944763L61.3653 3.2525M38.0898 0.944763L26.2351 3.2525M96.4955 3.2525H131.625M96.4955 3.2525H61.3653M96.4955 3.2525L85.413 5.63645M131.625 3.2525L121.126 5.63645M131.625 3.2525H166.755M237.015 3.2525H272.146M237.015 3.2525H201.885M237.015 3.2525L234.855 3.84123L228.267 5.63645M272.146 3.2525L263.98 5.63645M272.146 3.2525H307.276M377.536 3.2525H412.666M377.536 3.2525H342.406M377.536 3.2525L375.952 3.84123L375.155 4.13696L371.12 5.63645M412.666 3.2525L411.947 3.54596L411.226 3.84123L406.834 5.63645M412.666 3.2525H447.796M518.057 3.2525L517.553 3.54596L513.974 5.63645M518.057 3.2525H553.186M518.057 3.2525H482.927M553.186 3.2525L552.323 3.84123L551.887 4.13696L551.451 4.4345L549.687 5.63645M553.186 3.2525H588.316M658.577 3.2525H693.707M658.577 3.2525H623.447M658.577 3.2525L656.828 5.63645M693.707 3.2525L693.563 3.54596L693.419 3.84123L693.274 4.13696L692.836 5.03276L692.541 5.63645M693.707 3.2525H728.837M799.098 3.2525H834.228M799.098 3.2525H763.967M799.098 3.2525L799.681 5.63645M834.228 3.2525L834.371 3.54596L834.515 3.84123L834.661 4.13696L835.394 5.63645M834.228 3.2525H869.358M939.618 3.2525H974.748M939.618 3.2525H904.488M939.618 3.2525L940.338 3.84123L941.796 5.03276L942.164 5.33392L942.534 5.63645M974.748 3.2525L975.612 3.84123L976.047 4.13696L976.483 4.4345L978.248 5.63645M974.748 3.2525H1009.88M1080.14 3.2525H1115.27M1080.14 3.2525H1045.01M1080.14 3.2525L1081.43 3.84123L1082.09 4.13696L1085.39 5.63645M1115.27 3.2525L1115.99 3.54596L1116.71 3.84123L1121.1 5.63645M1115.27 3.2525H1150.4M1220.66 3.2525H1255.79M1220.66 3.2525H1185.53M1220.66 3.2525L1222.53 3.84123L1223.47 4.13696L1228.24 5.63645M1255.79 3.2525L1263.95 5.63645M1255.79 3.2525H1290.92M1361.18 3.2525H1396.31M1361.18 3.2525H1326.05M1361.18 3.2525L1371.09 5.63645M1396.31 3.2525L1406.81 5.63645M1396.31 3.2525H1431.44M1.23258 24.8332H1.35571M36.5915 24.8332L50.004 21.7875M36.5915 24.8332L22.6651 27.9954M36.5915 24.8332H77.0012M36.5915 24.8332H1.35571M50.004 21.7875H10.3394M50.004 21.7875L62.931 18.852M50.004 21.7875H89.6685M10.3394 21.7875L23.9846 18.852M10.3394 21.7875H1.35571M10.3394 21.7875L1.35571 23.7197M49.8435 13.2886H87.4291M49.8435 13.2886L62.1073 10.6502M49.8435 13.2886H12.2587M49.8435 13.2886L37.1436 16.0208M87.4291 13.2886L99.0478 10.6502M87.4291 13.2886L75.3981 16.0208M87.4291 13.2886H125.015M62.1073 10.6502H99.0478M62.1073 10.6502L73.9571 8.10112M62.1073 10.6502H25.1675M99.0478 10.6502H135.988M99.0478 10.6502L110.273 8.10112M0.968844 72.9066H1.35571M33.5752 72.9066L50.8707 67.8571M33.5752 72.9066L15.4203 78.2075M33.5752 72.9066H85.7466M33.5752 72.9066H1.35571M50.8707 67.8571L67.3661 63.0411M50.8707 67.8571H101.806M50.8707 67.8571H1.35571M17.6089 63.0411H67.3661M17.6089 63.0411L34.4832 58.4429M17.6089 63.0411H1.35571M17.6089 63.0411L1.35571 67.4701M50.6109 54.0478H98.1677M50.6109 54.0478L66.0411 49.8433M50.6109 54.0478H3.05411M50.6109 54.0478L34.4832 58.4429M98.1677 54.0478L112.57 49.8433M98.1677 54.0478L83.1148 58.4429M98.1677 54.0478H145.725M66.0411 49.8433H112.57M66.0411 49.8433H19.513M66.0411 49.8433L80.8182 45.8165M112.57 49.8433L126.361 45.8165M112.57 49.8433H159.098M108.571 38.2537H152.264M108.571 38.2537L121.619 34.6982M108.571 38.2537H64.8781M108.571 38.2537L94.9822 41.9567M152.264 38.2537L164.442 34.6982M152.264 38.2537L139.581 41.9567M152.264 38.2537H195.958M121.619 34.6982H164.442M121.619 34.6982H78.7957M121.619 34.6982L134.157 31.2815M164.442 34.6982L176.145 31.2815M164.442 34.6982H207.266M157.821 24.8332H198.23M157.821 24.8332L168.998 21.7875M157.821 24.8332H117.411M157.821 24.8332L146.215 27.9954M198.23 24.8332L208.662 21.7875M198.23 24.8332L187.399 27.9954M198.23 24.8332H238.64M168.998 21.7875H208.662M168.998 21.7875H129.333M168.998 21.7875L179.77 18.852M208.662 21.7875L218.717 18.852M208.662 21.7875H248.327M200.185 13.2886H237.771M200.185 13.2886L209.867 10.6502M200.185 13.2886H162.6M200.185 13.2886L190.159 16.0208M237.771 13.2886L246.807 10.6502M237.771 13.2886L228.413 16.0208M237.771 13.2886H275.356M209.867 10.6502H246.807M209.867 10.6502L219.223 8.10112M209.867 10.6502H172.927M246.807 10.6502H283.748M246.807 10.6502L255.539 8.10112M28.0844 160.451L52.4261 150.501M28.0844 160.451L2.01743 171.106M28.0844 160.451H101.673M28.0844 160.451H1.35571M52.4261 150.501L75.2099 141.189M52.4261 150.501H123.58M52.4261 150.501H1.35571M51.932 124.244H116.663M51.932 124.244L72.733 116.515M51.932 124.244L29.84 132.454M51.932 124.244H1.35571M116.663 124.244L135.572 116.515M116.663 124.244L96.5789 132.454M116.663 124.244H181.393M72.733 116.515H135.572M72.733 116.515H9.89378M72.733 116.515L92.3535 109.224M135.572 116.515L153.409 109.224M135.572 116.515H198.412M128.431 95.8176H186.208M128.431 95.8176L145.056 89.6405M128.431 95.8176H70.6557M128.431 95.8176L110.891 102.336M186.208 95.8176L201.32 89.6405M186.208 95.8176L170.261 102.336M186.208 95.8176H243.984M145.056 89.6405H201.32M145.056 89.6405H88.7907M145.056 89.6405L160.831 83.7782M201.32 89.6405L215.662 83.7782M201.32 89.6405H257.585M190.088 72.9066H242.259M190.088 72.9066L203.677 67.8571M190.088 72.9066H137.917M190.088 72.9066L175.824 78.2075M242.259 72.9066L254.613 67.8571M242.259 72.9066L229.291 78.2075M242.259 72.9066H294.43M203.677 67.8571H254.613M203.677 67.8571H152.742M203.677 67.8571L216.638 63.0411M254.613 67.8571L266.395 63.0411M254.613 67.8571H305.548M240.84 54.0478H288.396M240.84 54.0478L252.155 49.8433M240.84 54.0478H193.282M240.84 54.0478L229.012 58.4429M288.396 54.0478L298.684 49.8433M288.396 54.0478L277.644 58.4429M288.396 54.0478H335.953M252.155 49.8433H298.684M252.155 49.8433H205.627M252.155 49.8433L262.991 45.8165M298.684 49.8433L308.535 45.8165M298.684 49.8433H345.212M283.343 38.2537H327.036M283.343 38.2537L292.912 34.6982M283.343 38.2537H239.65M283.343 38.2537L273.378 41.9567M327.036 38.2537L328.144 37.8015L335.735 34.6982M327.036 38.2537L317.978 41.9567M327.036 38.2537H370.73M292.912 34.6982H335.735M292.912 34.6982H250.089M292.912 34.6982L302.107 31.2815M335.735 34.6982L344.094 31.2815M335.735 34.6982H378.558M319.459 24.8332H359.87M319.459 24.8332L327.657 21.7875M319.459 24.8332H279.05M319.459 24.8332L310.949 27.9954M359.87 24.8332L367.321 21.7875M359.87 24.8332L357.003 26.0052L352.132 27.9954M359.87 24.8332H400.279M327.657 21.7875H367.321M327.657 21.7875H287.992M327.657 21.7875L335.556 18.852M367.321 21.7875L374.502 18.852M367.321 21.7875H406.986M350.527 13.2886H388.113M350.527 13.2886L357.627 10.6502M350.527 13.2886H312.942M350.527 13.2886L343.175 16.0208M388.113 13.2886L392.975 11.3015L393.773 10.9749L394.568 10.6502M388.113 13.2886L381.429 16.0208M388.113 13.2886H425.698M357.627 10.6502H394.568M357.627 10.6502L364.488 8.10112M357.627 10.6502H320.687M394.568 10.6502H431.508M394.568 10.6502L400.804 8.10112M54.7465 273.794H156.064M54.7465 273.794L86.6491 255.165M54.7465 273.794L19.6902 294.265M54.7465 273.794L1.35571 273.794M156.064 273.794L183.409 255.165M156.064 273.794L126.016 294.265M156.064 273.794H257.381M86.6491 255.165H183.409M86.6491 255.165L115.805 238.14M86.6491 255.165H1.35571M183.409 255.165L208.4 238.14M183.409 255.165H280.169M167.184 208.138H252.439M167.184 208.138L189.935 194.853M167.184 208.138H81.9296M167.184 208.138L142.555 222.52M252.439 208.138L271.94 194.853M252.439 208.138L231.328 222.52M252.439 208.138H337.694M189.935 194.853H271.94M189.935 194.853H107.931M189.935 194.853L211.016 182.544M271.94 194.853L290.009 182.544M271.94 194.853H353.944M248.849 160.451H322.437M248.849 160.451L265.889 150.501M248.849 160.451H175.261M248.849 160.451L230.602 171.106M322.437 160.451L337.043 150.501M322.437 160.451L306.798 171.106M322.437 160.451H396.025M265.889 150.501H337.043M265.889 150.501H194.734M265.889 150.501L281.837 141.189M337.043 150.501L350.713 141.189M337.043 150.501H408.197M310.854 124.244H375.584M310.854 124.244L324.091 116.515M310.854 124.244H246.124M310.854 124.244L296.795 132.454M375.584 124.244L386.931 116.515M375.584 124.244L363.534 132.454M375.584 124.244H440.315M324.091 116.515H386.931M324.091 116.515H261.251M324.091 116.515L336.577 109.224M386.931 116.515L397.633 109.224M386.931 116.515H449.77M359.535 95.8176H417.312M359.535 95.8176L370.114 89.6405M359.535 95.8176H301.76M359.535 95.8176L348.373 102.336M417.312 95.8176L426.379 89.6405M417.312 95.8176L407.743 102.336M417.312 95.8176H475.088M370.114 89.6405H426.379M370.114 89.6405H313.849M370.114 89.6405L380.154 83.7782M426.379 89.6405L434.984 83.7782M426.379 89.6405H482.644M398.772 72.9066H450.942M398.772 72.9066L407.419 67.8571M398.772 72.9066H346.6M398.772 72.9066L389.694 78.2075M450.942 72.9066L458.355 67.8571M450.942 72.9066L443.161 78.2075M450.942 72.9066H503.113M407.419 67.8571H458.355M407.419 67.8571H356.483M407.419 67.8571L415.667 63.0411M458.355 67.8571L465.424 63.0411M458.355 67.8571H509.29M431.068 54.0478H478.625M431.068 54.0478L438.269 49.8433M431.068 54.0478H383.511M431.068 54.0478L423.541 58.4429M478.625 54.0478L484.797 49.8433M478.625 54.0478L472.174 58.4429M478.625 54.0478H526.182M438.269 49.8433H484.797M438.269 49.8433H391.74M438.269 49.8433L445.165 45.8165M484.797 49.8433L490.708 45.8165M484.797 49.8433H531.326M458.116 38.2537H501.809M458.116 38.2537L464.205 34.6982M458.116 38.2537H414.423M458.116 38.2537L451.774 41.9567M501.809 38.2537L501.141 38.7082L496.373 41.9567M501.809 38.2537L507.028 34.6982M501.809 38.2537H545.502M464.205 34.6982H507.028M464.205 34.6982H421.382M464.205 34.6982L470.056 31.2815M507.028 34.6982L512.043 31.2815M507.028 34.6982H549.851M481.099 24.8332H521.508M481.099 24.8332L486.315 21.7875M481.099 24.8332H440.689M481.099 24.8332L475.683 27.9954M521.508 24.8332L525.979 21.7875M521.508 24.8332L519.789 26.0052L518.628 26.7958L516.867 27.9954M521.508 24.8332H561.918M486.315 21.7875H525.979M486.315 21.7875H446.65M486.315 21.7875L491.342 18.852M525.979 21.7875L527.614 20.674L528.691 19.9401L530.289 18.852M525.979 21.7875H565.644M500.87 13.2886H538.454M500.87 13.2886L504.273 11.3015L505.387 10.6502M500.87 13.2886H463.284M500.87 13.2886L496.784 15.6739L496.191 16.0208M538.454 13.2886L541.372 11.3015L541.85 10.9749L542.328 10.6502M538.454 13.2886L536.467 14.6425L534.444 16.0208M538.454 13.2886H576.04M505.387 10.6502H542.328M505.387 10.6502L509.753 8.10112M505.387 10.6502H468.447M542.328 10.6502H579.268M542.328 10.6502L546.069 8.10112M460.016 273.794H561.333M460.016 273.794L473.688 255.165M460.016 273.794H358.699M460.016 273.794L444.992 294.265M561.333 273.794L570.448 255.165M561.333 273.794L551.317 294.265M561.333 273.794H662.65M473.688 255.165H570.448M473.688 255.165H376.928M473.688 255.165L486.184 238.14M570.448 255.165L578.778 238.14M570.448 255.165H667.208M508.203 208.138H593.458M508.203 208.138L517.954 194.853M508.203 208.138H422.948M508.203 208.138L497.647 222.52M593.458 208.138L599.958 194.853M593.458 208.138L586.421 222.52M593.458 208.138H678.713M517.954 194.853H599.958M517.954 194.853H435.949M517.954 194.853L526.988 182.544M599.958 194.853L605.981 182.544M599.958 194.853H681.963M543.202 160.451H616.79M543.202 160.451L550.505 150.501M543.202 160.451H469.614M543.202 160.451L535.382 171.106M616.79 160.451L621.659 150.501M616.79 160.451L611.578 171.106M616.79 160.451H690.379M550.505 150.501H621.659M550.505 150.501H479.351M550.505 150.501L557.34 141.189M621.659 150.501L626.216 141.189M621.659 150.501H692.813M569.776 124.244H634.506M569.776 124.244L575.449 116.515M569.776 124.244H505.046M569.776 124.244L563.751 132.454M634.506 124.244L638.288 116.515M634.506 124.244L630.49 132.454M634.506 124.244H699.237M575.449 116.515H638.288M575.449 116.515H512.61M575.449 116.515L580.8 109.224M638.288 116.515L641.856 109.224M638.288 116.515H701.128M590.639 95.8176H648.416M590.639 95.8176L595.173 89.6405M590.639 95.8176H532.863M590.639 95.8176L585.855 102.336M648.416 95.8176L651.438 89.6405M648.416 95.8176L645.226 102.336M648.416 95.8176H706.192M595.173 89.6405H651.438M595.173 89.6405H538.909M595.173 89.6405L599.476 83.7782M651.438 89.6405L654.306 83.7782M651.438 89.6405H707.702M607.455 72.9066H659.625M607.455 72.9066L611.161 67.8571M607.455 72.9066H555.284M607.455 72.9066L603.565 78.2075M659.625 72.9066L662.097 67.8571M659.625 72.9066L657.032 78.2075M659.625 72.9066H711.797M611.161 67.8571H662.097M611.161 67.8571H560.225M611.161 67.8571L612.506 66.0247L614.696 63.0411M662.097 67.8571L664.453 63.0411M662.097 67.8571H713.032M621.296 54.0478H668.853M621.296 54.0478L624.382 49.8433M621.296 54.0478H573.739M621.296 54.0478L618.891 57.3258L618.07 58.4429M668.853 54.0478L669.635 52.4495L670.91 49.8433M668.853 54.0478L666.703 58.4429M668.853 54.0478H716.411M624.382 49.8433L624.758 49.3303L627.338 45.8165M624.382 49.8433H670.91M624.382 49.8433H577.854M670.91 49.8433L671.66 48.3129L671.906 47.8081L672.152 47.3065L672.881 45.8165M670.91 49.8433H717.439M632.888 38.2537H676.581M632.888 38.2537L634.206 36.4581L634.532 36.0149L634.855 35.5736L635.177 35.135L635.497 34.6982M632.888 38.2537H589.195M632.888 38.2537L630.17 41.9567M676.581 38.2537L677.892 35.5736L678.108 35.135L678.32 34.6982M676.581 38.2537L674.77 41.9567M676.581 38.2537H720.274M635.497 34.6982H678.32M635.497 34.6982H592.674M635.497 34.6982L637.077 32.547L637.387 32.1229L638.005 31.2815M678.32 34.6982L679.373 32.547L679.581 32.1229L679.787 31.7011L679.993 31.2815M678.32 34.6982H721.144M642.738 24.8332H683.148M642.738 24.8332L644.974 21.7875M642.738 24.8332H602.328M642.738 24.8332L642.166 25.6124L641.297 26.7958L640.417 27.9954M683.148 24.8332L682.957 25.2219L681.797 27.5936L681.601 27.9954M683.148 24.8332L684.638 21.7875M683.148 24.8332H723.558M644.974 21.7875H684.638M644.974 21.7875H605.309M644.974 21.7875L647.128 18.852M684.638 21.7875L685.183 20.674L685.363 20.3061L685.542 19.9401L686.075 18.852M684.638 21.7875H724.303M651.211 13.2886H688.796M651.211 13.2886L652.67 11.3015L653.147 10.6502M651.211 13.2886H613.626M651.211 13.2886L650.467 14.3018L650.217 14.6425L649.966 14.9849L649.205 16.0208M688.796 13.2886L688.961 12.9538L689.285 12.2884L689.609 11.629L690.087 10.6502M688.796 13.2886L688.134 14.6425L687.967 14.9849L687.629 15.6739L687.46 16.0208M688.796 13.2886H726.382M653.147 10.6502H690.087M653.147 10.6502L654.788 8.415L655.019 8.10112M653.147 10.6502H616.207M690.087 10.6502L690.246 10.3268L690.403 10.0047L690.56 9.68406L690.716 9.36476L691.181 8.415L691.335 8.10112M690.087 10.6502H727.028M865.284 273.794H966.602M865.284 273.794L860.727 255.165M865.284 273.794H763.967M865.284 273.794L870.293 294.265M966.602 273.794L957.487 255.165M966.602 273.794L976.618 294.265M966.602 273.794H1067.92M860.727 255.165H957.487M860.727 255.165H763.967M860.727 255.165L856.562 238.14M957.487 255.165L949.156 238.14M957.487 255.165H1054.25M849.222 208.138H934.477M849.222 208.138L845.972 194.853M849.222 208.138H763.967M849.222 208.138L852.741 222.52M934.477 208.138L927.976 194.853M934.477 208.138L941.514 222.52M934.477 208.138H1019.73M845.972 194.853H927.976M845.972 194.853H763.967M845.972 194.853L842.96 182.544M927.976 194.853L921.953 182.544M927.976 194.853H1009.98M837.555 160.451H911.144M837.555 160.451L835.121 150.501M837.555 160.451H763.967M837.555 160.451L840.163 171.106M911.144 160.451L906.275 150.501M911.144 160.451L916.357 171.106M911.144 160.451H984.732M835.121 150.501H906.275M835.121 150.501H763.967M835.121 150.501L832.843 141.189M906.275 150.501L901.719 141.189M906.275 150.501H977.429M828.698 124.244H893.429M828.698 124.244L826.806 116.515M828.698 124.244H763.967M828.698 124.244L830.706 132.454M893.429 124.244L889.646 116.515M893.429 124.244L897.445 132.454M893.429 124.244H958.158M826.806 116.515H889.646M826.806 116.515H763.967M826.806 116.515L825.023 109.224M889.646 116.515L886.079 109.224M889.646 116.515H952.486M821.743 95.8176H879.519M821.743 95.8176L820.232 89.6405M821.743 95.8176H763.967M821.743 95.8176L823.338 102.336M879.519 95.8176L876.497 89.6405M879.519 95.8176L882.708 102.336M879.519 95.8176H937.295M820.232 89.6405H876.497M820.232 89.6405H763.967M820.232 89.6405L818.797 83.7782M876.497 89.6405L873.629 83.7782M876.497 89.6405H932.762M816.138 72.9066H868.309M816.138 72.9066L814.903 67.8571M816.138 72.9066H763.967M816.138 72.9066L817.435 78.2075M868.309 72.9066L865.838 67.8571M868.309 72.9066L870.903 78.2075M868.309 72.9066H920.48M814.903 67.8571H865.838M814.903 67.8571H763.967M814.903 67.8571L813.725 63.0411M865.838 67.8571L863.482 63.0411M865.838 67.8571H916.774M811.524 54.0478H859.082M811.524 54.0478L810.495 49.8433M811.524 54.0478H763.967M811.524 54.0478L812.6 58.4429M859.082 54.0478L857.276 50.359L857.024 49.8433M859.082 54.0478L861.232 58.4429M859.082 54.0478H906.638M810.495 49.8433L810.371 49.3303L809.51 45.8165M810.495 49.8433H857.024M810.495 49.8433H763.967M857.024 49.8433L856.275 48.3129L856.029 47.8081L855.783 47.3065L855.054 45.8165M857.024 49.8433H903.552M807.66 38.2537H851.354M807.66 38.2537L806.79 34.6982M807.66 38.2537H763.967M807.66 38.2537L807.996 39.6244L808.109 40.0862L808.222 40.5502L808.451 41.4854L808.567 41.9567M851.354 38.2537L850.042 35.5736L849.613 34.6982M851.354 38.2537L853.165 41.9567M851.354 38.2537H895.047M806.79 34.6982H849.613M806.79 34.6982H763.967M806.79 34.6982L805.955 31.2815M849.613 34.6982L848.562 32.547L848.353 32.1229L848.148 31.7011L847.942 31.2815M849.613 34.6982H892.437M804.377 24.8332H844.787M804.377 24.8332L803.632 21.7875M804.377 24.8332H763.967M804.377 24.8332L805.151 27.9954M844.787 24.8332L844.977 25.2219L846.138 27.5936L846.334 27.9954M844.787 24.8332L843.296 21.7875M844.787 24.8332H885.196M803.632 21.7875H843.296M803.632 21.7875H763.967M803.632 21.7875L802.914 18.852M843.296 21.7875L842.751 20.674L842.572 20.3061L842.392 19.9401L841.86 18.852M843.296 21.7875H882.961M801.553 13.2886H839.139M801.553 13.2886L800.907 10.6502M801.553 13.2886H763.967M801.553 13.2886L802.221 16.0208M839.139 13.2886L838.974 12.9538L838.648 12.2884L838.487 11.9578L838.165 11.3015L838.007 10.9749L837.847 10.6502M839.139 13.2886L839.801 14.6425L839.968 14.9849L840.306 15.6739L840.475 16.0208M839.139 13.2886H876.723M800.907 10.6502L800.828 10.3268L800.749 10.0047L800.671 9.68406L800.284 8.10112M800.907 10.6502H837.847M800.907 10.6502H763.967M837.847 10.6502H874.787M837.847 10.6502L837.531 10.0047L837.374 9.68406L837.219 9.36476L836.754 8.415L836.6 8.10112M1270.55 273.794H1371.87M1270.55 273.794L1247.77 255.165M1270.55 273.794H1169.24M1270.55 273.794L1295.59 294.265M1371.87 273.794L1344.53 255.165M1371.87 273.794L1401.92 294.265M1371.87 273.794H1473.19M1247.77 255.165H1344.53M1247.77 255.165H1151.01M1247.77 255.165L1226.94 238.14M1344.53 255.165L1319.53 238.14M1344.53 255.165H1441.29M1190.24 208.138H1275.5M1190.24 208.138L1173.99 194.853M1190.24 208.138H1104.99M1190.24 208.138L1207.83 222.52M1275.5 208.138L1255.99 194.853M1275.5 208.138L1296.61 222.52M1275.5 208.138H1360.75M1173.99 194.853H1255.99M1173.99 194.853H1091.99M1173.99 194.853L1158.93 182.544M1255.99 194.853L1237.93 182.544M1255.99 194.853H1338M1131.91 160.451H1205.5M1131.91 160.451L1119.74 150.501M1131.91 160.451H1058.32M1131.91 160.451L1144.94 171.106M1205.5 160.451L1190.89 150.501M1205.5 160.451L1221.14 171.106M1205.5 160.451H1279.09M1119.74 150.501H1190.89M1119.74 150.501H1048.58M1119.74 150.501L1108.35 141.189M1190.89 150.501L1177.22 141.189M1190.89 150.501H1262.05M1087.62 124.244H1152.35M1087.62 124.244L1078.16 116.515M1087.62 124.244H1022.89M1087.62 124.244L1097.66 132.454M1152.35 124.244L1141 116.515M1152.35 124.244L1164.4 132.454M1152.35 124.244H1217.08M1078.16 116.515H1141M1078.16 116.515H1015.32M1078.16 116.515L1069.25 109.224M1141 116.515L1130.3 109.224M1141 116.515H1203.84M1052.85 95.8176H1110.62M1052.85 95.8176L1045.29 89.6405M1052.85 95.8176H995.071M1052.85 95.8176L1060.82 102.336M1110.62 95.8176L1101.56 89.6405M1110.62 95.8176L1120.19 102.336M1110.62 95.8176H1168.4M1045.29 89.6405H1101.56M1045.29 89.6405H989.026M1045.29 89.6405L1038.12 83.7782M1101.56 89.6405L1092.95 83.7782M1101.56 89.6405H1157.82M1024.82 72.9066H1076.99M1024.82 72.9066L1018.64 67.8571M1024.82 72.9066H972.65M1024.82 72.9066L1031.31 78.2075M1076.99 72.9066L1069.58 67.8571M1076.99 72.9066L1084.77 78.2075M1076.99 72.9066H1129.16M1018.64 67.8571H1069.58M1018.64 67.8571H967.709M1018.64 67.8571L1012.75 63.0411M1069.58 67.8571L1062.51 63.0411M1069.58 67.8571H1120.52M1001.75 54.0478L1002.41 54.5867L1003.07 55.1282L1007.13 58.4429M1001.75 54.0478H1049.31M1001.75 54.0478L996.609 49.8433M1001.75 54.0478H954.196M1049.31 54.0478L1043.14 49.8433M1049.31 54.0478L1055.76 58.4429M1049.31 54.0478H1096.87M996.609 49.8433H1043.14M996.609 49.8433H950.081M996.609 49.8433L991.684 45.8165M1043.14 49.8433L1037.23 45.8165M1043.14 49.8433H1089.67M982.432 38.2537H1026.13M982.432 38.2537L978.083 34.6982M982.432 38.2537H938.74M982.432 38.2537L986.962 41.9567M1026.13 38.2537L1022.84 36.0149L1020.91 34.6982M1026.13 38.2537L1031.56 41.9567M1026.13 38.2537H1069.82M978.083 34.6982H1020.91M978.083 34.6982H935.26M978.083 34.6982L974.418 31.7011L973.904 31.2815M1020.91 34.6982L1015.89 31.2815M1020.91 34.6982H1063.73M966.016 24.8332H1006.43M966.016 24.8332L965.072 24.0608L962.291 21.7875M966.016 24.8332H925.607M966.016 24.8332L966.97 25.6124L968.904 27.1935L969.884 27.9954M1006.43 24.8332L1001.96 21.7875M1006.43 24.8332L1008.15 26.0052L1009.31 26.7958L1011.07 27.9954M1006.43 24.8332H1046.84M962.291 21.7875H1001.96M962.291 21.7875H922.625M962.291 21.7875L959.585 19.5754L958.699 18.852M1001.96 21.7875L1000.32 20.674L999.243 19.9401L997.646 18.852M1001.96 21.7875H1041.62M951.895 13.2886H989.48M951.895 13.2886L949.864 11.629L948.667 10.6502M951.895 13.2886H914.309M951.895 13.2886L955.237 16.0208M989.48 13.2886L986.562 11.3015L986.084 10.9749L985.607 10.6502M989.48 13.2886L991.468 14.6425L993.49 16.0208M989.48 13.2886H1027.07M948.667 10.6502H985.607M948.667 10.6502L947.095 9.36476L946.319 8.73022L945.933 8.415L945.549 8.10112M948.667 10.6502H911.727M985.607 10.6502H1022.55M985.607 10.6502L981.865 8.10112M1502.01 194.853H1420M1502.01 194.853L1474.91 182.544M1502.01 194.853H1526.58M1502.01 194.853L1526.58 206.012M1426.26 160.451H1499.85M1426.26 160.451L1404.35 150.501M1426.26 160.451H1352.67M1426.26 160.451L1449.72 171.106M1499.85 160.451L1475.51 150.501M1499.85 160.451L1525.92 171.106M1499.85 160.451H1526.58M1404.35 150.501H1475.51M1404.35 150.501H1333.2M1404.35 150.501L1383.85 141.189M1475.51 150.501L1452.72 141.189M1475.51 150.501H1526.58M1346.54 124.244H1411.27M1346.54 124.244L1329.52 116.515M1346.54 124.244H1281.81M1346.54 124.244L1364.62 132.454M1411.27 124.244L1392.36 116.515M1411.27 124.244L1431.36 132.454M1411.27 124.244H1476M1329.52 116.515H1392.36M1329.52 116.515H1266.68M1329.52 116.515L1313.47 109.224M1392.36 116.515L1374.53 109.224M1392.36 116.515H1455.2M1283.95 95.8176H1341.73M1283.95 95.8176L1270.35 89.6405M1283.95 95.8176H1226.18M1283.95 95.8176L1298.3 102.336M1341.73 95.8176L1326.61 89.6405M1341.73 95.8176L1357.67 102.336M1341.73 95.8176H1399.5M1270.35 89.6405H1326.61M1270.35 89.6405H1214.09M1270.35 89.6405L1257.44 83.7782M1326.61 89.6405L1312.27 83.7782M1326.61 89.6405H1382.88M1233.5 72.9066H1285.68M1233.5 72.9066L1222.39 67.8571M1233.5 72.9066H1181.33M1233.5 72.9066L1245.18 78.2075M1285.68 72.9066L1273.32 67.8571M1285.68 72.9066L1298.64 78.2075M1285.68 72.9066H1337.85M1222.39 67.8571H1273.32M1222.39 67.8571H1171.45M1222.39 67.8571L1211.78 63.0411M1273.32 67.8571L1261.54 63.0411M1273.32 67.8571H1324.26M1191.98 54.0478H1239.54M1191.98 54.0478L1182.72 49.8433M1191.98 54.0478H1144.42M1191.98 54.0478L1201.66 58.4429M1239.54 54.0478L1229.25 49.8433M1239.54 54.0478L1250.29 58.4429M1239.54 54.0478H1287.1M1182.72 49.8433H1229.25M1182.72 49.8433H1136.19M1182.72 49.8433L1173.86 45.8165M1229.25 49.8433L1219.4 45.8165M1229.25 49.8433H1275.78M1157.2 38.2537H1200.9M1157.2 38.2537L1149.38 34.6982M1157.2 38.2537H1113.51M1157.2 38.2537L1165.36 41.9567M1200.9 38.2537L1192.2 34.6982M1200.9 38.2537L1209.96 41.9567M1200.9 38.2537H1244.59M1149.38 34.6982H1192.2M1149.38 34.6982H1106.55M1149.38 34.6982L1141.85 31.2815M1192.2 34.6982L1183.84 31.2815M1192.2 34.6982H1235.02M1127.66 24.8332H1168.06M1127.66 24.8332L1120.95 21.7875M1127.66 24.8332H1087.25M1127.66 24.8332L1129.37 25.6124L1130.24 26.0052L1134.62 27.9954M1168.06 24.8332L1160.61 21.7875M1168.06 24.8332L1175.8 27.9954M1168.06 24.8332H1208.47M1120.95 21.7875H1160.61M1120.95 21.7875H1081.28M1120.95 21.7875L1114.49 18.852M1160.61 21.7875L1153.43 18.852M1160.61 21.7875H1200.28M1102.24 13.2886H1139.82M1102.24 13.2886L1096.43 10.6502M1102.24 13.2886H1064.65M1102.24 13.2886L1108.25 16.0208M1139.82 13.2886L1134.96 11.3015L1134.16 10.9749L1133.37 10.6502M1139.82 13.2886L1146.51 16.0208M1139.82 13.2886H1177.41M1096.43 10.6502H1133.37M1096.43 10.6502L1091.51 8.415L1090.81 8.10112M1096.43 10.6502H1059.49M1133.37 10.6502H1170.31M1133.37 10.6502L1127.13 8.10112M1515.05 95.8176L1495.41 89.6405M1515.05 95.8176H1457.28M1515.05 95.8176L1526.58 99.4412M1515.05 95.8176H1526.58M1495.41 89.6405H1439.14M1495.41 89.6405L1476.76 83.7782M1495.41 89.6405H1526.58M1442.19 72.9066H1494.36M1442.19 72.9066L1426.13 67.8571M1442.19 72.9066H1390.02M1442.19 72.9066L1459.05 78.2075M1494.36 72.9066L1477.06 67.8571M1494.36 72.9066L1512.51 78.2075M1494.36 72.9066H1526.58M1426.13 67.8571H1477.06M1426.13 67.8571H1375.19M1426.13 67.8571L1410.81 63.0411M1477.06 67.8571L1460.57 63.0411M1477.06 67.8571H1526.58M1382.21 54.0478H1429.77M1382.21 54.0478L1368.84 49.8433M1382.21 54.0478H1334.65M1382.21 54.0478L1396.19 58.4429M1429.77 54.0478L1415.36 49.8433M1429.77 54.0478L1444.82 58.4429M1429.77 54.0478H1477.32M1368.84 49.8433H1415.36M1368.84 49.8433H1322.31M1368.84 49.8433L1356.03 45.8165M1415.36 49.8433L1401.57 45.8165M1415.36 49.8433H1461.89M1331.98 38.2537H1375.67M1331.98 38.2537L1320.67 34.6982M1331.98 38.2537H1288.28M1331.98 38.2537L1343.75 41.9567M1375.67 38.2537L1363.49 34.6982M1375.67 38.2537L1388.35 41.9567M1375.67 38.2537H1419.36M1320.67 34.6982H1363.49M1320.67 34.6982H1277.85M1320.67 34.6982L1309.8 31.2815M1363.49 34.6982L1351.79 31.2815M1363.49 34.6982H1406.32M1289.29 24.8332H1329.7M1289.29 24.8332L1279.61 21.7875M1289.29 24.8332H1248.89M1289.29 24.8332L1299.35 27.9954M1329.7 24.8332L1319.27 21.7875M1329.7 24.8332L1340.54 27.9954M1329.7 24.8332H1370.11M1279.61 21.7875H1319.27M1279.61 21.7875H1239.94M1279.61 21.7875L1270.27 18.852M1319.27 21.7875L1309.22 18.852M1319.27 21.7875H1358.94M1252.58 13.2886H1290.16M1252.58 13.2886L1244.19 10.6502M1252.58 13.2886H1214.99M1252.58 13.2886L1261.27 16.0208M1290.16 13.2886L1281.13 10.6502M1290.16 13.2886L1299.52 16.0208M1290.16 13.2886H1327.75M1244.19 10.6502H1281.13M1244.19 10.6502L1236.08 8.10112M1244.19 10.6502H1207.25M1281.13 10.6502H1318.07M1281.13 10.6502L1272.4 8.10112M1506.75 38.2537L1491.96 34.6982M1506.75 38.2537H1463.06M1506.75 38.2537L1522.15 41.9567M1506.75 38.2537H1526.58M1491.96 34.6982H1449.14M1491.96 34.6982L1477.75 31.2815M1491.96 34.6982H1526.58M1450.93 24.8332H1491.34M1450.93 24.8332L1438.27 21.7875M1450.93 24.8332H1410.52M1450.93 24.8332L1464.09 27.9954M1491.34 24.8332L1477.93 21.7875M1491.34 24.8332L1505.27 27.9954M1491.34 24.8332H1526.58M1438.27 21.7875H1477.93M1438.27 21.7875H1398.6M1438.27 21.7875L1426.06 18.852M1477.93 21.7875L1465 18.852M1477.93 21.7875H1517.6M1402.92 13.2886H1440.51M1402.92 13.2886L1391.95 10.6502M1402.92 13.2886H1365.33M1402.92 13.2886L1414.28 16.0208M1440.51 13.2886L1428.89 10.6502M1440.51 13.2886L1452.54 16.0208M1440.51 13.2886H1478.09M1391.95 10.6502H1428.89M1391.95 10.6502L1381.35 8.10112M1391.95 10.6502H1355.01M1428.89 10.6502H1465.83M1428.89 10.6502L1417.66 8.10112M1452.54 16.0208L1465 18.852M1452.54 16.0208H1490.79M1452.54 16.0208H1414.28M1478.09 13.2886L1465.83 10.6502M1478.09 13.2886L1490.79 16.0208M1478.09 13.2886H1515.68M1465.83 10.6502H1502.77M1465.83 10.6502L1453.98 8.10112M1417.66 8.10112H1381.35M1417.66 8.10112H1453.98M1417.66 8.10112L1406.81 5.63645M1490.79 16.0208L1503.95 18.852M1490.79 16.0208H1526.58M1515.68 13.2886L1502.77 10.6502M1515.68 13.2886L1526.58 15.5167M1515.68 13.2886H1526.58M1502.77 10.6502L1490.29 8.10112M1502.77 10.6502H1526.58M1453.98 8.10112H1490.29M1453.98 8.10112L1442.52 5.63645M1490.29 8.10112L1478.23 5.63645M1490.29 8.10112H1526.58M1465 18.852H1503.95M1465 18.852H1426.06M1517.6 21.7875L1503.95 18.852M1517.6 21.7875L1526.58 23.7197M1517.6 21.7875H1526.58M1503.95 18.852H1526.58M1426.06 18.852H1387.11M1426.06 18.852L1414.28 16.0208M1414.28 16.0208H1376.03M1505.27 27.9954L1519.74 31.2815M1505.27 27.9954H1464.09M1505.27 27.9954H1526.58M1526.7 24.8332H1526.58M1519.74 31.2815H1477.75M1519.74 31.2815L1526.58 32.8345M1519.74 31.2815H1526.58M1477.75 31.2815H1435.76M1477.75 31.2815L1464.09 27.9954M1464.09 27.9954H1422.9M1299.52 16.0208L1309.22 18.852M1299.52 16.0208H1337.78M1299.52 16.0208H1261.27M1327.75 13.2886L1318.07 10.6502M1327.75 13.2886L1337.78 16.0208M1327.75 13.2886H1365.33M1318.07 10.6502H1355.01M1318.07 10.6502L1308.71 8.10112M1272.4 8.10112H1308.71M1272.4 8.10112L1263.95 5.63645M1272.4 8.10112H1236.08M1337.78 16.0208L1348.16 18.852M1337.78 16.0208H1376.03M1365.33 13.2886L1355.01 10.6502M1365.33 13.2886L1376.03 16.0208M1355.01 10.6502L1345.03 8.10112M1308.71 8.10112H1345.03M1308.71 8.10112L1299.67 5.63645M1376.03 16.0208L1387.11 18.852M1381.35 8.10112H1345.03M1381.35 8.10112L1371.09 5.63645M1345.03 8.10112L1335.38 5.63645M1309.22 18.852H1348.16M1309.22 18.852H1270.27M1358.94 21.7875L1348.16 18.852M1358.94 21.7875L1370.11 24.8332M1358.94 21.7875H1398.6M1348.16 18.852H1387.11M1270.27 18.852H1231.33M1270.27 18.852L1261.27 16.0208M1387.11 18.852L1398.6 21.7875M1261.27 16.0208H1223.01M1370.11 24.8332L1381.72 27.9954M1370.11 24.8332H1410.52M1398.6 21.7875L1410.52 24.8332M1410.52 24.8332L1422.9 27.9954M1340.54 27.9954L1351.79 31.2815M1340.54 27.9954H1381.72M1340.54 27.9954H1299.35M1381.72 27.9954L1393.78 31.2815M1381.72 27.9954H1422.9M1422.9 27.9954L1435.76 31.2815M1351.79 31.2815H1393.78M1351.79 31.2815H1309.8M1406.32 34.6982L1393.78 31.2815M1406.32 34.6982L1419.36 38.2537M1406.32 34.6982H1449.14M1393.78 31.2815H1435.76M1309.8 31.2815H1267.82M1309.8 31.2815L1299.35 27.9954M1435.76 31.2815L1449.14 34.6982M1299.35 27.9954H1258.17M1419.36 38.2537L1432.95 41.9567M1419.36 38.2537H1463.06M1449.14 34.6982L1463.06 38.2537M1463.06 38.2537L1477.55 41.9567M1388.35 41.9567L1401.57 45.8165M1388.35 41.9567H1432.95M1388.35 41.9567H1343.75M1432.95 41.9567L1447.12 45.8165M1432.95 41.9567H1477.55M1477.55 41.9567L1492.66 45.8165M1477.55 41.9567H1522.15M1522.15 41.9567H1526.58M1522.15 41.9567L1526.58 43.0213M1401.57 45.8165H1447.12M1401.57 45.8165H1356.03M1461.89 49.8433L1447.12 45.8165M1461.89 49.8433L1477.32 54.0478M1461.89 49.8433H1508.42M1447.12 45.8165H1492.66M1356.03 45.8165H1310.49M1356.03 45.8165L1343.75 41.9567M1492.66 45.8165L1508.42 49.8433M1492.66 45.8165H1526.58M1343.75 41.9567H1299.16M1477.32 54.0478L1493.45 58.4429M1477.32 54.0478H1524.88M1508.42 49.8433L1524.88 54.0478M1508.42 49.8433H1526.58M1526.82 45.8165H1526.58M1524.88 54.0478L1526.58 54.4817M1524.88 54.0478H1526.58M1444.82 58.4429L1460.57 63.0411M1444.82 58.4429H1493.45M1444.82 58.4429H1396.19M1493.45 58.4429L1510.33 63.0411M1493.45 58.4429H1526.58M1526.99 54.5867L1526.58 54.4817M1460.57 63.0411H1510.33M1460.57 63.0411H1410.81M1510.33 63.0411H1526.58M1510.33 63.0411L1526.58 67.4701M1410.81 63.0411H1361.05M1410.81 63.0411L1396.19 58.4429M1396.19 58.4429H1347.56M1512.51 78.2075H1459.05M1512.51 78.2075L1526.58 82.3138M1512.51 78.2075H1526.58M1526.97 72.9066H1526.58M1459.05 78.2075H1405.58M1459.05 78.2075L1476.76 83.7782M1526.73 82.359L1526.58 82.3138M1146.51 16.0208L1153.43 18.852M1146.51 16.0208H1184.76M1146.51 16.0208H1108.25M1177.41 13.2886L1170.31 10.6502M1177.41 13.2886L1184.76 16.0208M1177.41 13.2886H1214.99M1170.31 10.6502H1207.25M1170.31 10.6502L1163.45 8.10112M1127.13 8.10112H1163.45M1127.13 8.10112L1124.85 7.16723L1121.1 5.63645M1127.13 8.10112H1090.81M1184.76 16.0208L1192.38 18.852M1184.76 16.0208H1223.01M1214.99 13.2886L1207.25 10.6502M1214.99 13.2886L1223.01 16.0208M1207.25 10.6502L1199.76 8.10112M1163.45 8.10112H1199.76M1163.45 8.10112L1156.81 5.63645M1223.01 16.0208L1231.33 18.852M1236.08 8.10112L1228.24 5.63645M1236.08 8.10112H1199.76M1199.76 8.10112L1198.85 7.78816L1197.02 7.16723L1192.53 5.63645M1153.43 18.852H1192.38M1153.43 18.852H1114.49M1200.28 21.7875L1192.38 18.852M1200.28 21.7875L1208.47 24.8332M1200.28 21.7875H1239.94M1192.38 18.852H1231.33M1114.49 18.852H1075.54M1114.49 18.852L1108.25 16.0208M1231.33 18.852L1239.94 21.7875M1108.25 16.0208H1070M1208.47 24.8332L1216.99 27.9954M1208.47 24.8332H1248.89M1239.94 21.7875L1241.04 22.1617L1248.89 24.8332M1248.89 24.8332L1258.17 27.9954M1175.8 27.9954L1176.79 28.3996L1183.84 31.2815M1175.8 27.9954H1216.99M1175.8 27.9954H1134.62M1216.99 27.9954L1225.83 31.2815M1216.99 27.9954H1258.17M1258.17 27.9954L1267.82 31.2815M1183.84 31.2815H1225.83M1183.84 31.2815H1141.85M1235.02 34.6982L1225.83 31.2815M1235.02 34.6982L1244.59 38.2537M1235.02 34.6982H1277.85M1225.83 31.2815H1267.82M1141.85 31.2815H1099.87M1141.85 31.2815L1134.62 27.9954M1267.82 31.2815L1277.85 34.6982M1134.62 27.9954H1093.44M1244.59 38.2537L1254.56 41.9567M1244.59 38.2537H1288.28M1277.85 34.6982L1288.28 38.2537M1288.28 38.2537L1299.16 41.9567M1209.96 41.9567L1219.4 45.8165M1209.96 41.9567H1254.56M1209.96 41.9567H1165.36M1254.56 41.9567L1264.94 45.8165M1254.56 41.9567H1299.16M1299.16 41.9567L1310.49 45.8165M1219.4 45.8165H1264.94M1219.4 45.8165H1173.86M1275.78 49.8433L1264.94 45.8165M1275.78 49.8433L1287.1 54.0478M1275.78 49.8433H1322.31M1264.94 45.8165H1310.49M1173.86 45.8165H1128.31M1173.86 45.8165L1165.36 41.9567M1310.49 45.8165L1322.31 49.8433M1165.36 41.9567H1120.76M1287.1 54.0478L1298.92 58.4429M1287.1 54.0478H1334.65M1322.31 49.8433L1334.65 54.0478M1334.65 54.0478L1347.56 58.4429M1250.29 58.4429L1261.54 63.0411M1250.29 58.4429H1298.92M1250.29 58.4429H1201.66M1298.92 58.4429L1311.3 63.0411M1298.92 58.4429H1347.56M1347.56 58.4429L1361.05 63.0411M1261.54 63.0411H1311.3M1261.54 63.0411H1211.78M1324.26 67.8571L1311.3 63.0411M1324.26 67.8571L1337.85 72.9066M1324.26 67.8571H1375.19M1311.3 63.0411H1361.05M1211.78 63.0411H1162.03M1211.78 63.0411L1201.66 58.4429M1361.05 63.0411L1375.19 67.8571M1201.66 58.4429H1153.03M1337.85 72.9066L1352.11 78.2075M1337.85 72.9066H1390.02M1375.19 67.8571L1390.02 72.9066M1390.02 72.9066L1405.58 78.2075M1298.64 78.2075L1312.27 83.7782M1298.64 78.2075H1352.11M1298.64 78.2075H1245.18M1352.11 78.2075L1367.1 83.7782M1352.11 78.2075H1405.58M1405.58 78.2075L1421.93 83.7782M1312.27 83.7782H1367.1M1312.27 83.7782H1257.44M1382.88 89.6405L1367.1 83.7782M1382.88 89.6405L1399.5 95.8176M1382.88 89.6405H1439.14M1367.1 83.7782H1421.93M1257.44 83.7782H1202.61M1257.44 83.7782L1245.18 78.2075M1421.93 83.7782L1439.14 89.6405M1421.93 83.7782H1476.76M1245.18 78.2075H1191.71M1399.5 95.8176L1417.04 102.336M1399.5 95.8176H1457.28M1439.14 89.6405L1457.28 95.8176M1476.76 83.7782H1526.58M1457.28 95.8176L1476.41 102.336M1357.67 102.336L1374.53 109.224M1357.67 102.336H1417.04M1357.67 102.336H1298.3M1417.04 102.336L1435.58 109.224M1417.04 102.336H1476.41M1476.41 102.336L1496.64 109.224M1476.41 102.336H1526.58M1374.53 109.224H1435.58M1374.53 109.224H1313.47M1455.2 116.515L1435.58 109.224M1455.2 116.515L1476 124.244M1455.2 116.515H1518.04M1435.58 109.224H1496.64M1313.47 109.224H1252.41M1313.47 109.224L1298.3 102.336M1496.64 109.224L1518.04 116.515M1496.64 109.224H1526.58M1298.3 102.336H1238.93M1476 124.244L1498.09 132.454M1476 124.244H1526.58M1518.04 116.515H1526.58M1518.04 116.515L1526.58 119.423M1431.36 132.454L1452.72 141.189M1431.36 132.454H1498.09M1431.36 132.454H1364.62M1498.09 132.454L1521.6 141.189M1498.09 132.454H1526.58M1452.72 141.189H1521.6M1452.72 141.189H1383.85M1521.6 141.189L1526.58 143.039M1521.6 141.189H1526.58M1383.85 141.189H1314.97M1383.85 141.189L1364.62 132.454M1364.62 132.454H1297.88M1525.92 171.106H1449.72M1525.92 171.106H1526.58M1525.92 171.106L1526.58 171.376M1449.72 171.106H1373.53M1449.72 171.106L1474.91 182.544M993.49 16.0208L995.031 17.0704L995.549 17.4237L997.646 18.852M993.49 16.0208H1031.74M993.49 16.0208H955.237M1027.07 13.2886L1023.66 11.3015L1022.55 10.6502M1027.07 13.2886L1031.15 15.6739L1031.74 16.0208M1027.07 13.2886H1064.65M1022.55 10.6502H1059.49M1022.55 10.6502L1018.18 8.10112M981.865 8.10112H1018.18M981.865 8.10112L980.494 7.16723L978.248 5.63645M981.865 8.10112H945.549M1031.74 16.0208L1032.94 16.7189L1036.59 18.852M1031.74 16.0208H1070M1064.65 13.2886L1059.49 10.6502M1064.65 13.2886L1070 16.0208M1059.49 10.6502L1055.73 8.73022L1054.5 8.10112M1018.18 8.10112H1054.5M1018.18 8.10112L1013.96 5.63645M1070 16.0208L1075.54 18.852M1090.81 8.10112L1090.13 7.78816L1085.39 5.63645M1090.81 8.10112H1054.5M1054.5 8.10112L1052.67 7.16723L1049.67 5.63645M997.646 18.852H1036.59M997.646 18.852H958.699M1041.62 21.7875L1036.59 18.852M1041.62 21.7875L1046.84 24.8332M1041.62 21.7875H1081.28M1036.59 18.852H1075.54M958.699 18.852H919.753M958.699 18.852L955.237 16.0208M1075.54 18.852L1081.28 21.7875M955.237 16.0208H916.983M1046.84 24.8332L1050.2 26.7958L1050.88 27.1935L1052.25 27.9954M1046.84 24.8332H1087.25M1081.28 21.7875L1087.25 24.8332M1087.25 24.8332L1093.44 27.9954M1011.07 27.9954L1015.89 31.2815M1011.07 27.9954H1052.25M1011.07 27.9954H969.884M1052.25 27.9954L1057.88 31.2815M1052.25 27.9954H1093.44M1093.44 27.9954L1099.87 31.2815M1015.89 31.2815H1057.88M1015.89 31.2815H973.904M1063.73 34.6982L1060.05 32.547L1059.32 32.1229L1057.88 31.2815M1063.73 34.6982L1069.82 38.2537M1063.73 34.6982H1106.55M1057.88 31.2815H1099.87M973.904 31.2815H931.917M973.904 31.2815L969.884 27.9954M1099.87 31.2815L1106.55 34.6982M969.884 27.9954H928.701M1069.82 38.2537L1076.16 41.9567M1069.82 38.2537H1113.51M1106.55 34.6982L1113.51 38.2537M1113.51 38.2537L1120.76 41.9567M1031.56 41.9567L1034.36 43.8662L1035.07 44.3501L1037.23 45.8165M1031.56 41.9567H1076.16M1031.56 41.9567H986.962M1076.16 41.9567L1082.77 45.8165M1076.16 41.9567H1120.76M1120.76 41.9567L1128.31 45.8165M1037.23 45.8165H1082.77M1037.23 45.8165H991.684M1089.67 49.8433L1082.77 45.8165M1089.67 49.8433L1096.87 54.0478M1089.67 49.8433H1136.19M1082.77 45.8165H1128.31M991.684 45.8165H946.14M991.684 45.8165L990.484 44.8364L986.962 41.9567M1128.31 45.8165L1136.19 49.8433M986.962 41.9567H942.364M1096.87 54.0478L1104.39 58.4429M1096.87 54.0478H1144.42M1136.19 49.8433L1144.42 54.0478M1144.42 54.0478L1153.03 58.4429M1055.76 58.4429L1062.51 63.0411M1055.76 58.4429H1104.39M1055.76 58.4429H1007.13M1104.39 58.4429L1112.27 63.0411M1104.39 58.4429H1153.03M1153.03 58.4429L1162.03 63.0411M1062.51 63.0411H1112.27M1062.51 63.0411H1012.75M1120.52 67.8571L1112.27 63.0411M1120.52 67.8571L1129.16 72.9066M1120.52 67.8571H1171.45M1112.27 63.0411H1162.03M1012.75 63.0411H962.996M1012.75 63.0411L1007.13 58.4429M1162.03 63.0411L1171.45 67.8571M1007.13 58.4429H958.497M1129.16 72.9066L1138.24 78.2075M1129.16 72.9066H1181.33M1171.45 67.8571L1181.33 72.9066M1181.33 72.9066L1191.71 78.2075M1084.77 78.2075L1092.95 83.7782M1084.77 78.2075H1138.24M1084.77 78.2075H1031.31M1138.24 78.2075L1147.78 83.7782M1138.24 78.2075H1191.71M1191.71 78.2075L1202.61 83.7782M1092.95 83.7782H1147.78M1092.95 83.7782H1038.12M1157.82 89.6405L1147.78 83.7782M1157.82 89.6405L1168.4 95.8176M1157.82 89.6405H1214.09M1147.78 83.7782H1202.61M1038.12 83.7782H983.29M1038.12 83.7782L1031.31 78.2075M1202.61 83.7782L1214.09 89.6405M1031.31 78.2075H977.838M1168.4 95.8176L1179.56 102.336M1168.4 95.8176H1226.18M1214.09 89.6405L1226.18 95.8176M1226.18 95.8176L1238.93 102.336M1120.19 102.336L1130.3 109.224M1120.19 102.336H1179.56M1120.19 102.336H1060.82M1179.56 102.336L1191.36 109.224M1179.56 102.336H1238.93M1238.93 102.336L1252.41 109.224M1130.3 109.224H1191.36M1130.3 109.224H1069.25M1203.84 116.515L1191.36 109.224M1203.84 116.515L1217.08 124.244M1203.84 116.515H1266.68M1191.36 109.224H1252.41M1069.25 109.224H1008.19M1069.25 109.224L1060.82 102.336M1252.41 109.224L1266.68 116.515M1060.82 102.336H1001.45M1217.08 124.244L1231.14 132.454M1217.08 124.244H1281.81M1266.68 116.515L1281.81 124.244M1281.81 124.244L1297.88 132.454M1164.4 132.454L1177.22 141.189M1164.4 132.454H1231.14M1164.4 132.454H1097.66M1231.14 132.454L1246.1 141.189M1231.14 132.454H1297.88M1297.88 132.454L1314.97 141.189M1177.22 141.189H1246.1M1177.22 141.189H1108.35M1262.05 150.501L1246.1 141.189M1262.05 150.501L1279.09 160.451M1262.05 150.501H1333.2M1246.1 141.189H1314.97M1108.35 141.189H1039.47M1108.35 141.189L1097.66 132.454M1314.97 141.189L1333.2 150.501M1097.66 132.454H1030.92M1279.09 160.451L1297.33 171.106M1279.09 160.451H1352.67M1333.2 150.501L1352.67 160.451M1352.67 160.451L1373.53 171.106M1221.14 171.106L1237.93 182.544M1221.14 171.106H1297.33M1221.14 171.106H1144.94M1297.33 171.106L1316.92 182.544M1297.33 171.106H1373.53M1373.53 171.106L1395.91 182.544M1237.93 182.544H1316.92M1237.93 182.544H1158.93M1338 194.853L1316.92 182.544M1338 194.853L1360.75 208.138M1338 194.853H1420M1316.92 182.544H1395.91M1158.93 182.544H1079.94M1158.93 182.544L1144.94 171.106M1395.91 182.544L1420 194.853M1395.91 182.544H1474.91M1144.94 171.106H1068.75M1360.75 208.138L1385.38 222.52M1360.75 208.138H1446.01M1420 194.853L1446.01 208.138M1474.91 182.544H1526.58M1446.01 208.138L1474.15 222.52M1446.01 208.138H1526.58M1296.61 222.52L1319.53 238.14M1296.61 222.52H1385.38M1296.61 222.52H1207.83M1385.38 222.52L1412.13 238.14M1385.38 222.52H1474.15M1474.15 222.52L1504.72 238.14M1474.15 222.52H1526.58M1319.53 238.14H1412.13M1319.53 238.14H1226.94M1441.29 255.165L1412.13 238.14M1441.29 255.165L1473.19 273.794M1441.29 255.165H1526.58M1412.13 238.14H1504.72M1226.94 238.14H1134.35M1226.94 238.14L1207.83 222.52M1504.72 238.14H1526.58M1504.72 238.14L1526.58 249.307M1207.83 222.52H1119.06M1473.19 273.794L1508.24 294.265M1473.19 273.794H1526.58M1401.92 294.265L1435.09 316.864M1401.92 294.265H1508.24M1401.92 294.265H1295.59M1508.24 294.265L1526.58 304.971M1508.24 294.265H1526.58M1526.58 316.864L1435.09 316.864H1323.24M1323.24 316.864H1211.38M1323.24 316.864L1295.59 294.265M1295.59 294.265H1189.27M840.475 16.0208L840.646 16.3692L840.816 16.7189L840.989 17.0704L841.161 17.4237L841.685 18.4923L841.86 18.852M840.475 16.0208H878.729M840.475 16.0208H802.221M876.723 13.2886L875.265 11.3015L874.787 10.6502M876.723 13.2886L877.969 14.9849L878.729 16.0208M876.723 13.2886H914.309M874.787 10.6502H911.727M874.787 10.6502L873.378 8.73022L872.916 8.10112M836.6 8.10112L836.447 7.78816L835.842 6.55083L835.394 5.63645M836.6 8.10112H872.916M836.6 8.10112H800.284M878.729 16.0208L878.984 16.3692L879.242 16.7189L879.499 17.0704L879.759 17.4237L880.807 18.852M878.729 16.0208H916.983M914.309 13.2886L912.364 11.3015L911.727 10.6502M914.309 13.2886L916.983 16.0208M911.727 10.6502L910.469 9.36476L909.54 8.415L909.233 8.10112M872.916 8.10112L872.687 7.78816L872.231 7.16723L871.778 6.55083L871.554 6.24468L871.107 5.63645M872.916 8.10112H909.233M916.983 16.0208L919.052 18.1345L919.753 18.852M945.549 8.10112L943.279 6.24468L942.534 5.63645M945.549 8.10112H909.233M909.233 8.10112L907.118 5.93989L906.82 5.63645M841.86 18.852H880.807M841.86 18.852H802.914M882.961 21.7875L880.807 18.852M882.961 21.7875L885.196 24.8332M882.961 21.7875H922.625M880.807 18.852H919.753M802.914 18.852H763.967M802.914 18.852L802.221 16.0208M919.753 18.852L922.625 21.7875M802.221 16.0208H763.967M885.196 24.8332L885.769 25.6124L886.637 26.7958L887.518 27.9954M885.196 24.8332H925.607M922.625 21.7875L922.993 22.1617L925.607 24.8332M925.607 24.8332L925.986 25.2219L926.369 25.6124L926.753 26.0052L928.701 27.9954M846.334 27.9954L847.942 31.2815M846.334 27.9954H887.518M846.334 27.9954H805.151M887.518 27.9954L889.929 31.2815M887.518 27.9954H928.701M928.701 27.9954L931.101 30.4479L931.508 30.8638L931.917 31.2815M847.942 31.2815H889.929M847.942 31.2815H805.955M892.437 34.6982L892.757 35.135L893.08 35.5736L893.403 36.0149L895.047 38.2537M892.437 34.6982L891.171 32.9729L890.858 32.547L890.547 32.1229L889.929 31.2815M892.437 34.6982H935.26M889.929 31.2815H931.917M805.955 31.2815H763.967M805.955 31.2815L805.151 27.9954M931.917 31.2815L935.26 34.6982M805.151 27.9954H763.967M895.047 38.2537L897.419 41.4854L897.764 41.9567M895.047 38.2537H938.74M935.26 34.6982L936.117 35.5736L938.74 38.2537M938.74 38.2537L940.081 39.6244L942.364 41.9567M853.165 41.9567L854.1 43.8662L854.336 44.3501L855.054 45.8165M853.165 41.9567H897.764M853.165 41.9567H808.567M897.764 41.9567L900.597 45.8165M897.764 41.9567H942.364M942.364 41.9567L946.14 45.8165M855.054 45.8165H900.597M855.054 45.8165H809.51M903.552 49.8433L900.597 45.8165M903.552 49.8433L906.638 54.0478M903.552 49.8433H950.081M900.597 45.8165H946.14M809.51 45.8165H763.967M809.51 45.8165L809.27 44.8364L808.799 42.9064L808.567 41.9567M946.14 45.8165L950.081 49.8433M808.567 41.9567H763.967M906.638 54.0478L909.044 57.3258L909.864 58.4429M906.638 54.0478H954.196M950.081 49.8433L954.196 54.0478M954.196 54.0478L956.322 56.2209L958.497 58.4429M861.232 58.4429L863.482 63.0411M861.232 58.4429H909.864M861.232 58.4429H812.6M909.864 58.4429L913.239 63.0411M909.864 58.4429H958.497M958.497 58.4429L962.996 63.0411M863.482 63.0411H913.239M863.482 63.0411H813.725M916.774 67.8571L915.874 66.632L913.239 63.0411M916.774 67.8571L920.48 72.9066M916.774 67.8571H967.709M913.239 63.0411H962.996M813.725 63.0411H763.967M813.725 63.0411L812.6 58.4429M962.996 63.0411L967.709 67.8571M812.6 58.4429H763.967M920.48 72.9066L924.37 78.2075M920.48 72.9066H972.65M967.709 67.8571L972.65 72.9066M972.65 72.9066L977.838 78.2075M870.903 78.2075L873.629 83.7782M870.903 78.2075H924.37M870.903 78.2075H817.435M924.37 78.2075L928.459 83.7782M924.37 78.2075H977.838M977.838 78.2075L983.29 83.7782M873.629 83.7782H928.459M873.629 83.7782H818.797M932.762 89.6405L928.459 83.7782M932.762 89.6405L937.295 95.8176M932.762 89.6405H989.026M928.459 83.7782H983.29M818.797 83.7782H763.967M818.797 83.7782L817.601 78.8887L817.435 78.2075M983.29 83.7782L989.026 89.6405M817.435 78.2075H763.967M937.295 95.8176L942.079 102.336M937.295 95.8176H995.071M989.026 89.6405L993.529 94.2429L995.071 95.8176M995.071 95.8176L1001.45 102.336M882.708 102.336L886.079 109.224M882.708 102.336H942.079M882.708 102.336H823.338M942.079 102.336L947.135 109.224M942.079 102.336H1001.45M1001.45 102.336L1008.19 109.224M886.079 109.224H947.135M886.079 109.224H825.023M952.486 116.515L947.135 109.224M952.486 116.515L958.158 124.244M952.486 116.515H1015.32M947.135 109.224H1008.19M825.023 109.224H763.967M825.023 109.224L823.338 102.336M1008.19 109.224L1015.32 116.515M823.338 102.336H763.967M958.158 124.244L964.184 132.454M958.158 124.244H1022.89M1015.32 116.515L1022.89 124.244M1022.89 124.244L1030.92 132.454M897.445 132.454L901.719 141.189M897.445 132.454H964.184M897.445 132.454H830.706M964.184 132.454L970.595 141.189M964.184 132.454H1030.92M1030.92 132.454L1039.47 141.189M901.719 141.189H970.595M901.719 141.189H832.843M977.429 150.501L970.595 141.189M977.429 150.501L984.732 160.451M977.429 150.501H1048.58M970.595 141.189H1039.47M832.843 141.189H763.967M832.843 141.189L830.706 132.454M1039.47 141.189L1048.58 150.501M830.706 132.454H763.967M984.732 160.451L992.552 171.106M984.732 160.451H1058.32M1048.58 150.501L1058.32 160.451M1058.32 160.451L1068.75 171.106M916.357 171.106L921.953 182.544M916.357 171.106H992.552M916.357 171.106H840.163M992.552 171.106L1000.95 182.544M992.552 171.106H1068.75M1068.75 171.106L1079.94 182.544M921.953 182.544H1000.95M921.953 182.544H842.96M1009.98 194.853L1000.95 182.544M1009.98 194.853L1019.73 208.138M1009.98 194.853H1091.99M1000.95 182.544H1079.94M842.96 182.544H763.967M842.96 182.544L840.163 171.106M1079.94 182.544L1091.99 194.853M840.163 171.106H763.967M1019.73 208.138L1030.29 222.52M1019.73 208.138H1104.99M1091.99 194.853L1104.99 208.138M1104.99 208.138L1119.06 222.52M941.514 222.52L949.156 238.14M941.514 222.52H1030.29M941.514 222.52H852.741M1030.29 222.52L1041.75 238.14M1030.29 222.52H1119.06M1119.06 222.52L1134.35 238.14M949.156 238.14H1041.75M949.156 238.14H856.562M1054.25 255.165L1041.75 238.14M1054.25 255.165L1067.92 273.794M1054.25 255.165H1151.01M1041.75 238.14H1134.35M856.562 238.14H763.967M856.562 238.14L852.741 222.52M1134.35 238.14L1151.01 255.165M852.741 222.52H763.967M1067.92 273.794L1082.94 294.265M1067.92 273.794H1169.24M1151.01 255.165L1169.24 273.794M1169.24 273.794L1189.27 294.265M976.618 294.265L987.675 316.864M976.618 294.265H1082.94M976.618 294.265H870.293M1082.94 294.265L1099.53 316.864M1082.94 294.265H1189.27M1189.27 294.265L1211.38 316.864M1099.53 316.864H987.675M1099.53 316.864H1211.38M987.675 316.864H875.822M875.822 316.864H763.967M875.822 316.864L870.293 294.265M870.293 294.265H763.967M687.46 16.0208L687.289 16.3692L687.118 16.7189L686.946 17.0704L686.774 17.4237L686.426 18.1345L686.25 18.4923L686.075 18.852M687.46 16.0208H725.714M687.46 16.0208H649.205M726.382 13.2886L727.028 10.6502M726.382 13.2886L725.714 16.0208M726.382 13.2886H763.967M727.028 10.6502L727.106 10.3268L727.186 10.0047L727.264 9.68406L727.651 8.10112M727.028 10.6502H763.967M691.335 8.10112L691.487 7.78816L692.093 6.55083L692.541 5.63645M691.335 8.10112H727.651M691.335 8.10112H655.019M725.714 16.0208L725.628 16.3692L725.543 16.7189L725.456 17.0704L725.021 18.852M725.714 16.0208H763.967M763.967 13.2886V10.6502M763.967 13.2886V16.0208M763.967 10.6502V8.10112M727.651 8.10112H763.967M727.651 8.10112L727.879 7.16723L727.955 6.85836L728.254 5.63645M763.967 16.0208V18.852M800.284 8.10112L800.056 7.16723L799.979 6.85836L799.905 6.55083L799.829 6.24468L799.755 5.93989L799.681 5.63645M800.284 8.10112H763.967M763.967 8.10112V5.63645M686.075 18.852H725.021M686.075 18.852H647.128M724.303 21.7875L724.211 22.1617L724.119 22.5381L723.558 24.8332M724.303 21.7875L725.021 18.852M724.303 21.7875H763.967M725.021 18.852H763.967M647.128 18.852H608.182M647.128 18.852L647.654 18.1345L647.916 17.7784L648.176 17.4237L648.436 17.0704L648.693 16.7189L648.95 16.3692L649.205 16.0208M763.967 18.852V21.7875M649.205 16.0208H610.952M723.558 24.8332L722.784 27.9954M723.558 24.8332H763.967M763.967 21.7875V24.8332M763.967 24.8332V27.9954M681.601 27.9954L679.993 31.2815M681.601 27.9954H722.784M681.601 27.9954H640.417M722.784 27.9954L721.98 31.2815M722.784 27.9954H763.967M763.967 27.9954V31.2815M679.993 31.2815H721.98M679.993 31.2815H638.005M721.144 34.6982L721.98 31.2815M721.144 34.6982L720.274 38.2537M721.144 34.6982H763.967M721.98 31.2815H763.967M638.005 31.2815H596.018M638.005 31.2815L640.417 27.9954M763.967 31.2815V34.6982M640.417 27.9954H599.234M720.274 38.2537L719.939 39.6244L719.598 41.0164L719.368 41.9567M720.274 38.2537H763.967M763.967 34.6982V38.2537M763.967 38.2537V41.9567M674.77 41.9567L673.835 43.8662L673.599 44.3501L672.881 45.8165M674.77 41.9567H719.368M674.77 41.9567H630.17M719.368 41.9567L719.136 42.9064L718.664 44.8364L718.424 45.8165M719.368 41.9567H763.967M763.967 41.9567V45.8165M672.881 45.8165H718.424M672.881 45.8165H627.338M717.439 49.8433L717.564 49.3303L718.424 45.8165M717.439 49.8433L716.411 54.0478M717.439 49.8433H763.967M718.424 45.8165H763.967M627.338 45.8165H581.795M627.338 45.8165L630.17 41.9567M763.967 45.8165V49.8433M630.17 41.9567H585.571M716.411 54.0478L715.335 58.4429M716.411 54.0478H763.967M763.967 49.8433V54.0478M763.967 54.0478V58.4429M666.703 58.4429L664.453 63.0411M666.703 58.4429H715.335M666.703 58.4429H618.07M715.335 58.4429L714.21 63.0411M715.335 58.4429H763.967M763.967 58.4429V63.0411M664.453 63.0411H714.21M664.453 63.0411H614.696M713.032 67.8571L714.21 63.0411M713.032 67.8571L711.797 72.9066M713.032 67.8571H763.967M714.21 63.0411H763.967M614.696 63.0411H564.938M614.696 63.0411L618.07 58.4429M763.967 63.0411V67.8571M618.07 58.4429H569.438M711.797 72.9066L710.5 78.2075M711.797 72.9066H763.967M763.967 67.8571V72.9066M763.967 72.9066V78.2075M657.032 78.2075L654.306 83.7782M657.032 78.2075H710.5M657.032 78.2075H603.565M710.5 78.2075L709.137 83.7782M710.5 78.2075H763.967M763.967 78.2075V83.7782M654.306 83.7782H709.137M654.306 83.7782H599.476M707.702 89.6405L709.137 83.7782M707.702 89.6405L706.192 95.8176M707.702 89.6405H763.967M709.137 83.7782H763.967M599.476 83.7782H544.645M599.476 83.7782L603.565 78.2075M763.967 83.7782V89.6405M603.565 78.2075H550.097M706.192 95.8176L704.596 102.336M706.192 95.8176H763.967M763.967 89.6405V95.8176M763.967 95.8176V102.336M645.226 102.336L641.856 109.224M645.226 102.336H704.596M645.226 102.336H585.855M704.596 102.336L702.912 109.224M704.596 102.336H763.967M763.967 102.336V109.224M641.856 109.224H702.912M641.856 109.224H580.8M701.128 116.515L702.912 109.224M701.128 116.515L699.237 124.244M701.128 116.515H763.967M702.912 109.224H763.967M580.8 109.224H519.744M580.8 109.224L585.855 102.336M763.967 109.224V116.515M585.855 102.336H526.485M699.237 124.244L697.229 132.454M699.237 124.244H763.967M763.967 116.515V124.244M763.967 124.244V132.454M630.49 132.454L626.216 141.189M630.49 132.454H697.229M630.49 132.454H563.751M697.229 132.454L695.092 141.189M697.229 132.454H763.967M763.967 132.454V141.189M626.216 141.189H695.092M626.216 141.189H557.34M692.813 150.501L695.092 141.189M692.813 150.501L690.379 160.451M692.813 150.501H763.967M695.092 141.189H763.967M557.34 141.189H488.464M557.34 141.189L563.751 132.454M763.967 141.189V150.501M563.751 132.454H497.012M690.379 160.451L687.772 171.106M690.379 160.451H763.967M763.967 150.501V160.451M763.967 160.451V171.106M611.578 171.106L605.981 182.544M611.578 171.106H687.772M611.578 171.106H535.382M687.772 171.106L684.974 182.544M687.772 171.106H763.967M763.967 171.106V182.544M605.981 182.544H684.974M605.981 182.544H526.988M681.963 194.853L684.974 182.544M681.963 194.853L678.713 208.138M681.963 194.853H763.967M684.974 182.544H763.967M526.988 182.544H447.995M526.988 182.544L535.382 171.106M763.967 182.544V194.853M535.382 171.106H459.187M678.713 208.138L675.194 222.52M678.713 208.138H763.967M763.967 194.853V208.138M763.967 208.138V222.52M586.421 222.52L578.778 238.14M586.421 222.52H675.194M586.421 222.52H497.647M675.194 222.52L671.373 238.14M675.194 222.52H763.967M763.967 222.52V238.14M578.778 238.14H671.373M578.778 238.14H486.184M667.208 255.165L671.373 238.14M667.208 255.165L662.65 273.794M667.208 255.165H763.967M671.373 238.14H763.967M486.184 238.14H393.589M486.184 238.14L497.647 222.52M763.967 238.14V255.165M497.647 222.52H408.875M662.65 273.794L657.642 294.265M662.65 273.794H763.967M763.967 255.165V273.794M763.967 273.794V294.265M551.317 294.265L540.259 316.864M551.317 294.265H657.642M551.317 294.265H444.992M657.642 294.265L652.113 316.864M657.642 294.265H763.967M763.967 294.265V316.864M652.113 316.864H540.259M652.113 316.864H763.967M540.259 316.864H428.405M428.405 316.864H316.55M428.405 316.864L444.992 294.265M444.992 294.265H338.666M534.444 16.0208L532.385 17.4237L530.289 18.852M534.444 16.0208H572.698M534.444 16.0208H496.191M576.04 13.2886L579.268 10.6502M576.04 13.2886L572.698 16.0208M576.04 13.2886H613.626M579.268 10.6502H616.207M579.268 10.6502L581.616 8.73022L582.386 8.10112M546.069 8.10112H582.386M546.069 8.10112L547.44 7.16723L549.687 5.63645M546.069 8.10112H509.753M572.698 16.0208L569.235 18.852M572.698 16.0208H610.952M613.626 13.2886L616.207 10.6502M613.626 13.2886L610.952 16.0208M616.207 10.6502L617.466 9.36476L618.395 8.415L618.702 8.10112M582.386 8.10112H618.702M582.386 8.10112L584.656 6.24468L585.4 5.63645M610.952 16.0208L608.883 18.1345L608.182 18.852M655.019 8.10112L655.248 7.78816L655.703 7.16723L656.38 6.24468L656.828 5.63645M655.019 8.10112H618.702M618.702 8.10112L619.008 7.78816L619.616 7.16723L621.114 5.63645M530.289 18.852H569.235M530.289 18.852H491.342M565.644 21.7875L566.101 21.4146L566.554 21.0432L568.35 19.5754L569.235 18.852M565.644 21.7875L562.863 24.0608L561.918 24.8332M565.644 21.7875H605.309M569.235 18.852H608.182M491.342 18.852H452.395M491.342 18.852L494.994 16.7189L496.191 16.0208M608.182 18.852L605.309 21.7875M496.191 16.0208H457.936M561.918 24.8332L561.443 25.2219L560.965 25.6124L559.518 26.7958L559.031 27.1935L558.05 27.9954M561.918 24.8332H602.328M605.309 21.7875L604.942 22.1617L602.328 24.8332M602.328 24.8332L601.948 25.2219L601.565 25.6124L601.182 26.0052L599.234 27.9954M516.867 27.9954L512.043 31.2815M516.867 27.9954H558.05M516.867 27.9954H475.683M558.05 27.9954L554.031 31.2815M558.05 27.9954H599.234M599.234 27.9954L596.018 31.2815M512.043 31.2815H554.031M512.043 31.2815H470.056M549.851 34.6982L554.031 31.2815M549.851 34.6982L545.502 38.2537M549.851 34.6982H592.674M554.031 31.2815H596.018M470.056 31.2815H428.069M470.056 31.2815L475.683 27.9954M596.018 31.2815L592.674 34.6982M475.683 27.9954H434.499M545.502 38.2537L540.973 41.9567M545.502 38.2537H589.195M592.674 34.6982L591.817 35.5736L589.195 38.2537M589.195 38.2537L587.853 39.6244L586.491 41.0164L585.571 41.9567M496.373 41.9567L493.57 43.8662L490.708 45.8165M496.373 41.9567H540.973M496.373 41.9567H451.774M540.973 41.9567L536.251 45.8165M540.973 41.9567H585.571M585.571 41.9567L581.795 45.8165M490.708 45.8165H536.251M490.708 45.8165H445.165M531.326 49.8433L536.251 45.8165M531.326 49.8433L526.182 54.0478M531.326 49.8433H577.854M536.251 45.8165H581.795M445.165 45.8165H399.621M445.165 45.8165L451.774 41.9567M581.795 45.8165L577.854 49.8433M451.774 41.9567H407.176M526.182 54.0478L524.86 55.1282L520.806 58.4429M526.182 54.0478H573.739M577.854 49.8433L573.739 54.0478M573.739 54.0478L573.212 54.5867L571.613 56.2209L569.438 58.4429M472.174 58.4429L465.424 63.0411M472.174 58.4429H520.806M472.174 58.4429H423.541M520.806 58.4429L515.181 63.0411M520.806 58.4429H569.438M569.438 58.4429L564.938 63.0411M465.424 63.0411H515.181M465.424 63.0411H415.667M509.29 67.8571L513.005 64.8209L515.181 63.0411M509.29 67.8571L503.113 72.9066M509.29 67.8571H560.225M515.181 63.0411H564.938M415.667 63.0411H365.909M415.667 63.0411L423.541 58.4429M564.938 63.0411L560.225 67.8571M423.541 58.4429H374.909M503.113 72.9066L496.629 78.2075M503.113 72.9066H555.284M560.225 67.8571L555.284 72.9066M555.284 72.9066L550.097 78.2075M443.161 78.2075L434.984 83.7782M443.161 78.2075H496.629M443.161 78.2075H389.694M496.629 78.2075L489.815 83.7782M496.629 78.2075H550.097M550.097 78.2075L544.645 83.7782M434.984 83.7782H489.815M434.984 83.7782H380.154M482.644 89.6405L489.815 83.7782M482.644 89.6405L475.088 95.8176M482.644 89.6405H538.909M489.815 83.7782H544.645M380.154 83.7782H325.323M380.154 83.7782L389.694 78.2075M544.645 83.7782L538.909 89.6405M389.694 78.2075H336.226M475.088 95.8176L467.114 102.336M475.088 95.8176H532.863M538.909 89.6405L532.863 95.8176M532.863 95.8176L526.485 102.336M407.743 102.336L397.633 109.224M407.743 102.336H467.114M407.743 102.336H348.373M467.114 102.336L458.688 109.224M467.114 102.336H526.485M526.485 102.336L519.744 109.224M397.633 109.224H458.688M397.633 109.224H336.577M449.77 116.515L458.688 109.224M449.77 116.515L440.315 124.244M449.77 116.515H512.61M458.688 109.224H519.744M336.577 109.224H275.521M336.577 109.224L348.373 102.336M519.744 109.224L512.61 116.515M348.373 102.336H289.002M440.315 124.244L430.273 132.454M440.315 124.244H505.046M512.61 116.515L505.046 124.244M505.046 124.244L497.012 132.454M363.534 132.454L350.713 141.189M363.534 132.454H430.273M363.534 132.454H296.795M430.273 132.454L419.589 141.189M430.273 132.454H497.012M497.012 132.454L488.464 141.189M350.713 141.189H419.589M350.713 141.189H281.837M408.197 150.501L419.589 141.189M408.197 150.501L396.025 160.451M408.197 150.501H479.351M419.589 141.189H488.464M281.837 141.189H212.961M281.837 141.189L296.795 132.454M488.464 141.189L479.351 150.501M296.795 132.454H230.057M396.025 160.451L382.993 171.106M396.025 160.451H469.614M479.351 150.501L469.614 160.451M469.614 160.451L459.187 171.106M306.798 171.106L290.009 182.544M306.798 171.106H382.993M306.798 171.106H230.602M382.993 171.106L369.002 182.544M382.993 171.106H459.187M459.187 171.106L447.995 182.544M290.009 182.544H369.002M290.009 182.544H211.016M353.944 194.853L369.002 182.544M353.944 194.853L337.694 208.138M353.944 194.853H435.949M369.002 182.544H447.995M211.016 182.544H132.023M211.016 182.544L230.602 171.106M447.995 182.544L435.949 194.853M230.602 171.106H154.407M337.694 208.138L320.101 222.52M337.694 208.138H422.948M435.949 194.853L422.948 208.138M422.948 208.138L408.875 222.52M231.328 222.52L208.4 238.14M231.328 222.52H320.101M231.328 222.52H142.555M320.101 222.52L300.995 238.14M320.101 222.52H408.875M408.875 222.52L393.589 238.14M208.4 238.14H300.995M208.4 238.14H115.805M280.169 255.165L300.995 238.14M280.169 255.165L257.381 273.794M280.169 255.165H376.928M300.995 238.14H393.589M115.805 238.14H23.2109M115.805 238.14L142.555 222.52M393.589 238.14L376.928 255.165M142.555 222.52H53.7821M257.381 273.794L232.341 294.265M257.381 273.794H358.699M376.928 255.165L358.699 273.794M358.699 273.794L338.666 294.265M126.016 294.265L92.8421 316.864M126.016 294.265H232.341M126.016 294.265H19.6902M232.341 294.265L204.697 316.864M232.341 294.265H338.666M338.666 294.265L316.55 316.864M1.35571 316.864L92.8421 316.864H204.697M204.697 316.864H316.55M19.6902 294.265L1.35571 304.971M19.6902 294.265H1.35571M381.429 16.0208L374.502 18.852M381.429 16.0208H419.682M381.429 16.0208H343.175M425.698 13.2886L431.508 10.6502M425.698 13.2886L419.682 16.0208M425.698 13.2886H463.284M431.508 10.6502H468.447M431.508 10.6502L437.121 8.10112M400.804 8.10112H437.121M400.804 8.10112L403.089 7.16723L406.834 5.63645M400.804 8.10112H364.488M419.682 16.0208L413.449 18.852M419.682 16.0208H457.936M463.284 13.2886L468.447 10.6502M463.284 13.2886L457.936 16.0208M468.447 10.6502L472.206 8.73022L473.437 8.10112M437.121 8.10112L437.809 7.78816L442.547 5.63645M437.121 8.10112H473.437M457.936 16.0208L452.395 18.852M509.753 8.10112L513.974 5.63645M509.753 8.10112H473.437M473.437 8.10112L475.265 7.16723L478.26 5.63645M374.502 18.852H413.449M374.502 18.852H335.556M406.986 21.7875L413.449 18.852M406.986 21.7875L400.279 24.8332M406.986 21.7875H446.65M413.449 18.852H452.395M335.556 18.852H296.61M335.556 18.852L343.175 16.0208M452.395 18.852L446.65 21.7875M343.175 16.0208H304.921M400.279 24.8332L398.563 25.6124L393.316 27.9954M400.279 24.8332H440.689M446.65 21.7875L440.689 24.8332M440.689 24.8332L434.499 27.9954M352.132 27.9954L351.145 28.3996L344.094 31.2815M352.132 27.9954H393.316M352.132 27.9954H310.949M393.316 27.9954L386.081 31.2815M393.316 27.9954H434.499M434.499 27.9954L433.71 28.3996L428.069 31.2815M344.094 31.2815H386.081M344.094 31.2815H302.107M378.558 34.6982L386.081 31.2815M378.558 34.6982L370.73 38.2537M378.558 34.6982H421.382M386.081 31.2815H428.069M302.107 31.2815H260.119M302.107 31.2815L310.949 27.9954M428.069 31.2815L421.382 34.6982M310.949 27.9954H269.766M370.73 38.2537L362.576 41.9567M370.73 38.2537H414.423M421.382 34.6982L414.423 38.2537M414.423 38.2537L407.176 41.9567M317.978 41.9567L308.535 45.8165M317.978 41.9567H362.576M317.978 41.9567H273.378M362.576 41.9567L354.078 45.8165M362.576 41.9567H407.176M407.176 41.9567L399.621 45.8165M308.535 45.8165H354.078M308.535 45.8165H262.991M345.212 49.8433L354.078 45.8165M345.212 49.8433L335.953 54.0478M345.212 49.8433H391.74M354.078 45.8165H399.621M262.991 45.8165H217.448M262.991 45.8165L273.378 41.9567M399.621 45.8165L391.74 49.8433M273.378 41.9567H228.779M335.953 54.0478L326.277 58.4429M335.953 54.0478H383.511M391.74 49.8433L383.511 54.0478M383.511 54.0478L374.909 58.4429M277.644 58.4429L266.395 63.0411M277.644 58.4429H326.277M277.644 58.4429H229.012M326.277 58.4429L316.152 63.0411M326.277 58.4429H374.909M374.909 58.4429L365.909 63.0411M266.395 63.0411H316.152M266.395 63.0411H216.638M305.548 67.8571L316.152 63.0411M305.548 67.8571L294.43 72.9066M305.548 67.8571H356.483M316.152 63.0411H365.909M216.638 63.0411H166.881M216.638 63.0411L229.012 58.4429M365.909 63.0411L356.483 67.8571M229.012 58.4429H180.38M294.43 72.9066L282.759 78.2075M294.43 72.9066H346.6M356.483 67.8571L346.6 72.9066M346.6 72.9066L336.226 78.2075M229.291 78.2075L215.662 83.7782M229.291 78.2075H282.759M229.291 78.2075H175.824M282.759 78.2075L270.492 83.7782M282.759 78.2075H336.226M336.226 78.2075L325.323 83.7782M215.662 83.7782H270.492M215.662 83.7782H160.831M257.585 89.6405L270.492 83.7782M257.585 89.6405L243.984 95.8176M257.585 89.6405H313.849M270.492 83.7782H325.323M160.831 83.7782H106.001M160.831 83.7782L175.824 78.2075M325.323 83.7782L313.849 89.6405M175.824 78.2075H122.356M243.984 95.8176L229.632 102.336M243.984 95.8176H301.76M313.849 89.6405L301.76 95.8176M301.76 95.8176L289.002 102.336M170.261 102.336L153.409 109.224M170.261 102.336H229.632M170.261 102.336H110.891M229.632 102.336L214.465 109.224M229.632 102.336H289.002M289.002 102.336L275.521 109.224M153.409 109.224H214.465M153.409 109.224H92.3535M198.412 116.515L214.465 109.224M198.412 116.515L181.393 124.244M198.412 116.515H261.251M214.465 109.224H275.521M92.3535 109.224H31.2977M92.3535 109.224L110.891 102.336M275.521 109.224L261.251 116.515M110.891 102.336H51.5197M181.393 124.244L163.318 132.454M181.393 124.244H246.124M261.251 116.515L246.124 124.244M246.124 124.244L230.057 132.454M96.5789 132.454L75.2099 141.189M96.5789 132.454H163.318M96.5789 132.454H29.84M163.318 132.454L144.086 141.189M163.318 132.454H230.057M230.057 132.454L212.961 141.189M75.2099 141.189H144.086M75.2099 141.189H6.33413M123.58 150.501L144.086 141.189M123.58 150.501L101.673 160.451M123.58 150.501H194.734M144.086 141.189H212.961M6.33413 141.189L29.84 132.454M6.33413 141.189H1.35571M6.33413 141.189L1.35571 143.039M212.961 141.189L194.734 150.501M29.84 132.454H1.35571M101.673 160.451L78.2127 171.106M101.673 160.451H175.261M194.734 150.501L175.261 160.451M175.261 160.451L154.407 171.106M2.01743 171.106H78.2127M2.01743 171.106H1.35571M2.01743 171.106L1.35571 171.376M78.2127 171.106L53.029 182.544M78.2127 171.106H154.407M154.407 171.106L132.023 182.544M25.9261 194.853L53.029 182.544M25.9261 194.853H107.931M25.9261 194.853H1.35571M25.9261 194.853L1.35571 206.012M53.029 182.544H132.023M53.029 182.544H1.35571M132.023 182.544L107.931 194.853M107.931 194.853L81.9296 208.138M81.9296 208.138L53.7821 222.52M81.9296 208.138H1.35571M53.7821 222.52L23.2109 238.14M53.7821 222.52H1.35571M23.2109 238.14H1.35571M23.2109 238.14L1.35571 249.307M228.413 16.0208L218.717 18.852M228.413 16.0208H266.667M228.413 16.0208H190.159M275.356 13.2886L283.748 10.6502M275.356 13.2886L266.667 16.0208M275.356 13.2886H312.942M283.748 10.6502H320.687M283.748 10.6502L291.855 8.10112M255.539 8.10112H291.855M255.539 8.10112L263.98 5.63645M255.539 8.10112H219.223M266.667 16.0208L257.663 18.852M266.667 16.0208H304.921M312.942 13.2886L320.687 10.6502M312.942 13.2886L304.921 16.0208M320.687 10.6502L328.171 8.10112M291.855 8.10112L292.849 7.78816L299.693 5.63645M291.855 8.10112H328.171M304.921 16.0208L296.61 18.852M364.488 8.10112L371.12 5.63645M364.488 8.10112H328.171M328.171 8.10112L329.089 7.78816L335.407 5.63645M218.717 18.852H257.663M218.717 18.852H179.77M248.327 21.7875L257.663 18.852M248.327 21.7875L238.64 24.8332M248.327 21.7875H287.992M257.663 18.852H296.61M179.77 18.852H140.824M179.77 18.852L190.159 16.0208M296.61 18.852L287.992 21.7875M190.159 16.0208H151.906M238.64 24.8332L228.582 27.9954M238.64 24.8332H279.05M287.992 21.7875L286.892 22.1617L279.05 24.8332M279.05 24.8332L269.766 27.9954M187.399 27.9954L176.145 31.2815M187.399 27.9954H228.582M187.399 27.9954H146.215M228.582 27.9954L218.132 31.2815M228.582 27.9954H269.766M269.766 27.9954L260.119 31.2815M176.145 31.2815H218.132M176.145 31.2815H134.157M207.266 34.6982L218.132 31.2815M207.266 34.6982L195.958 38.2537M207.266 34.6982H250.089M218.132 31.2815H260.119M134.157 31.2815H92.17M134.157 31.2815L146.215 27.9954M260.119 31.2815L250.089 34.6982M146.215 27.9954H105.032M195.958 38.2537L184.181 41.9567M195.958 38.2537H239.65M250.089 34.6982L239.65 38.2537M239.65 38.2537L228.779 41.9567M139.581 41.9567L126.361 45.8165M139.581 41.9567H184.181M139.581 41.9567H94.9822M184.181 41.9567L171.905 45.8165M184.181 41.9567H228.779M228.779 41.9567L217.448 45.8165M126.361 45.8165H171.905M126.361 45.8165H80.8182M159.098 49.8433L171.905 45.8165M159.098 49.8433L145.725 54.0478M159.098 49.8433H205.627M171.905 45.8165H217.448M80.8182 45.8165H35.2752M80.8182 45.8165L94.9822 41.9567M217.448 45.8165L205.627 49.8433M94.9822 41.9567H50.3837M145.725 54.0478L131.747 58.4429M145.725 54.0478H193.282M205.627 49.8433L193.282 54.0478M193.282 54.0478L180.38 58.4429M83.1148 58.4429L67.3661 63.0411M83.1148 58.4429H131.747M83.1148 58.4429H34.4832M131.747 58.4429L117.123 63.0411M131.747 58.4429H180.38M180.38 58.4429L166.881 63.0411M67.3661 63.0411H117.123M101.806 67.8571L117.123 63.0411M101.806 67.8571L85.7466 72.9066M101.806 67.8571H152.742M117.123 63.0411H166.881M166.881 63.0411L152.742 67.8571M34.4832 58.4429H1.35571M85.7466 72.9066L68.8881 78.2075M85.7466 72.9066H137.917M152.742 67.8571L137.917 72.9066M137.917 72.9066L122.356 78.2075M15.4203 78.2075H68.8881M15.4203 78.2075H1.35571M15.4203 78.2075L1.35571 82.3137M68.8881 78.2075L51.1701 83.7782M68.8881 78.2075H122.356M122.356 78.2075L106.001 83.7782M32.5259 89.6405L51.1701 83.7782M32.5259 89.6405L12.8799 95.8176M32.5259 89.6405H88.7907M32.5259 89.6405H1.35571M51.1701 83.7782H106.001M51.1701 83.7782H1.35571M106.001 83.7782L88.7907 89.6405M1.2008 82.359L1.35571 82.3137M12.8799 95.8176H70.6557M12.8799 95.8176H1.35571M12.8799 95.8176L1.35571 99.4412M88.7907 89.6405L70.6557 95.8176M70.6557 95.8176L51.5197 102.336M51.5197 102.336L31.2977 109.224M51.5197 102.336H1.35571M9.89378 116.515L31.2977 109.224M9.89378 116.515H1.35571M9.89378 116.515L1.35571 119.423M31.2977 109.224H1.35571M75.3981 16.0208L62.931 18.852M75.3981 16.0208H113.652M75.3981 16.0208H37.1436M125.015 13.2886L135.988 10.6502M125.015 13.2886L113.652 16.0208M125.015 13.2886H162.6M135.988 10.6502H172.927M135.988 10.6502L146.59 8.10112M110.273 8.10112H146.59M110.273 8.10112L121.126 5.63645M110.273 8.10112H73.9571M113.652 16.0208L101.877 18.852M113.652 16.0208H151.906M162.6 13.2886L172.927 10.6502M162.6 13.2886L151.906 16.0208M172.927 10.6502L182.906 8.10112M146.59 8.10112H182.906M146.59 8.10112L156.84 5.63645M151.906 16.0208L140.824 18.852M219.223 8.10112L228.267 5.63645M219.223 8.10112H182.906M182.906 8.10112L192.554 5.63645M62.931 18.852H101.877M62.931 18.852H23.9846M89.6685 21.7875L101.877 18.852M89.6685 21.7875L77.0012 24.8332M89.6685 21.7875H129.333M101.877 18.852H140.824M23.9846 18.852L37.1436 16.0208M23.9846 18.852H1.35571M140.824 18.852L129.333 21.7875M37.1436 16.0208H1.35571M77.0012 24.8332L63.8485 27.9954M77.0012 24.8332H117.411M129.333 21.7875L117.411 24.8332M117.411 24.8332L105.032 27.9954M22.6651 27.9954L8.19538 31.2815M22.6651 27.9954H63.8485M22.6651 27.9954H1.35571M63.8485 27.9954L50.1827 31.2815M63.8485 27.9954H105.032M105.032 27.9954L92.17 31.2815M35.9727 34.6982L50.1827 31.2815M35.9727 34.6982L21.1852 38.2537M35.9727 34.6982H78.7957M35.9727 34.6982H1.35571M50.1827 31.2815H8.19538M50.1827 31.2815H92.17M8.19538 31.2815L1.35571 32.8345M8.19538 31.2815H1.35571M92.17 31.2815L78.7957 34.6982M21.1852 38.2537L5.78442 41.9567M21.1852 38.2537H64.8781M21.1852 38.2537H1.35571M78.7957 34.6982L64.8781 38.2537M64.8781 38.2537L50.3837 41.9567M5.78442 41.9567H50.3837M5.78442 41.9567L1.35571 43.0213M5.78442 41.9567H1.35571M50.3837 41.9567L35.2752 45.8165M19.513 49.8433L35.2752 45.8165M19.513 49.8433L3.05411 54.0478M19.513 49.8433H1.35571M35.2752 45.8165H1.35571M1.11739 45.8165H1.35571M3.05411 54.0478H1.35571M3.05411 54.0478L1.35571 54.4817M0.945007 54.5867L1.35571 54.4817M12.2587 13.2886L25.1675 10.6502M12.2587 13.2886H1.35571M12.2587 13.2886L1.35571 15.5167M25.1675 10.6502L37.6409 8.10112M25.1675 10.6502H1.35571M73.9571 8.10112L85.413 5.63645M73.9571 8.10112H37.6409M37.6409 8.10112L49.6997 5.63645M37.6409 8.10112H1.35571M1263.95 5.63645H1299.67M1263.95 5.63645H1228.24M1290.92 3.2525L1293.08 3.84123L1299.67 5.63645M1290.92 3.2525H1326.05M1299.67 5.63645H1335.38M1326.05 3.2525L1328.35 3.84123L1329.51 4.13696L1335.38 5.63645M1335.38 5.63645H1371.09M1371.09 5.63645H1406.81M1228.24 5.63645H1192.53M1406.81 5.63645H1442.52M1442.52 5.63645L1431.44 3.2525M1442.52 5.63645H1478.23M1431.44 3.2525H1466.57M1121.1 5.63645H1156.81M1121.1 5.63645H1085.39M1150.4 3.2525L1151.98 3.84123L1152.78 4.13696L1156.81 5.63645M1150.4 3.2525H1185.53M1156.81 5.63645H1192.53M1185.53 3.2525L1192.53 5.63645M1085.39 5.63645H1049.67M978.248 5.63645H1013.96M978.248 5.63645H942.534M1009.88 3.2525L1010.38 3.54596L1010.89 3.84123L1011.39 4.13696L1013.96 5.63645M1009.88 3.2525H1045.01M1013.96 5.63645H1049.67M1045.01 3.2525L1049.67 5.63645M942.534 5.63645H906.82M835.394 5.63645H871.107M835.394 5.63645H799.681M869.358 3.2525L871.107 5.63645M869.358 3.2525H904.488M871.107 5.63645H906.82M904.488 3.2525L904.776 3.54596L905.064 3.84123L905.354 4.13696L906.82 5.63645M799.681 5.63645H763.967M692.541 5.63645H728.254M692.541 5.63645H656.828M728.837 3.2525L728.254 5.63645M728.837 3.2525H763.967M728.254 5.63645H763.967M763.967 3.2525V5.63645M656.828 5.63645H621.114M549.687 5.63645H585.4M549.687 5.63645H513.974M588.316 3.2525L587.597 3.84123L586.138 5.03276L585.4 5.63645M588.316 3.2525H623.447M585.4 5.63645H621.114M623.447 3.2525L623.159 3.54596L622.871 3.84123L622.581 4.13696L621.114 5.63645M513.974 5.63645H478.26M406.834 5.63645H442.547M406.834 5.63645H371.12M447.796 3.2525L446.5 3.84123L445.848 4.13696L442.547 5.63645M447.796 3.2525H482.927M442.547 5.63645H478.26M482.927 3.2525L482.352 3.54596L478.26 5.63645M371.12 5.63645H335.407M263.98 5.63645H299.693M263.98 5.63645H228.267M307.276 3.2525L305.403 3.84123L304.461 4.13696L299.693 5.63645M307.276 3.2525H342.406M299.693 5.63645H335.407M342.406 3.2525L341.543 3.54596L335.407 5.63645M228.267 5.63645H192.554M121.126 5.63645H156.84M121.126 5.63645H85.413M166.755 3.2525L156.84 5.63645M166.755 3.2525H201.885M156.84 5.63645H192.554M201.885 3.2525L199.582 3.84123L198.422 4.13696L192.554 5.63645M85.413 5.63645H49.6997M26.2351 3.2525L13.9865 5.63645M26.2351 3.2525H61.3653M26.2351 3.2525H1.35571M13.9865 5.63645H49.6997M13.9865 5.63645L1.35571 8.09509M13.9865 5.63645H1.35571M61.3653 3.2525L58.4849 3.84123L49.6997 5.63645M1466.57 3.2525L1469.45 3.84123L1478.23 5.63645M1478.23 5.63645H1513.95M1513.95 5.63645L1526.58 8.0951M1513.95 5.63645H1526.58M1526.58 119.423V116.515M1526.58 119.423V124.244M1526.58 116.515V109.224M1526.58 124.244V125.685V132.454M1526.58 132.454V141.189M1526.58 63.0411V58.4429M1526.58 63.0411V67.4701M1526.58 3.2525V5.63645M1526.58 5.63645V8.0951M1526.58 8.0951L1526.61 8.10112H1526.58M1526.58 8.0951V8.10112M1526.58 8.10112V10.6502M1526.58 10.6502V13.2886M1526.58 13.2886V15.5167M1526.58 15.5167V16.0208M1526.58 16.0208V18.852M1526.58 18.852V21.7875M1526.58 21.7875V23.7197M1526.58 23.7197V24.8332M1526.58 24.8332V27.9954M1526.58 27.9954V31.2815M1526.58 31.2815V32.8345M1526.58 32.8345V34.6982M1526.58 34.6982V38.2537M1526.58 38.2537V41.9567M1526.58 41.9567V43.0213M1526.58 43.0213V45.8165M1526.58 45.8165V49.8433M1526.58 49.8433V54.0478M1526.58 54.0478V54.4817M1526.58 54.4817V58.4429M1526.58 67.8571V72.9066M1526.58 67.8571V67.4701M1526.58 72.9066V78.2075M1526.58 78.2075V82.3138M1526.58 82.3138V83.7782M1526.58 83.7782V89.6405M1526.58 89.6405V95.8176M1526.58 95.8176V99.4412M1526.58 99.4412V102.336M1526.58 102.336V109.224M1526.58 141.189V143.039M1526.58 143.039V150.501M1526.58 150.501V160.451M1526.58 160.451V171.106M1526.58 171.106V171.376M1526.58 171.376V182.544M1526.58 182.544V194.853M1526.58 194.853V206.012M1526.58 206.012V208.138M1526.58 208.138V222.52M1526.58 222.52V238.14M1526.58 238.14V249.307M1526.58 249.307V255.165M1526.58 255.165V273.794M1526.58 273.794V294.265M1526.58 294.265V304.971M1526.58 304.971V316.864M1526.58 316.864V316.945H1.35571V316.864M1.35571 67.8571V72.9066M1.35571 67.8571V67.4701M1.35571 67.4701V63.0411M1.35571 63.0411V58.4429M1.35571 58.4429V54.4817M1.35571 54.4817V54.0478M1.35571 54.0478V49.8433M1.35571 49.8433V45.8165M1.35571 45.8165V43.0213M1.35571 43.0213V41.9567M1.35571 41.9567V38.2537M1.35571 38.2537V34.6982M1.35571 34.6982V32.8345M1.35571 32.8345V31.2815M1.35571 31.2815V27.9954M1.35571 27.9954V24.8332M1.35571 24.8332V23.7197M1.35571 23.7197V21.7875M1.35571 21.7875V18.852M1.35571 18.852V16.0208M1.35571 16.0208V15.5167M1.35571 15.5167V13.2886M1.35571 13.2886V10.6502M1.35571 10.6502V8.10112M1.35571 8.10112H1.32473L1.35571 8.09509M1.35571 8.10112V8.09509M1.35571 8.09509V5.63645M1.35571 5.63645V3.2525M1.35571 316.864V304.971M1.35571 304.971V294.265M1.35571 294.265V273.794M1.35571 273.794V255.165M1.35571 255.165V249.307M1.35571 249.307V238.14M1.35571 238.14V222.52M1.35571 222.52V208.138M1.35571 208.138V206.012M1.35571 206.012V194.853M1.35571 194.853V182.544M1.35571 182.544V171.376M1.35571 171.376V171.106M1.35571 171.106V160.451M1.35571 160.451V150.501M1.35571 150.501V143.039M1.35571 143.039V141.189M1.35571 141.189V132.454M1.35571 132.454V124.244M1.35571 124.244V119.423M1.35571 119.423V116.515M1.35571 116.515V109.224M1.35571 109.224V102.336M1.35571 102.336V99.4412M1.35571 99.4412V95.8176M1.35571 95.8176V89.6405M1.35571 89.6405V83.7782M1.35571 83.7782V82.3137M1.35571 82.3137V78.2075M1.35571 78.2075V72.9066" stroke="url(#paint0_radial_126_178)" stroke-opacity="0.3" stroke-width="1.8895" stroke-miterlimit="10" stroke-linecap="round" stroke-linejoin="round"/>
<defs>
<radialGradient id="paint0_radial_126_178" cx="0" cy="0" r="1" gradientUnits="userSpaceOnUse" gradientTransform="translate(763.967 305.298) rotate(-90) scale(494.656 2388.82)">
<stop stop-color="#C45037"/>
<stop offset="0.489074" stop-color="#CED2DF" stop-opacity="0"/>
</radialGradient>
</defs>
</svg>
