<svg width="1496" height="290" viewBox="0 0 1496 290" fill="none" xmlns="http://www.w3.org/2000/svg">
<path d="M25.7039 286.842L37.3096 288.945M25.7039 286.842L60.0965 286.842M25.7039 286.842L13.7125 284.669M25.7039 286.842L1.34698 286.842M71.1492 288.945L37.3096 288.945L33.0866 288.944L28.9072 288.94L24.815 288.927L20.851 288.902L17.0589 288.861L13.4791 288.799L10.1544 288.713L7.06851 288.604L4.4204 288.453L2.00953 288.279L1.34698 288.217L1.34698 286.842M71.1492 288.945L104.989 288.945M71.1492 288.945L60.0965 286.842M104.989 288.945L138.829 288.945M104.989 288.945L94.489 286.842M138.829 288.945L172.669 288.945M138.829 288.945L128.881 286.842M172.669 288.945L206.508 288.945M172.669 288.945L163.273 286.842M206.508 288.945L240.348 288.945M206.508 288.945L197.666 286.842M240.348 288.945L274.188 288.945M240.348 288.945L232.058 286.842M274.188 288.945L308.028 288.945M274.188 288.945L266.451 286.842M308.028 288.945L341.868 288.945M308.028 288.945L300.843 286.842M341.868 288.945L375.707 288.945M341.868 288.945L335.236 286.842M375.707 288.945L409.547 288.945M375.707 288.945L369.628 286.842M409.547 288.945L443.387 288.945M409.547 288.945L404.021 286.842M443.387 288.945L477.227 288.945M443.387 288.945L442.159 288.425L440.297 287.639L438.413 286.842M477.227 288.945L511.066 288.945M477.227 288.945L476.135 288.425L472.806 286.842M511.066 288.945L544.906 288.945M511.066 288.945L507.198 286.842M544.906 288.945L578.746 288.945M544.906 288.945L543.676 288.164L542.429 287.374L542.011 287.108L541.59 286.842M578.746 288.945L612.586 288.945M578.746 288.945L577.721 288.164L577.375 287.902L577.029 287.639L575.982 286.842M612.586 288.945L646.425 288.945M612.586 288.945L610.375 286.842M646.425 288.945L646.221 288.686L646.016 288.425L644.978 287.108L644.767 286.842M646.425 288.945L680.265 288.945M680.265 288.945L714.105 288.945M680.265 288.945L679.16 286.842M714.105 288.945L747.945 288.945M714.105 288.945L713.9 288.164L713.552 286.842M747.945 288.945L781.785 288.945M747.945 288.945L747.945 286.842M781.785 288.945L815.625 288.945M781.785 288.945L781.99 288.164L782.337 286.842M815.625 288.945L849.464 288.945M815.625 288.945L816.73 286.842M849.464 288.945L849.669 288.686L849.873 288.425L850.912 287.108L851.122 286.842M849.464 288.945L883.304 288.945M883.304 288.945L917.144 288.945M883.304 288.945L885.234 287.108L885.515 286.842M917.144 288.945L950.984 288.945M917.144 288.945L918.169 288.164L918.515 287.902L919.208 287.374L919.557 287.108L919.907 286.842M950.984 288.945L984.823 288.945M950.984 288.945L952.214 288.164L953.461 287.374L953.879 287.108L954.3 286.842M984.823 288.945L1018.66 288.945M984.823 288.945L988.692 286.842M1018.66 288.945L1052.5 288.945M1018.66 288.945L1019.75 288.425L1023.08 286.842M1052.5 288.945L1086.34 288.945M1052.5 288.945L1057.48 286.842M1086.34 288.945L1120.18 288.945M1086.34 288.945L1091.87 286.842M1120.18 288.945L1154.02 288.945M1120.18 288.945L1126.26 286.842M1154.02 288.945L1187.86 288.945M1154.02 288.945L1160.65 286.842M1187.86 288.945L1221.7 288.945M1187.86 288.945L1195.05 286.842M1221.7 288.945L1255.54 288.945M1221.7 288.945L1229.44 286.842M1255.54 288.945L1289.38 288.945M1255.54 288.945L1263.83 286.842M1289.38 288.945L1323.22 288.945M1289.38 288.945L1298.22 286.842M1323.22 288.945L1357.06 288.945M1323.22 288.945L1332.62 286.842M1357.06 288.945L1390.9 288.945M1357.06 288.945L1367.01 286.842M1390.9 288.945L1424.74 288.945M1390.9 288.945L1401.4 286.842M1494.54 286.842L1494.54 288.217L1493.88 288.279L1491.47 288.454L1488.82 288.604L1485.74 288.714L1482.41 288.799L1478.83 288.861L1475.04 288.902L1471.07 288.927L1466.98 288.94L1462.8 288.944L1458.58 288.945L1424.74 288.945M1424.74 288.945L1435.79 286.842M1458.58 288.945L1470.19 286.842M1401.4 286.842L1367.01 286.842M1401.4 286.842L1435.79 286.842M1401.4 286.842L1412.25 284.669M1367.01 286.842L1377.29 284.669M1367.01 286.842L1332.62 286.842M1263.83 286.842L1229.44 286.842M1263.83 286.842L1298.22 286.842M1263.83 286.842L1265.95 286.305L1272.4 284.669M1229.44 286.842L1237.43 284.669M1229.44 286.842L1195.05 286.842M1126.26 286.842L1091.87 286.842M1126.26 286.842L1160.65 286.842M1126.26 286.842L1127.81 286.305L1128.59 286.036L1132.54 284.669M1091.87 286.842L1092.57 286.574L1093.28 286.305L1097.58 284.669M1091.87 286.842L1057.48 286.842M988.692 286.842L989.185 286.574L992.689 284.669M988.692 286.842L954.3 286.842M988.692 286.842L1023.08 286.842M954.3 286.842L955.145 286.305L955.571 286.036L955.998 285.764L957.726 284.669M954.3 286.842L919.907 286.842M851.122 286.842L816.73 286.842M851.122 286.842L885.515 286.842M851.122 286.842L852.835 284.669M816.73 286.842L816.871 286.574L817.011 286.305L817.154 286.036L817.583 285.219L817.872 284.669M816.73 286.842L782.337 286.842M713.552 286.842L679.16 286.842M713.552 286.842L747.945 286.842M713.552 286.842L712.982 284.669M679.16 286.842L679.019 286.574L678.878 286.305L678.736 286.036L678.018 284.669M679.16 286.842L644.767 286.842M575.982 286.842L541.59 286.842M575.982 286.842L610.375 286.842M575.982 286.842L575.278 286.305L573.85 285.219L573.49 284.945L573.127 284.669M541.59 286.842L540.745 286.305L540.318 286.036L539.891 285.764L538.164 284.669M541.59 286.842L507.198 286.842M438.413 286.842L404.021 286.842M438.413 286.842L472.806 286.842M438.413 286.842L437.144 286.305L436.506 286.036L433.274 284.669M404.021 286.842L403.317 286.574L402.611 286.305L398.311 284.669M404.021 286.842L369.628 286.842M300.843 286.842L266.451 286.842M300.843 286.842L335.236 286.842M300.843 286.842L299.01 286.305L298.088 286.036L293.42 284.669M266.451 286.842L258.457 284.669M266.451 286.842L232.058 286.842M163.273 286.842L128.881 286.842M163.273 286.842L197.666 286.842M163.273 286.842L153.567 284.669M128.881 286.842L118.603 284.669M128.881 286.842L94.489 286.842M1494.66 267.173L1494.54 267.173M1460.05 267.173L1446.92 269.949M1460.05 267.173L1473.68 264.291M1460.05 267.173L1420.49 267.173M1460.05 267.173L1494.54 267.173M1446.92 269.949L1485.75 269.949M1446.92 269.949L1434.26 272.625M1446.92 269.949L1408.08 269.949M1485.75 269.949L1472.39 272.625M1485.75 269.949L1494.54 269.949M1485.75 269.949L1494.54 268.188M1447.07 277.695L1410.28 277.695M1447.07 277.695L1435.07 280.1M1447.07 277.695L1483.87 277.695M1447.07 277.695L1459.51 275.205M1410.28 277.695L1398.9 280.1M1410.28 277.695L1422.06 275.205M1410.28 277.695L1373.48 277.695M1435.07 280.1L1398.9 280.1M1435.07 280.1L1423.47 282.423M1435.07 280.1L1471.23 280.1M1398.9 280.1L1362.74 280.1M1398.9 280.1L1387.91 282.423M1494.92 223.36L1494.54 223.36M1463 223.36L1446.07 227.962M1463 223.36L1480.77 218.528M1463 223.36L1411.92 223.359M1463 223.36L1494.54 223.36M1446.07 227.962L1429.92 232.351M1446.07 227.962L1396.2 227.962M1446.07 227.962L1494.54 227.962M1478.63 232.351L1429.92 232.351M1478.63 232.351L1462.11 236.542M1478.63 232.351L1494.54 232.351M1478.63 232.351L1494.54 228.314M1446.32 240.547L1399.76 240.547M1446.32 240.547L1431.22 244.379M1446.32 240.547L1492.88 240.547M1446.32 240.547L1462.11 236.542M1399.76 240.547L1385.66 244.379M1399.76 240.547L1414.5 236.542M1399.76 240.547L1353.2 240.547M1431.22 244.379L1385.66 244.379M1431.22 244.379L1476.77 244.379M1431.22 244.379L1416.75 248.049M1385.66 244.379L1372.16 248.049M1385.66 244.379L1340.11 244.379M1389.58 254.942L1346.8 254.942M1389.58 254.942L1376.81 258.182M1389.58 254.942L1432.35 254.942M1389.58 254.942L1402.88 251.567M1346.8 254.942L1334.88 258.182M1346.8 254.942L1359.22 251.567M1346.8 254.942L1304.03 254.942M1376.81 258.182L1334.88 258.182M1376.81 258.182L1418.73 258.182M1376.81 258.182L1364.53 261.296M1334.88 258.182L1323.42 261.296M1334.88 258.182L1292.96 258.182M1341.36 267.173L1301.8 267.173M1341.36 267.173L1330.42 269.949M1341.36 267.173L1380.92 267.173M1341.36 267.173L1352.73 264.291M1301.8 267.173L1291.59 269.949M1301.8 267.173L1312.41 264.291M1301.8 267.173L1262.24 267.173M1330.42 269.949L1291.59 269.949M1330.42 269.949L1369.25 269.949M1330.42 269.949L1319.87 272.625M1291.59 269.949L1281.75 272.625M1291.59 269.949L1252.76 269.949M1299.89 277.695L1263.09 277.695M1299.89 277.695L1290.41 280.1M1299.89 277.695L1336.68 277.695M1299.89 277.695L1309.7 275.205M1263.09 277.695L1254.25 280.1M1263.09 277.695L1272.25 275.205M1263.09 277.695L1226.3 277.695M1290.41 280.1L1254.25 280.1M1290.41 280.1L1281.25 282.423M1290.41 280.1L1326.57 280.1M1254.25 280.1L1218.08 280.1M1254.25 280.1L1245.7 282.423M1468.38 143.572L1444.54 152.64M1468.38 143.572L1493.9 133.861M1468.38 143.572L1396.33 143.572M1468.38 143.572L1494.54 143.572M1444.54 152.64L1422.24 161.128M1444.54 152.64L1374.88 152.64M1444.54 152.64L1494.54 152.64M1445.03 176.571L1381.66 176.571M1445.03 176.571L1424.66 183.615M1445.03 176.571L1466.66 169.088M1445.03 176.571L1494.54 176.571M1381.66 176.571L1363.14 183.615M1381.66 176.571L1401.32 169.088M1381.66 176.571L1318.29 176.571M1424.66 183.615L1363.14 183.615M1424.66 183.615L1486.18 183.615M1424.66 183.615L1405.46 190.26M1363.14 183.615L1345.68 190.26M1363.14 183.615L1301.62 183.615M1370.14 202.479L1313.57 202.479M1370.14 202.479L1353.86 208.108M1370.14 202.479L1426.7 202.479M1370.14 202.479L1387.31 196.538M1313.57 202.479L1298.78 208.108M1313.57 202.479L1329.18 196.538M1313.57 202.479L1257.01 202.479M1353.86 208.108L1298.78 208.108M1353.86 208.108L1408.94 208.108M1353.86 208.108L1338.42 213.451M1298.78 208.108L1284.74 213.451M1298.78 208.108L1243.69 208.108M1309.77 223.359L1258.7 223.359M1309.77 223.359L1296.47 227.962M1309.77 223.359L1360.85 223.359M1309.77 223.359L1323.74 218.528M1258.7 223.359L1246.6 227.962M1258.7 223.359L1271.39 218.528M1258.7 223.359L1207.62 223.359M1296.47 227.962L1246.6 227.962M1296.47 227.962L1346.34 227.962M1296.47 227.962L1283.78 232.351M1246.6 227.962L1235.07 232.351M1246.6 227.962L1196.74 227.962M1260.09 240.547L1213.53 240.547M1260.09 240.547L1249.01 244.379M1260.09 240.547L1306.65 240.547M1260.09 240.547L1271.67 236.542M1213.53 240.547L1203.46 244.379M1213.53 240.547L1224.06 236.542M1213.53 240.547L1166.97 240.547M1249.01 244.379L1203.46 244.379M1249.01 244.379L1294.56 244.379M1249.01 244.379L1238.4 248.049M1203.46 244.379L1193.81 248.049M1203.46 244.379L1157.91 244.379M1218.48 254.942L1175.7 254.942M1218.48 254.942L1209.11 258.182M1218.48 254.942L1261.25 254.942M1218.48 254.942L1228.23 251.567M1175.7 254.942L1174.62 255.354L1167.19 258.182M1175.7 254.942L1184.57 251.567M1175.7 254.942L1132.93 254.942M1209.11 258.182L1167.19 258.182M1209.11 258.182L1251.03 258.182M1209.11 258.182L1200.11 261.296M1167.19 258.182L1159 261.296M1167.19 258.182L1125.26 258.182M1183.12 267.173L1143.56 267.173M1183.12 267.173L1175.09 269.949M1183.12 267.173L1222.68 267.173M1183.12 267.173L1191.45 264.291M1143.56 267.173L1136.26 269.949M1143.56 267.173L1146.36 266.105L1151.13 264.291M1143.56 267.173L1104 267.173M1175.09 269.949L1136.26 269.949M1175.09 269.949L1213.93 269.949M1175.09 269.949L1167.36 272.624M1136.26 269.949L1129.23 272.624M1136.26 269.949L1097.43 269.949M1152.7 277.695L1115.91 277.695M1152.7 277.695L1145.75 280.1M1152.7 277.695L1189.5 277.695M1152.7 277.695L1159.9 275.205M1115.91 277.695L1111.15 279.506L1110.37 279.804L1109.59 280.1M1115.91 277.695L1122.45 275.205M1115.91 277.695L1079.11 277.695M1145.75 280.1L1109.59 280.1M1145.75 280.1L1139.04 282.423M1145.75 280.1L1181.92 280.1M1109.59 280.1L1073.42 280.1M1109.59 280.1L1103.48 282.423M1442.27 40.2723L1343.08 40.2723M1442.27 40.2723L1411.04 57.2505M1442.27 40.2723L1476.59 21.6154M1442.27 40.2723L1494.54 40.272M1343.08 40.2723L1316.31 57.2505M1343.08 40.2723L1372.5 21.6154M1343.08 40.2723L1243.89 40.2723M1411.04 57.2505L1316.31 57.2505M1411.04 57.2505L1382.5 72.7671M1411.04 57.2505L1494.54 57.2505M1316.31 57.2505L1291.85 72.7671M1316.31 57.2505L1221.58 57.2505M1332.2 100.11L1248.73 100.11M1332.2 100.11L1309.92 112.219M1332.2 100.11L1415.66 100.11M1332.2 100.11L1356.31 87.0029M1248.73 100.11L1229.64 112.219M1248.73 100.11L1269.4 87.0029M1248.73 100.11L1165.27 100.11M1309.92 112.219L1229.64 112.219M1309.92 112.219L1390.21 112.219M1309.92 112.219L1289.29 123.437M1229.64 112.219L1211.95 123.437M1229.64 112.219L1149.36 112.219M1252.25 143.572L1180.2 143.572M1252.25 143.572L1235.56 152.64M1252.25 143.572L1324.29 143.572M1252.25 143.572L1270.11 133.861M1180.2 143.572L1165.9 152.64M1180.2 143.572L1195.51 133.861M1180.2 143.572L1108.16 143.572M1235.56 152.64L1165.9 152.64M1235.56 152.64L1305.23 152.64M1235.56 152.64L1219.95 161.128M1165.9 152.64L1152.52 161.128M1165.9 152.64L1096.24 152.64M1191.54 176.571L1128.17 176.571M1191.54 176.571L1178.58 183.615M1191.54 176.571L1254.91 176.571M1191.54 176.571L1205.31 169.088M1128.17 176.571L1117.06 183.615M1128.17 176.571L1139.97 169.088M1128.17 176.571L1064.8 176.571M1178.58 183.615L1117.06 183.615M1178.58 183.615L1240.1 183.615M1178.58 183.615L1166.36 190.26M1117.06 183.615L1106.59 190.26M1117.06 183.615L1055.54 183.615M1143.88 202.479L1087.32 202.479M1143.88 202.479L1133.53 208.108M1143.88 202.479L1200.45 202.479M1143.88 202.479L1154.81 196.538M1087.32 202.479L1078.44 208.108M1087.32 202.479L1096.69 196.538M1087.32 202.479L1030.76 202.479M1133.53 208.108L1078.44 208.108M1133.53 208.108L1188.61 208.108M1133.53 208.108L1123.7 213.451M1078.44 208.108L1070.02 213.451M1078.44 208.108L1023.36 208.108M1105.47 223.359L1054.4 223.359M1105.47 223.359L1097.01 227.962M1105.47 223.359L1156.55 223.359M1105.47 223.359L1114.36 218.528M1054.4 223.359L1047.14 227.962M1054.4 223.359L1062.01 218.528M1054.4 223.359L1003.32 223.359M1097.01 227.962L1047.14 227.962M1097.01 227.962L1146.87 227.962M1097.01 227.962L1088.93 232.351M1047.14 227.962L1040.22 232.351M1047.14 227.962L997.274 227.962M1073.85 240.547L1027.3 240.547M1073.85 240.547L1066.8 244.379M1073.85 240.547L1120.41 240.547M1073.85 240.547L1081.22 236.542M1027.3 240.547L1021.25 244.379M1027.3 240.547L1033.61 236.542M1027.3 240.547L980.737 240.547M1066.8 244.379L1021.25 244.379M1066.8 244.379L1112.36 244.379M1066.8 244.379L1060.05 248.049M1021.25 244.379L1015.47 248.049M1021.25 244.379L975.702 244.379M1047.37 254.942L1004.6 254.942M1047.37 254.942L1041.41 258.182M1047.37 254.942L1090.15 254.942M1047.37 254.942L1053.58 251.567M1004.6 254.942L1005.25 254.528L1009.92 251.567M1004.6 254.942L999.489 258.182M1004.6 254.942L961.823 254.942M1041.41 258.182L999.489 258.182M1041.41 258.182L1083.34 258.182M1041.41 258.182L1035.68 261.296M999.489 258.182L994.579 261.296M999.489 258.182L957.565 258.182M1024.87 267.173L985.313 267.173M1024.87 267.173L1019.77 269.949M1024.87 267.173L1064.43 267.173M1024.87 267.173L1030.18 264.291M985.313 267.173L980.936 269.949M985.313 267.173L986.996 266.105L988.132 265.385L989.857 264.291M985.313 267.173L945.751 267.173M1019.77 269.949L980.936 269.949M1019.77 269.949L1058.6 269.949M1019.77 269.949L1014.85 272.624M980.936 269.949L979.335 270.964L978.28 271.633L976.716 272.624M980.936 269.949L942.104 269.949M1005.52 277.695L968.722 277.695M1005.52 277.695L1002.19 279.506L1001.1 280.1M1005.52 277.695L1042.31 277.695M1005.52 277.695L1009.52 275.521L1010.1 275.205M968.722 277.695L965.866 279.506L965.398 279.804L964.93 280.1M968.722 277.695L970.668 276.461L972.648 275.205M968.722 277.695L931.926 277.695M1001.1 280.1L964.93 280.1M1001.1 280.1L996.821 282.423M1001.1 280.1L1037.26 280.1M964.93 280.1L928.766 280.1M964.93 280.1L961.267 282.423M1045.51 40.2723L946.325 40.2723M1045.51 40.2723L1032.13 57.2505M1045.51 40.2723L1144.7 40.2723M1045.51 40.2723L1060.22 21.6154M946.325 40.2723L937.4 57.2505M946.325 40.2723L956.13 21.6154M946.325 40.2723L847.134 40.2723M1032.13 57.2505L937.4 57.2505M1032.13 57.2505L1126.86 57.2505M1032.13 57.2505L1019.9 72.767M937.4 57.2505L929.245 72.767M937.4 57.2505L842.673 57.2505M998.338 100.11L914.874 100.11M998.338 100.11L988.793 112.218M998.338 100.11L1081.8 100.11M998.338 100.11L1008.67 87.0029M914.874 100.11L908.51 112.218M914.874 100.11L921.763 87.0029M914.874 100.11L831.409 100.11M988.793 112.218L908.51 112.218M988.793 112.218L1069.08 112.219M988.793 112.218L979.948 123.437M908.51 112.218L902.614 123.437M908.51 112.218L828.228 112.218M964.074 143.572L892.031 143.572M964.074 143.572L956.925 152.64M964.074 143.572L1036.12 143.572M964.074 143.572L971.73 133.861M892.031 143.572L887.265 152.64M892.031 143.572L897.135 133.861M892.031 143.572L819.988 143.572M956.925 152.64L887.265 152.64M956.925 152.64L1026.58 152.64M956.925 152.64L950.233 161.128M887.265 152.64L882.804 161.128M887.265 152.64L817.605 152.64M938.058 176.571L874.688 176.571M938.058 176.571L932.505 183.615M938.058 176.571L1001.43 176.571M938.058 176.571L943.957 169.088M874.688 176.571L870.985 183.615M874.688 176.571L878.62 169.088M874.688 176.571L811.316 176.571M932.505 183.615L870.985 183.615M932.505 183.615L994.024 183.615M932.505 183.615L927.266 190.26M870.985 183.615L867.492 190.26M870.985 183.615L809.465 183.615M917.633 202.479L861.07 202.479M917.633 202.479L913.195 208.108M917.633 202.479L974.196 202.479M917.633 202.479L922.317 196.537M861.07 202.479L858.112 208.108M861.07 202.479L864.193 196.537M861.07 202.479L804.507 202.479M913.195 208.108L858.112 208.108M913.195 208.108L968.278 208.108M913.195 208.108L908.982 213.451M858.112 208.108L855.303 213.451M858.112 208.108L803.028 208.108M901.171 223.359L850.096 223.359M901.171 223.359L897.543 227.962M901.171 223.359L952.246 223.359M901.171 223.359L904.979 218.528M850.096 223.359L847.676 227.962M850.096 223.359L852.635 218.528M850.096 223.359L799.02 223.359M897.543 227.962L847.676 227.962M897.543 227.962L947.409 227.962M897.543 227.962L896.225 229.632L894.082 232.351M847.676 227.962L845.37 232.351M847.676 227.962L797.811 227.962M887.62 240.547L841.062 240.547M887.62 240.547L884.599 244.379M887.62 240.547L934.179 240.547M887.62 240.547L889.975 237.56L890.778 236.542M841.062 240.547L840.296 242.004L839.048 244.379M841.062 240.547L843.167 236.542M841.062 240.547L794.503 240.547M884.599 244.379L884.231 244.847L881.706 248.049M884.599 244.379L839.048 244.379M884.599 244.379L930.151 244.379M839.048 244.379L838.314 245.774L838.073 246.234L837.832 246.691L837.119 248.049M839.048 244.379L793.496 244.379M876.272 254.942L833.496 254.942M876.272 254.942L874.982 256.578L874.663 256.982L874.346 257.385L874.031 257.784L873.717 258.182M876.272 254.942L919.047 254.942M876.272 254.942L878.932 251.567M833.496 254.942L832.212 257.384L832.002 257.784L831.793 258.182M833.496 254.942L835.27 251.567M833.496 254.942L790.72 254.942M873.717 258.182L831.793 258.182M873.717 258.182L915.641 258.182M873.717 258.182L872.171 260.143L871.867 260.529L871.262 261.296M831.793 258.182L830.763 260.143L830.559 260.529L830.358 260.914L830.156 261.296M831.793 258.182L789.869 258.182M866.628 267.173L827.067 267.173M866.628 267.173L864.44 269.949M866.628 267.173L906.19 267.173M866.628 267.173L867.189 266.463L868.039 265.385L868.901 264.291M827.067 267.173L827.254 266.819L828.39 264.657L828.582 264.291M827.067 267.173L825.608 269.949M827.067 267.173L787.506 267.173M864.44 269.949L825.608 269.949M864.44 269.949L903.271 269.949M864.44 269.949L862.331 272.624M825.608 269.949L825.075 270.964L824.899 271.299L824.723 271.633L824.202 272.624M825.608 269.949L786.777 269.949M858.333 277.695L821.538 277.695M858.333 277.695L856.905 279.506L856.438 280.1M858.333 277.695L895.13 277.695M858.333 277.695L859.062 276.771L859.306 276.461L859.553 276.149L860.297 275.205M821.538 277.695L821.377 278L821.059 278.606L820.742 279.207L820.274 280.1M821.538 277.695L822.186 276.461L822.35 276.149L822.68 275.521L822.846 275.205M821.538 277.695L784.741 277.695M856.438 280.1L820.274 280.1M856.438 280.1L854.832 282.137L854.606 282.423M856.438 280.1L892.602 280.1M820.274 280.1L820.118 280.394L819.964 280.688L819.81 280.98L819.658 281.271L819.203 282.137L819.052 282.423M820.274 280.1L784.109 280.1M648.756 40.2723L549.565 40.2723M648.756 40.2723L653.217 57.2505M648.756 40.2723L747.945 40.2723M648.756 40.2723L643.852 21.6153M549.565 40.2723L558.489 57.2505M549.565 40.2723L539.76 21.6153M549.565 40.2723L450.376 40.2723M653.217 57.2505L558.489 57.2505M653.217 57.2505L747.945 57.2505M653.217 57.2505L657.295 72.767M558.489 57.2505L566.645 72.767M558.489 57.2505L463.761 57.2505M664.481 100.11L581.016 100.11M664.481 100.11L667.662 112.218M664.481 100.11L747.945 100.11M664.481 100.11L661.036 87.0029M581.016 100.11L587.38 112.218M581.016 100.11L574.127 87.0029M581.016 100.11L497.552 100.11M667.662 112.218L587.38 112.218M667.662 112.218L747.945 112.218M667.662 112.218L670.611 123.437M587.38 112.218L593.276 123.437M587.38 112.218L507.097 112.218M675.902 143.572L603.859 143.572M675.902 143.572L678.285 152.64M675.902 143.572L747.945 143.572M675.902 143.572L673.35 133.861M603.859 143.572L608.625 152.64M603.859 143.572L598.755 133.861M603.859 143.572L531.816 143.572M678.285 152.64L608.625 152.64M678.285 152.64L747.945 152.64M678.285 152.64L680.515 161.128M608.625 152.64L613.086 161.128M608.625 152.64L538.965 152.64M684.574 176.571L621.202 176.571M684.574 176.571L686.425 183.615M684.574 176.571L747.945 176.571M684.574 176.571L682.608 169.088M621.202 176.571L624.905 183.615M621.202 176.571L617.27 169.088M621.202 176.571L557.832 176.571M686.425 183.615L624.905 183.615M686.425 183.615L747.945 183.615M686.425 183.615L688.171 190.26M624.905 183.615L628.397 190.26M624.905 183.615L563.385 183.615M691.382 202.479L634.82 202.479M691.382 202.479L692.862 208.108M691.382 202.479L747.945 202.479M691.382 202.479L689.821 196.537M634.82 202.479L637.778 208.108M634.82 202.479L631.697 196.537M634.82 202.479L578.256 202.479M692.862 208.108L637.778 208.108M692.862 208.108L747.945 208.108M692.862 208.108L694.266 213.451M637.778 208.108L640.586 213.451M637.778 208.108L582.695 208.108M696.87 223.359L645.794 223.359M696.87 223.359L698.079 227.962M696.87 223.359L747.945 223.359M696.87 223.359L695.6 218.528M645.794 223.359L648.213 227.962M645.794 223.359L643.255 218.528M645.794 223.359L594.719 223.359M698.079 227.962L648.213 227.962M698.079 227.962L747.945 227.962M698.079 227.962L699.233 232.351M648.213 227.962L650.52 232.351M648.213 227.962L598.347 227.962M701.387 240.547L654.828 240.547M701.387 240.547L702.394 244.379M701.387 240.547L747.945 240.547M701.387 240.547L700.334 236.542M654.828 240.547L656.596 243.909L656.842 244.379M654.828 240.547L652.723 236.542M654.828 240.547L608.27 240.547M702.394 244.379L702.516 244.847L703.358 248.049M702.394 244.379L656.842 244.379M702.394 244.379L747.945 244.379M656.842 244.379L657.576 245.774L657.817 246.234L658.058 246.691L658.771 248.049M656.842 244.379L611.291 244.379M705.169 254.942L662.393 254.942M705.169 254.942L706.021 258.182M705.169 254.942L747.945 254.942M705.169 254.942L704.841 253.693L704.73 253.272L704.62 252.849L704.396 251.997L704.282 251.567M662.393 254.942L663.677 257.384L664.097 258.182M662.393 254.942L660.62 251.567M662.393 254.942L619.618 254.942M706.021 258.182L664.097 258.182M706.021 258.182L747.945 258.182M706.021 258.182L706.839 261.296M664.097 258.182L665.127 260.143L665.331 260.529L665.532 260.914L665.734 261.296M664.097 258.182L622.173 258.182M708.384 267.173L668.823 267.173M708.384 267.173L709.113 269.949M708.384 267.173L747.945 267.173M708.384 267.173L707.626 264.291M668.823 267.173L668.636 266.819L667.5 264.657L667.308 264.291M668.823 267.173L670.282 269.949M668.823 267.173L629.261 267.173M709.113 269.949L670.282 269.949M709.113 269.949L747.945 269.949M709.113 269.949L709.816 272.624M670.282 269.949L670.815 270.964L670.991 271.299L671.167 271.633L671.688 272.624M670.282 269.949L631.45 269.949M711.148 277.695L674.352 277.695M711.148 277.695L711.781 280.1M711.148 277.695L747.945 277.695M711.148 277.695L710.494 275.205M674.352 277.695L674.513 278L674.832 278.606L674.99 278.908L675.305 279.506L675.46 279.804L675.617 280.1M674.352 277.695L673.704 276.461L673.54 276.149L673.21 275.521L673.044 275.205M674.352 277.695L637.557 277.695M711.781 280.1L711.858 280.394L711.936 280.688L712.012 280.98L712.391 282.423M711.781 280.1L675.617 280.1M711.781 280.1L747.945 280.1M675.617 280.1L639.452 280.1M675.617 280.1L675.925 280.688L676.079 280.98L676.232 281.271L676.687 282.137L676.838 282.423M251.996 40.2722L152.807 40.2722M251.996 40.2722L274.306 57.2504M251.996 40.2722L351.186 40.2722M251.996 40.2722L227.481 21.6153M152.807 40.2722L179.578 57.2504M152.807 40.2722L123.389 21.6153M152.807 40.2722L53.6166 40.2722M274.306 57.2504L179.578 57.2504M274.306 57.2504L369.033 57.2504M274.306 57.2504L294.694 72.767M179.578 57.2504L204.044 72.767M179.578 57.2504L84.8493 57.2504M330.622 100.11L247.157 100.11M330.622 100.11L346.532 112.218M330.622 100.11L414.087 100.11M330.622 100.11L313.399 87.0028M247.157 100.11L266.249 112.218M247.157 100.11L226.491 87.0028M247.157 100.11L163.693 100.11M346.532 112.218L266.249 112.218M346.532 112.218L426.814 112.218M346.532 112.218L361.273 123.437M266.249 112.218L283.939 123.437M266.249 112.218L185.967 112.218M387.729 143.572L315.687 143.572M387.729 143.572L399.645 152.64M387.729 143.572L459.773 143.572M387.729 143.572L374.97 133.861M315.687 143.572L329.985 152.64M315.687 143.572L300.375 133.861M315.687 143.572L243.644 143.572M399.645 152.64L329.985 152.64M399.645 152.64L469.305 152.64M399.645 152.64L410.798 161.128M329.985 152.64L343.368 161.128M329.985 152.64L260.326 152.64M431.089 176.571L367.717 176.57M431.089 176.571L440.345 183.615M431.089 176.571L494.46 176.571M431.089 176.571L421.258 169.088M367.717 176.57L378.825 183.615M367.717 176.57L355.92 169.088M367.717 176.57L304.346 176.57M440.345 183.615L378.825 183.615M440.345 183.615L501.865 183.615M440.345 183.615L449.076 190.26M378.825 183.615L389.303 190.26M378.825 183.615L317.306 183.615M465.131 202.479L408.569 202.478M465.131 202.479L472.529 208.108M465.131 202.479L521.694 202.479M465.131 202.479L457.325 196.537M408.569 202.478L417.445 208.108M408.569 202.478L399.201 196.537M408.569 202.478L352.005 202.478M472.529 208.108L417.445 208.108M472.529 208.108L527.612 208.108M472.529 208.108L479.549 213.451M417.445 208.108L425.87 213.451M417.445 208.108L362.362 208.108M492.568 223.359L441.493 223.359M492.568 223.359L498.615 227.962M492.568 223.359L543.644 223.359M492.568 223.359L486.22 218.528M441.493 223.359L448.75 227.962M441.493 223.359L433.875 218.528M441.493 223.359L390.418 223.359M498.615 227.962L448.75 227.962M498.615 227.962L548.481 227.962M498.615 227.962L504.383 232.351M448.75 227.962L455.67 232.351M448.75 227.962L398.884 227.962M515.153 240.547L514.508 240.056L513.859 239.563L509.89 236.542M515.153 240.547L468.594 240.547M515.153 240.547L520.188 244.379M515.153 240.547L561.711 240.547M468.594 240.547L474.636 244.379M468.594 240.547L462.279 236.542M468.594 240.547L422.036 240.547M520.188 244.379L474.636 244.379M520.188 244.379L565.739 244.379M520.188 244.379L525.01 248.049M474.636 244.379L480.423 248.049M474.636 244.379L429.085 244.379M534.067 254.942L491.291 254.942M534.067 254.942L538.325 258.182M534.067 254.942L576.843 254.942M534.067 254.942L529.633 251.567M491.291 254.942L494.509 256.982L496.401 258.182M491.291 254.942L485.97 251.567M491.291 254.942L448.516 254.942M538.325 258.182L496.401 258.182M538.325 258.182L580.249 258.182M538.325 258.182L541.913 260.914L542.417 261.296M496.401 258.182L501.311 261.296M496.401 258.182L454.477 258.182M550.139 267.173L510.577 267.173M550.139 267.173L551.063 267.877L553.786 269.949M550.139 267.173L589.7 267.173M550.139 267.173L549.205 266.463L547.312 265.022L546.352 264.291M510.577 267.173L514.954 269.949M510.577 267.173L508.894 266.105L507.757 265.385L506.033 264.291M510.577 267.173L471.016 267.173M553.786 269.949L514.954 269.949M553.786 269.949L592.618 269.949M553.786 269.949L556.435 271.965L557.302 272.624M514.954 269.949L516.555 270.964L517.609 271.633L519.173 272.624M514.954 269.949L476.123 269.949M563.964 277.695L527.167 277.695M563.964 277.695L565.952 279.207L567.124 280.1M563.964 277.695L600.76 277.695M563.964 277.695L560.692 275.205M527.167 277.695L530.024 279.506L530.492 279.804L530.959 280.1M527.167 277.695L525.222 276.461L523.241 275.205M527.167 277.695L490.372 277.695M567.124 280.1L530.959 280.1M567.124 280.1L568.663 281.271L569.422 281.849L569.8 282.137L570.176 282.423M567.124 280.1L603.288 280.1M530.959 280.1L494.795 280.1M530.959 280.1L534.622 282.423M25.4015 112.218L105.684 112.218M25.4015 112.218L51.9352 123.437M25.4015 112.218L1.347 112.218M25.4015 112.218L1.347 102.048M99.5573 143.572L27.5145 143.572M99.5573 143.572L121.005 152.64M99.5573 143.572L171.6 143.572M99.5573 143.572L76.5901 133.861M27.5145 143.572L51.3449 152.64M27.5145 143.572L1.99483 133.861M27.5145 143.572L1.34699 143.572M121.005 152.64L51.3449 152.64M121.005 152.64L190.665 152.64M121.005 152.64L141.08 161.128M51.3449 152.64L73.6503 161.128M51.3449 152.64L1.34699 152.64M177.604 176.57L114.233 176.57M177.604 176.57L194.266 183.615M177.604 176.57L240.975 176.57M177.604 176.57L159.908 169.088M114.233 176.57L132.745 183.615M114.233 176.57L94.5706 169.088M114.233 176.57L50.8612 176.57M194.266 183.615L132.745 183.615M194.266 183.615L255.785 183.615M194.266 183.615L209.981 190.26M132.745 183.615L150.208 190.26M132.745 183.615L71.2255 183.615M238.88 202.478L182.318 202.478M238.88 202.478L252.195 208.108M238.88 202.478L295.443 202.478M238.88 202.478L224.829 196.537M182.318 202.478L197.113 208.108M182.318 202.478L166.705 196.537M182.318 202.478L125.754 202.478M252.195 208.108L197.113 208.108M252.195 208.108L307.279 208.108M252.195 208.108L264.832 213.451M197.113 208.108L211.153 213.451M197.113 208.108L142.029 208.108M288.267 223.359L237.192 223.359M288.267 223.359L299.152 227.962M288.267 223.359L339.342 223.359M288.267 223.359L276.841 218.528M237.192 223.359L249.286 227.962M237.192 223.359L224.496 218.528M237.192 223.359L186.117 223.359M299.152 227.962L249.286 227.962M299.152 227.962L349.017 227.962M299.152 227.962L309.533 232.351M249.286 227.962L260.821 232.351M249.286 227.962L199.42 227.962M328.918 240.547L282.36 240.547M328.918 240.547L337.983 244.379M328.918 240.547L375.477 240.547M328.918 240.547L319.445 236.542M282.36 240.547L292.432 244.379M282.36 240.547L271.834 236.542M282.36 240.547L235.802 240.547M337.983 244.379L292.432 244.379M337.983 244.379L383.534 244.379M337.983 244.379L346.662 248.049M292.432 244.379L302.076 248.049M292.432 244.379L246.88 244.379M362.965 254.942L320.189 254.942M362.965 254.942L370.629 258.182M362.965 254.942L405.74 254.942M362.965 254.942L354.982 251.567M320.189 254.942L328.705 258.182M320.189 254.942L311.32 251.567M320.189 254.942L277.413 254.942M370.629 258.182L328.705 258.182M370.629 258.182L412.553 258.182M370.629 258.182L377.994 261.296M328.705 258.182L336.888 261.296M328.705 258.182L286.781 258.182M391.894 267.173L352.333 267.173M391.894 267.173L398.459 269.949M391.894 267.173L431.455 267.173M391.894 267.173L390.213 266.463L389.368 266.105L385.077 264.291M352.333 267.173L359.628 269.949M352.333 267.173L344.758 264.291M352.333 267.173L312.772 267.173M398.459 269.949L359.628 269.949M398.459 269.949L437.291 269.949M398.459 269.949L404.787 272.624M359.628 269.949L366.658 272.624M359.628 269.949L320.796 269.949M416.779 277.695L379.983 277.695M416.779 277.695L422.466 280.1M416.779 277.695L453.575 277.695M416.779 277.695L410.889 275.205M379.983 277.695L384.743 279.506L385.524 279.804L386.302 280.1M379.983 277.695L373.439 275.205M379.983 277.695L343.187 277.695M422.466 280.1L386.302 280.1M422.466 280.1L427.284 282.137L427.962 282.423M422.466 280.1L458.63 280.1M386.302 280.1L350.137 280.1M386.302 280.1L392.407 282.423M12.6291 202.478L31.8627 208.108M12.6291 202.478L69.1918 202.478M12.6291 202.478L1.34699 199.176M12.6291 202.478L1.34699 202.478M31.8627 208.108L86.946 208.108M31.8627 208.108L50.1154 213.451M31.8627 208.108L1.34699 208.108M83.9658 223.359L32.8899 223.359M83.9658 223.359L99.6888 227.962M83.9658 223.359L135.041 223.359M83.9658 223.359L67.4613 218.528M32.8899 223.359L49.8222 227.962M32.8899 223.359L15.1162 218.528M32.8899 223.359L1.34699 223.359M99.6888 227.962L49.8222 227.962M99.6888 227.962L149.554 227.962M99.6888 227.962L114.684 232.351M49.8222 227.962L65.9712 232.351M49.8222 227.962L1.34699 227.962M142.685 240.547L96.126 240.547M142.685 240.547L155.777 244.379M142.685 240.547L189.243 240.547M142.685 240.547L129 236.542M96.126 240.547L110.226 244.379M96.126 240.547L81.3901 236.542M96.126 240.547L49.5679 240.547M155.777 244.379L110.226 244.379M155.777 244.379L201.329 244.379M155.777 244.379L168.315 248.049M110.226 244.379L123.728 248.049M110.226 244.379L64.674 244.379M191.862 254.942L149.087 254.942M191.862 254.942L202.933 258.182M191.862 254.942L234.638 254.942M191.862 254.942L180.333 251.567M149.087 254.942L161.008 258.182M149.087 254.942L136.67 251.567M149.087 254.942L106.311 254.942M202.933 258.182L161.008 258.182M202.933 258.182L244.857 258.182M202.933 258.182L213.571 261.296M161.008 258.182L172.466 261.296M161.008 258.182L119.085 258.182M233.649 267.173L194.087 267.173M233.649 267.173L243.132 269.949M233.649 267.173L273.21 267.173M233.649 267.173L223.802 264.291M194.087 267.173L204.3 269.949M194.087 267.173L183.483 264.291M194.087 267.173L154.526 267.173M243.132 269.949L204.3 269.949M243.132 269.949L281.964 269.949M243.132 269.949L252.272 272.624M204.3 269.949L214.144 272.624M204.3 269.949L165.469 269.949M269.594 277.695L232.798 277.695M269.594 277.695L277.809 280.1M269.594 277.695L306.391 277.695M269.594 277.695L261.088 275.205M232.798 277.695L241.645 280.1M232.798 277.695L223.636 275.205M232.798 277.695L196.001 277.695M277.809 280.1L241.645 280.1M277.809 280.1L285.746 282.423M277.809 280.1L313.973 280.1M241.645 280.1L205.48 280.1M241.645 280.1L250.193 282.423M20.7601 254.942L35.2371 258.182M20.7601 254.942L63.5355 254.942M20.7601 254.942L5.68266 251.567M20.7601 254.942L1.34698 254.942M35.2371 258.182L77.1609 258.182M35.2371 258.182L49.1487 261.296M35.2371 258.182L1.34698 258.182M75.404 267.173L35.8429 267.173M75.404 267.173L87.8054 269.949M75.404 267.173L114.965 267.173M75.404 267.173L62.5276 264.291M35.8429 267.173L48.9737 269.949M35.8429 267.173L22.2089 264.291M35.8429 267.173L1.34698 267.173M87.8054 269.949L48.9737 269.949M87.8054 269.949L126.637 269.949M87.8054 269.949L99.758 272.624M48.9737 269.949L61.6293 272.624M48.9737 269.949L10.142 269.949M122.409 277.695L85.613 277.695M122.409 277.695L133.152 280.1M122.409 277.695L159.206 277.695M122.409 277.695L111.285 275.205M85.613 277.695L96.9878 280.1M85.613 277.695L73.8347 275.205M85.613 277.695L48.8166 277.695M133.152 280.1L96.9878 280.1M133.152 280.1L143.531 282.423M133.152 280.1L169.316 280.1M96.9878 280.1L60.8228 280.1M96.9878 280.1L107.978 282.423M73.8347 275.205L61.6293 272.624M73.8347 275.205L36.3834 275.205M73.8347 275.205L111.285 275.205M48.8166 277.695L60.8228 280.1M48.8166 277.695L36.3834 275.205M48.8166 277.695L12.021 277.695M60.8228 280.1L24.6587 280.099M60.8228 280.1L72.4238 282.423M107.978 282.423L143.531 282.423M107.978 282.423L72.4238 282.423M107.978 282.423L118.603 284.669M36.3834 275.205L23.4999 272.624M36.3834 275.205L1.34698 275.205M12.021 277.695L24.6587 280.099M12.021 277.695L1.34698 275.664M12.021 277.695L1.34698 277.695M24.6587 280.099L36.8703 282.423M24.6587 280.099L1.34698 280.099M72.4238 282.423L36.8703 282.423M72.4238 282.423L83.6392 284.669M36.8703 282.423L48.6759 284.669M36.8703 282.423L1.34698 282.423M61.6293 272.624L23.4999 272.624M61.6293 272.624L99.758 272.624M10.142 269.949L23.4999 272.624M10.142 269.949L1.34698 268.188M10.142 269.949L1.34698 269.949M23.4999 272.624L1.34698 272.624M99.758 272.624L137.887 272.624M99.758 272.624L111.285 275.205M111.285 275.205L148.736 275.205M22.2089 264.291L8.04302 261.296M22.2089 264.291L62.5276 264.291M22.2089 264.291L1.34698 264.291M1.22642 267.173L1.34698 267.173M8.04302 261.296L49.1487 261.296M8.04302 261.296L1.34698 259.881M8.04302 261.296L1.34698 261.296M49.1487 261.296L90.2543 261.296M49.1487 261.296L62.5276 264.291M62.5276 264.291L102.846 264.291M223.636 275.205L214.144 272.624M223.636 275.205L186.186 275.205M223.636 275.205L261.088 275.205M196.001 277.695L205.48 280.1M196.001 277.695L186.186 275.205M196.001 277.695L159.206 277.695M205.48 280.1L169.316 280.1M205.48 280.1L214.639 282.423M250.193 282.423L214.639 282.423M250.193 282.423L258.457 284.669M250.193 282.423L285.746 282.423M186.186 275.205L176.015 272.624M186.186 275.205L148.736 275.205M159.206 277.695L169.316 280.1M159.206 277.695L148.736 275.205M169.316 280.1L179.085 282.423M214.639 282.423L179.085 282.423M214.639 282.423L223.493 284.669M148.736 275.205L137.887 272.624M143.531 282.423L179.085 282.423M143.531 282.423L153.567 284.669M179.085 282.423L188.53 284.669M214.144 272.624L176.015 272.624M214.144 272.624L252.272 272.624M165.469 269.949L176.015 272.624M165.469 269.949L154.526 267.173M165.469 269.949L126.637 269.949M176.015 272.624L137.887 272.624M252.272 272.624L290.401 272.624M252.272 272.624L261.088 275.205M137.887 272.624L126.637 269.949M261.088 275.205L298.538 275.205M154.526 267.173L143.165 264.291M154.526 267.173L114.965 267.173M126.637 269.949L114.965 267.173M114.965 267.173L102.846 264.291M183.483 264.291L172.466 261.296M183.483 264.291L143.165 264.291M183.483 264.291L223.802 264.291M143.165 264.291L131.36 261.296M143.165 264.291L102.846 264.291M102.846 264.291L90.2543 261.296M172.466 261.296L131.36 261.296M172.466 261.296L213.571 261.296M119.085 258.182L131.36 261.296M119.085 258.182L106.311 254.942M119.085 258.182L77.1609 258.182M131.36 261.296L90.2543 261.296M213.571 261.296L254.677 261.296M213.571 261.296L223.802 264.291M90.2543 261.296L77.1609 258.182M223.802 264.291L264.121 264.291M106.311 254.942L93.0074 251.567M106.311 254.942L63.5355 254.942M77.1609 258.182L63.5355 254.942M63.5355 254.942L49.3455 251.567M136.67 251.567L123.728 248.049M136.67 251.567L93.0074 251.567M136.67 251.567L180.333 251.567M93.0074 251.567L79.141 248.049M93.0074 251.567L49.3455 251.567M49.3455 251.567L34.5542 248.049M49.3455 251.567L5.68266 251.567M5.68266 251.567L1.34699 251.567M5.68266 251.567L1.34699 250.597M123.728 248.049L79.141 248.049M123.728 248.049L168.315 248.049M64.674 244.379L79.141 248.049M64.674 244.379L49.5679 240.547M64.674 244.379L19.1231 244.379M79.141 248.049L34.5542 248.049M168.315 248.049L212.902 248.049M168.315 248.049L180.333 251.567M34.5542 248.049L19.1231 244.379M34.5542 248.049L1.34699 248.049M180.333 251.567L223.995 251.567M49.5679 240.547L33.7789 236.542M49.5679 240.547L3.00968 240.547M19.1231 244.379L3.00968 240.547M19.1231 244.379L1.34699 244.379M1.11364 248.049L1.34699 248.049M3.00968 240.547L1.34699 240.152M3.00968 240.547L1.34699 240.547M81.3901 236.542L65.9712 232.351M81.3901 236.542L33.7789 236.542M81.3901 236.542L129 236.542M33.7789 236.542L17.2588 232.351M33.7789 236.542L1.34699 236.542M0.944937 240.056L1.34699 240.152M65.9712 232.351L17.2588 232.351M65.9712 232.351L114.684 232.351M17.2588 232.351L1.34699 232.351M17.2588 232.351L1.34699 228.314M114.684 232.351L163.396 232.351M114.684 232.351L129 236.542M129 236.542L176.612 236.542M15.1162 218.528L67.4613 218.528M15.1162 218.528L1.34699 214.786M15.1162 218.528L1.34699 218.528M0.968198 223.359L1.34699 223.359M67.4613 218.528L119.806 218.528M67.4613 218.528L50.1154 213.451M1.19538 214.745L1.34699 214.786M373.439 275.205L366.658 272.624M373.439 275.205L335.988 275.205M373.439 275.205L410.889 275.205M343.187 277.695L350.137 280.1M343.187 277.695L335.988 275.205M343.187 277.695L306.391 277.695M350.137 280.1L313.973 280.1M350.137 280.1L356.854 282.423M392.407 282.423L356.854 282.423M392.407 282.423L394.645 283.274L398.311 284.669M392.407 282.423L427.962 282.423M335.988 275.205L328.53 272.624M335.988 275.205L298.538 275.205M306.391 277.695L313.973 280.1M306.391 277.695L298.538 275.205M313.973 280.1L321.3 282.423M356.854 282.423L321.3 282.423M356.854 282.423L363.347 284.669M298.538 275.205L290.401 272.624M285.746 282.423L293.42 284.669M285.746 282.423L321.3 282.423M321.3 282.423L322.198 282.708L323.985 283.274L328.383 284.669M366.658 272.624L328.53 272.624M366.658 272.624L404.787 272.624M320.796 269.949L328.53 272.624M320.796 269.949L312.772 267.173M320.796 269.949L281.964 269.949M328.53 272.624L290.401 272.624M404.787 272.624L442.915 272.624M404.787 272.624L410.889 275.205M290.401 272.624L281.964 269.949M410.889 275.205L448.341 275.205M312.772 267.173L304.439 264.291M312.772 267.173L273.21 267.173M281.964 269.949L280.887 269.608L273.21 267.173M273.21 267.173L264.121 264.291M344.758 264.291L343.791 263.923L336.888 261.296M344.758 264.291L304.439 264.291M344.758 264.291L385.077 264.291M304.439 264.291L295.783 261.296M304.439 264.291L264.121 264.291M264.121 264.291L254.677 261.296M336.888 261.296L295.783 261.296M336.888 261.296L377.994 261.296M286.781 258.182L295.783 261.296M286.781 258.182L277.413 254.942M286.781 258.182L244.857 258.182M295.783 261.296L254.677 261.296M377.994 261.296L419.1 261.296M377.994 261.296L385.077 264.291M254.677 261.296L244.857 258.182M385.077 264.291L425.395 264.291M277.413 254.942L267.658 251.567M277.413 254.942L234.638 254.942M244.857 258.182L234.638 254.942M234.638 254.942L223.995 251.567M311.32 251.567L302.076 248.049M311.32 251.567L267.658 251.567M311.32 251.567L354.982 251.567M267.658 251.567L257.488 248.049M267.658 251.567L223.995 251.567M223.995 251.567L212.902 248.049M302.076 248.049L257.488 248.049M302.076 248.049L346.662 248.049M246.88 244.379L257.488 248.049M246.88 244.379L235.802 240.547M246.88 244.379L201.329 244.379M257.488 248.049L212.902 248.049M346.662 248.049L391.249 248.049M346.662 248.049L354.982 251.567M212.902 248.049L201.329 244.379M354.982 251.567L398.645 251.567M235.802 240.547L224.223 236.542M235.802 240.547L189.243 240.547M201.329 244.379L189.243 240.547M189.243 240.547L176.612 236.542M271.834 236.542L260.821 232.351M271.834 236.542L224.223 236.542M271.834 236.542L319.445 236.542M224.223 236.542L212.109 232.351M224.223 236.542L176.612 236.542M176.612 236.542L163.396 232.351M260.821 232.351L212.109 232.351M260.821 232.351L309.533 232.351M199.42 227.962L212.109 232.351M199.42 227.962L186.117 223.359M199.42 227.962L149.554 227.962M212.109 232.351L163.396 232.351M309.533 232.351L358.246 232.351M309.533 232.351L319.445 236.542M163.396 232.351L149.554 227.962M319.445 236.542L367.056 236.542M186.117 223.359L172.151 218.528M186.117 223.359L135.041 223.359M149.554 227.962L135.041 223.359M135.041 223.359L119.806 218.528M224.496 218.528L211.153 213.451M224.496 218.528L172.151 218.528M224.496 218.528L276.841 218.528M172.151 218.528L157.474 213.451M172.151 218.528L119.806 218.528M119.806 218.528L103.795 213.451M211.153 213.451L157.474 213.451M211.153 213.451L264.832 213.451M142.029 208.108L157.474 213.451M142.029 208.108L125.754 202.478M142.029 208.108L86.946 208.108M157.474 213.451L103.795 213.451M264.832 213.451L318.512 213.451M264.832 213.451L276.841 218.528M103.795 213.451L86.946 208.108M103.795 213.451L50.1154 213.451M276.841 218.528L329.186 218.528M125.754 202.478L108.582 196.537M125.754 202.478L69.1918 202.478M86.946 208.108L69.1918 202.478M50.1154 213.451L1.34699 213.451M69.1918 202.478L50.4575 196.537M166.705 196.537L150.208 190.26M166.705 196.537L108.582 196.537M166.705 196.537L224.829 196.537M108.582 196.537L90.434 190.26M108.582 196.537L50.4575 196.537M50.4575 196.537L30.6603 190.26M50.4575 196.537L1.34699 196.537M150.208 190.26L90.434 190.26M150.208 190.26L209.981 190.26M71.2255 183.615L90.434 190.26M71.2255 183.615L50.8612 176.57M71.2255 183.615L9.70581 183.615M90.434 190.26L30.6603 190.26M209.981 190.26L269.755 190.26M209.981 190.26L224.829 196.537M30.6603 190.26L9.70581 183.615M30.6603 190.26L1.34699 190.26M224.829 196.537L282.954 196.537M50.8612 176.57L29.2332 169.088M50.8612 176.57L1.34699 176.57M9.70581 183.615L1.34699 183.615M9.70581 183.615L1.34699 180.964M94.5706 169.088L73.6503 161.128M94.5706 169.088L29.2332 169.088M94.5706 169.088L159.908 169.088M29.2332 169.088L6.22085 161.128M29.2332 169.088L1.34699 169.088M73.6503 161.128L6.22085 161.128M73.6503 161.128L141.08 161.128M6.22085 161.128L1.34699 159.442M6.22085 161.128L1.34699 161.128M141.08 161.128L208.509 161.128M141.08 161.128L159.908 169.088M159.908 169.088L225.245 169.088M1.99483 133.861L76.5901 133.861M1.99483 133.861L1.347 133.861M1.99483 133.861L1.347 133.615M76.5901 133.861L151.185 133.861M76.5901 133.861L51.9352 123.437M523.241 275.205L521.733 274.248L521.226 273.926L519.173 272.624M523.241 275.205L485.791 275.205M523.241 275.205L560.692 275.205M490.372 277.695L493.703 279.506L494.795 280.1M490.372 277.695L486.372 275.521L485.791 275.205M490.372 277.695L453.575 277.695M494.795 280.1L458.63 280.1M494.795 280.1L499.069 282.423M534.622 282.423L499.069 282.423M534.622 282.423L535.965 283.274L538.164 284.669M534.622 282.423L570.176 282.423M485.791 275.205L484.62 274.569L481.044 272.624M485.791 275.205L448.341 275.205M453.575 277.695L458.63 280.1M453.575 277.695L448.341 275.205M458.63 280.1L462.31 281.849L463.515 282.423M499.069 282.423L463.515 282.423M499.069 282.423L503.201 284.669M448.341 275.205L442.915 272.624M427.962 282.423L428.635 282.708L433.274 284.669M427.962 282.423L463.515 282.423M463.515 282.423L465.305 283.274L468.237 284.669M519.173 272.624L481.044 272.624M519.173 272.624L557.302 272.624M476.123 269.949L481.044 272.624M476.123 269.949L471.016 267.173M476.123 269.949L437.291 269.949M481.044 272.624L442.915 272.624M557.302 272.624L595.431 272.624M557.302 272.624L560.692 275.205M442.915 272.624L437.291 269.949M560.692 275.205L598.142 275.205M471.016 267.173L467.727 265.385L467.058 265.022L465.715 264.291M471.016 267.173L431.455 267.173M437.291 269.949L431.455 267.173M431.455 267.173L425.395 264.291M506.033 264.291L501.311 261.296M506.033 264.291L465.715 264.291M506.033 264.291L546.352 264.291M465.715 264.291L460.205 261.296M465.715 264.291L425.395 264.291M425.395 264.291L419.1 261.296M501.311 261.296L460.205 261.296M501.311 261.296L542.417 261.296M454.477 258.182L458.084 260.143L458.794 260.529L460.205 261.296M454.477 258.182L448.516 254.942M454.477 258.182L412.553 258.182M460.205 261.296L419.1 261.296M542.417 261.296L583.522 261.296M542.417 261.296L546.352 264.291M419.1 261.296L412.553 258.182M546.352 264.291L586.67 264.291M448.516 254.942L442.307 251.567M448.516 254.942L405.74 254.942M412.553 258.182L405.74 254.942M405.74 254.942L398.645 251.567M485.97 251.567L483.225 249.827L482.531 249.386L480.423 248.049M485.97 251.567L442.307 251.567M485.97 251.567L529.633 251.567M442.307 251.567L435.837 248.049M442.307 251.567L398.645 251.567M398.645 251.567L391.249 248.049M480.423 248.049L435.837 248.049M480.423 248.049L525.01 248.049M429.085 244.379L435.837 248.049M429.085 244.379L422.036 240.547M429.085 244.379L383.534 244.379M435.837 248.049L391.249 248.049M525.01 248.049L569.598 248.049M525.01 248.049L526.184 248.942L529.633 251.567M391.249 248.049L383.534 244.379M529.633 251.567L573.295 251.567M422.036 240.547L414.668 236.542M422.036 240.547L375.477 240.547M383.534 244.379L375.477 240.547M375.477 240.547L367.056 236.542M462.279 236.542L455.67 232.351M462.279 236.542L414.668 236.542M462.279 236.542L509.89 236.542M414.668 236.542L406.958 232.351M414.668 236.542L367.056 236.542M367.056 236.542L358.246 232.351M455.67 232.351L406.958 232.351M455.67 232.351L504.383 232.351M398.884 227.962L406.958 232.351M398.884 227.962L390.418 223.359M398.884 227.962L349.017 227.962M406.958 232.351L358.246 232.351M504.383 232.351L553.095 232.351M504.383 232.351L509.89 236.542M358.246 232.351L349.017 227.962M509.89 236.542L557.5 236.542M390.418 223.359L381.531 218.528M390.418 223.359L339.342 223.359M349.017 227.962L339.342 223.359M339.342 223.359L329.186 218.528M433.875 218.528L425.87 213.451M433.875 218.528L381.531 218.528M433.875 218.528L486.22 218.528M381.531 218.528L372.191 213.451M381.531 218.528L329.186 218.528M329.186 218.528L318.512 213.451M425.87 213.451L372.191 213.451M425.87 213.451L479.549 213.451M362.362 208.108L372.191 213.451M362.362 208.108L352.005 202.478M362.362 208.108L307.279 208.108M372.191 213.451L318.512 213.451M479.549 213.451L533.228 213.451M479.549 213.451L486.22 218.528M318.512 213.451L307.279 208.108M486.22 218.528L538.565 218.528M352.005 202.478L341.077 196.537M352.005 202.478L295.443 202.478M307.279 208.108L295.443 202.478M295.443 202.478L282.954 196.537M399.201 196.537L389.303 190.26M399.201 196.537L341.077 196.537M399.201 196.537L457.325 196.537M341.077 196.537L329.529 190.26M341.077 196.537L282.954 196.537M282.954 196.537L269.755 190.26M389.303 190.26L329.529 190.26M389.303 190.26L449.076 190.26M317.306 183.615L329.529 190.26M317.306 183.615L304.346 176.57M317.306 183.615L255.785 183.615M329.529 190.26L269.755 190.26M449.076 190.26L508.85 190.26M449.076 190.26L457.325 196.537M269.755 190.26L255.785 183.615M457.325 196.537L515.449 196.537M304.346 176.57L290.583 169.088M304.346 176.57L240.975 176.57M255.785 183.615L240.975 176.57M240.975 176.57L225.245 169.088M355.92 169.088L343.368 161.128M355.92 169.088L290.583 169.088M355.92 169.088L421.258 169.088M290.583 169.088L275.939 161.128M290.583 169.088L225.245 169.088M225.245 169.088L208.509 161.128M343.368 161.128L275.939 161.128M343.368 161.128L410.798 161.128M260.326 152.64L275.939 161.128M260.326 152.64L243.644 143.572M260.326 152.64L190.665 152.64M275.939 161.128L208.509 161.128M410.798 161.128L478.227 161.128M410.798 161.128L421.258 169.088M208.509 161.128L190.665 152.64M421.258 169.088L486.595 169.088M243.644 143.572L225.78 133.861M243.644 143.572L171.6 143.572M190.665 152.64L171.6 143.572M171.6 143.572L151.185 133.861M300.375 133.861L283.939 123.437M300.375 133.861L225.78 133.861M300.375 133.861L374.97 133.861M225.78 133.861L206.605 123.437M225.78 133.861L151.185 133.861M151.185 133.861L129.27 123.437M283.939 123.437L206.605 123.437M283.939 123.437L361.273 123.437M185.967 112.218L206.605 123.437M185.967 112.218L163.693 100.11M185.967 112.218L105.684 112.218M206.605 123.437L129.27 123.437M361.273 123.437L438.608 123.437M361.273 123.437L374.97 133.861M129.27 123.437L105.684 112.218M129.27 123.437L51.9352 123.437M374.97 133.861L449.565 133.861M163.693 100.11L139.581 87.0028M163.693 100.11L80.2289 100.11M105.684 112.218L80.2289 100.11M51.9352 123.437L1.347 123.437M80.2289 100.11L52.6717 87.0028M80.2289 100.11L1.347 100.11M226.491 87.0028L204.044 72.767M226.491 87.0028L139.581 87.0028M226.491 87.0028L313.399 87.0028M139.581 87.0028L113.393 72.767M139.581 87.0028L52.6717 87.0028M52.6717 87.0028L22.7432 72.7669M52.6717 87.0028L1.347 87.0028M204.044 72.767L113.393 72.767M204.044 72.767L294.694 72.767M84.8493 57.2504L113.393 72.767M84.8493 57.2504L53.6166 40.2722M84.8493 57.2504L1.347 57.2504M113.393 72.767L22.7432 72.7669M294.694 72.767L385.344 72.767M294.694 72.767L313.399 87.0028M22.7432 72.7669L1.347 72.7669M22.7432 72.7669L1.347 62.5896M313.399 87.0028L400.309 87.0028M53.6166 40.2722L19.2964 21.6153M53.6166 40.2722L1.347 40.2722M123.389 21.6153L90.9123 1.01793M123.389 21.6153L19.2964 21.6153M123.389 21.6153L227.481 21.6153M19.2964 21.6153L1.34701 11.8575M19.2964 21.6153L1.34701 21.6153M1.34701 1.0183L90.9123 1.01793L200.418 1.01794M200.418 1.01794L309.923 1.01795M200.418 1.01794L227.481 21.6153M227.481 21.6153L331.574 21.6153M673.044 275.205L672.877 274.887L672.71 274.569L672.541 274.248L672.372 273.926L671.86 272.952L671.688 272.624M673.044 275.205L635.593 275.205M673.044 275.205L710.494 275.205M637.557 277.695L638.984 279.506L639.452 280.1M637.557 277.695L636.337 276.149L635.593 275.205M637.557 277.695L600.76 277.695M639.452 280.1L603.288 280.1M639.452 280.1L640.831 281.849L641.284 282.423M676.838 282.423L676.987 282.708L677.58 283.836L678.018 284.669M676.838 282.423L641.284 282.423M676.838 282.423L712.391 282.423M635.593 275.205L635.343 274.887L635.091 274.569L634.839 274.248L634.585 273.926L633.559 272.624M635.593 275.205L598.142 275.205M600.76 277.695L602.664 279.506L603.288 280.1M600.76 277.695L598.142 275.205M603.288 280.1L604.52 281.271L605.43 282.137L605.73 282.423M641.284 282.423L641.508 282.708L641.954 283.274L642.398 283.836L642.617 284.115L643.055 284.669M641.284 282.423L605.73 282.423M598.142 275.205L596.117 273.278L595.431 272.624M570.176 282.423L572.399 284.115L573.127 284.669M570.176 282.423L605.73 282.423M605.73 282.423L607.8 284.392L608.092 284.669M671.688 272.624L633.559 272.624M671.688 272.624L709.816 272.624M631.45 269.949L633.559 272.624M631.45 269.949L629.261 267.173M631.45 269.949L592.618 269.949M633.559 272.624L595.431 272.624M709.816 272.624L747.945 272.624M709.816 272.624L710.494 275.205M595.431 272.624L592.618 269.949M710.494 275.205L747.945 275.205M629.261 267.173L628.701 266.463L627.851 265.385L626.989 264.291M629.261 267.173L589.7 267.173M592.618 269.949L592.259 269.608L589.7 267.173M589.7 267.173L589.328 266.819L588.953 266.463L588.577 266.105L586.67 264.291M667.308 264.291L665.734 261.296M667.308 264.291L626.989 264.291M667.308 264.291L707.626 264.291M626.989 264.291L624.628 261.296M626.989 264.291L586.67 264.291M586.67 264.291L584.321 262.056L583.922 261.677L583.522 261.296M665.734 261.296L624.628 261.296M665.734 261.296L706.839 261.296M622.173 258.182L621.859 257.784L621.544 257.384L621.227 256.982L619.618 254.942M622.173 258.182L623.412 259.755L623.719 260.143L624.023 260.529L624.628 261.296M622.173 258.182L580.249 258.182M624.628 261.296L583.522 261.296M706.839 261.296L747.945 261.296M706.839 261.296L707.626 264.291M583.522 261.296L580.249 258.182M707.626 264.291L747.945 264.291M619.618 254.942L617.296 251.997L616.957 251.567M619.618 254.942L576.843 254.942M580.249 258.182L579.41 257.384L576.843 254.942M576.843 254.942L575.529 253.693L573.295 251.567M660.62 251.567L659.705 249.827L659.474 249.386L658.771 248.049M660.62 251.567L616.957 251.567M660.62 251.567L704.282 251.567M616.957 251.567L614.184 248.049M616.957 251.567L573.295 251.567M573.295 251.567L569.598 248.049M658.771 248.049L614.184 248.049M658.771 248.049L703.358 248.049M611.291 244.379L614.184 248.049M611.291 244.379L608.27 240.547M611.291 244.379L565.739 244.379M614.184 248.049L569.598 248.049M703.358 248.049L747.945 248.049M703.358 248.049L703.593 248.943L704.055 250.701L704.282 251.567M569.598 248.049L565.739 244.379M704.282 251.567L747.945 251.567M608.27 240.547L605.915 237.56L605.111 236.542M608.27 240.547L561.711 240.547M565.739 244.379L561.711 240.547M561.711 240.547L559.63 238.567L557.5 236.542M652.723 236.542L650.52 232.351M652.723 236.542L605.111 236.542M652.723 236.542L700.334 236.542M605.111 236.542L601.808 232.351M605.111 236.542L557.5 236.542M557.5 236.542L553.095 232.351M650.52 232.351L601.808 232.351M650.52 232.351L699.233 232.351M598.347 227.962L599.228 229.078L601.808 232.351M598.347 227.962L594.719 223.359M598.347 227.962L548.481 227.962M601.808 232.351L553.095 232.351M699.233 232.351L747.945 232.351M699.233 232.351L700.334 236.542M553.095 232.351L548.481 227.962M700.334 236.542L747.945 236.542M594.719 223.359L590.91 218.528M594.719 223.359L543.644 223.359M548.481 227.962L543.644 223.359M543.644 223.359L538.565 218.528M643.255 218.528L640.586 213.451M643.255 218.528L590.91 218.528M643.255 218.528L695.6 218.528M590.91 218.528L586.908 213.451M590.91 218.528L538.565 218.528M538.565 218.528L533.228 213.451M640.586 213.451L586.908 213.451M640.586 213.451L694.266 213.451M582.695 208.108L586.908 213.451M582.695 208.108L578.256 202.479M582.695 208.108L527.612 208.108M586.908 213.451L533.228 213.451M694.266 213.451L747.945 213.451M694.266 213.451L695.437 217.907L695.6 218.528M533.228 213.451L527.612 208.108M695.6 218.528L747.945 218.528M578.256 202.479L573.573 196.537M578.256 202.479L521.694 202.479M527.612 208.108L523.203 203.914L521.694 202.479M521.694 202.479L515.449 196.537M631.697 196.537L628.397 190.26M631.697 196.537L573.573 196.537M631.697 196.537L689.821 196.537M573.573 196.537L568.624 190.26M573.573 196.537L515.449 196.537M515.449 196.537L508.85 190.26M628.397 190.26L568.624 190.26M628.397 190.26L688.171 190.26M563.385 183.615L568.624 190.26M563.385 183.615L557.832 176.571M563.385 183.615L501.865 183.615M568.624 190.26L508.85 190.26M688.171 190.26L747.945 190.26M688.171 190.26L689.821 196.537M508.85 190.26L501.865 183.615M689.821 196.537L747.945 196.537M557.832 176.571L551.933 169.088M557.832 176.571L494.46 176.571M501.865 183.615L494.46 176.571M494.46 176.571L486.595 169.088M617.27 169.088L613.086 161.128M617.27 169.088L551.933 169.088M617.27 169.088L682.608 169.088M551.933 169.088L545.657 161.128M551.933 169.088L486.595 169.088M486.595 169.088L478.227 161.128M613.086 161.128L545.657 161.128M613.086 161.128L680.515 161.128M538.965 152.64L545.657 161.128M538.965 152.64L531.816 143.572M538.965 152.64L469.305 152.64M545.657 161.128L478.227 161.128M680.515 161.128L747.945 161.128M680.515 161.128L682.608 169.088M478.227 161.128L469.305 152.64M682.608 169.088L747.945 169.088M531.816 143.572L524.16 133.861M531.816 143.572L459.773 143.572M469.305 152.64L459.773 143.572M459.773 143.572L449.565 133.861M598.755 133.861L593.276 123.437M598.755 133.861L524.16 133.861M598.755 133.861L673.35 133.861M524.16 133.861L515.942 123.437M524.16 133.861L449.565 133.861M449.565 133.861L438.608 123.437M593.276 123.437L515.942 123.437M593.276 123.437L670.611 123.437M507.097 112.218L515.942 123.437M507.097 112.218L497.552 100.11M507.097 112.218L426.814 112.218M515.942 123.437L438.608 123.437M670.611 123.437L747.945 123.437M670.611 123.437L673.35 133.861M438.608 123.437L426.814 112.218M673.35 133.861L747.945 133.861M497.552 100.11L487.217 87.0029M497.552 100.11L414.087 100.11M426.814 112.218L414.087 100.11M414.087 100.11L400.309 87.0028M574.127 87.0029L566.645 72.767M574.127 87.0029L487.217 87.0029M574.127 87.0029L661.036 87.0029M487.217 87.0029L475.994 72.767M487.217 87.0029L400.309 87.0028M400.309 87.0028L385.344 72.767M566.645 72.767L475.994 72.767M566.645 72.767L657.295 72.767M463.761 57.2505L475.994 72.767M463.761 57.2505L450.376 40.2723M463.761 57.2505L369.033 57.2504M475.994 72.767L385.344 72.767M657.295 72.767L747.945 72.767M657.295 72.767L661.036 87.0029M385.344 72.767L369.033 57.2504M661.036 87.0029L747.945 87.0029M450.376 40.2723L435.667 21.6153M450.376 40.2723L351.186 40.2722M369.033 57.2504L351.186 40.2722M351.186 40.2722L331.574 21.6153M539.76 21.6153L528.934 1.01797M539.76 21.6153L435.667 21.6153M539.76 21.6153L643.852 21.6153M435.667 21.6153L419.429 1.01796M435.667 21.6153L331.574 21.6153M331.574 21.6153L309.923 1.01795M419.429 1.01796L528.934 1.01797M419.429 1.01796L309.923 1.01795M528.934 1.01797L638.439 1.01798M638.439 1.01798L747.945 1.01799M638.439 1.01798L643.852 21.6153M643.852 21.6153L747.945 21.6153M822.846 275.205L823.013 274.887L823.18 274.569L823.349 274.248L823.518 273.926L823.858 273.278L824.03 272.952L824.202 272.624M822.846 275.205L785.395 275.205M822.846 275.205L860.297 275.205M784.741 277.695L784.109 280.1M784.741 277.695L785.395 275.205M784.741 277.695L747.945 277.695M784.109 280.1L784.032 280.394L783.954 280.688L783.878 280.98L783.499 282.423M784.109 280.1L747.945 280.1M819.052 282.423L818.903 282.708L818.31 283.836L817.872 284.669M819.052 282.423L783.499 282.423M819.052 282.423L854.606 282.423M785.395 275.205L785.479 274.887L785.563 274.569L785.647 274.248L786.073 272.624M785.395 275.205L747.945 275.205M747.945 277.695L747.945 280.1M747.945 277.695L747.945 275.205M747.945 280.1L747.945 282.423M783.499 282.423L747.945 282.423M783.499 282.423L783.275 283.274L783.201 283.555L782.908 284.669M747.945 275.205L747.945 272.624M712.391 282.423L712.614 283.274L712.689 283.555L712.762 283.836L712.836 284.115L712.908 284.392L712.982 284.669M712.391 282.423L747.945 282.423M747.945 282.423L747.945 284.669M824.202 272.624L786.073 272.624M824.202 272.624L862.331 272.624M786.777 269.949L786.867 269.608L786.956 269.265L787.506 267.173M786.777 269.949L786.073 272.624M786.777 269.949L747.945 269.949M786.073 272.624L747.945 272.624M862.331 272.624L900.459 272.624M862.331 272.624L861.816 273.278L861.559 273.603L861.305 273.926L861.051 274.248L860.799 274.569L860.547 274.887L860.297 275.205M747.945 272.624L747.945 269.949M860.297 275.205L897.747 275.205M787.506 267.173L788.264 264.291M787.506 267.173L747.945 267.173M747.945 269.949L747.945 267.173M747.945 267.173L747.945 264.291M828.582 264.291L830.156 261.296M828.582 264.291L788.264 264.291M828.582 264.291L868.901 264.291M788.264 264.291L789.051 261.296M788.264 264.291L747.945 264.291M747.945 264.291L747.945 261.296M830.156 261.296L789.051 261.296M830.156 261.296L871.262 261.296M789.869 258.182L789.051 261.296M789.869 258.182L790.72 254.942M789.869 258.182L747.945 258.182M789.051 261.296L747.945 261.296M871.262 261.296L912.368 261.296M871.262 261.296L868.901 264.291M747.945 261.296L747.945 258.182M868.901 264.291L909.219 264.291M790.72 254.942L791.048 253.693L791.382 252.424L791.608 251.567M790.72 254.942L747.945 254.942M747.945 258.182L747.945 254.942M747.945 254.942L747.945 251.567M835.27 251.567L836.185 249.827L836.416 249.386L837.119 248.049M835.27 251.567L791.608 251.567M835.27 251.567L878.932 251.567M791.608 251.567L791.835 250.701L792.297 248.943L792.532 248.049M791.608 251.567L747.945 251.567M747.945 251.567L747.945 248.049M837.119 248.049L792.532 248.049M837.119 248.049L881.706 248.049M793.496 244.379L793.374 244.847L792.532 248.049M793.496 244.379L794.503 240.547M793.496 244.379L747.945 244.379M792.532 248.049L747.945 248.049M881.706 248.049L926.292 248.049M881.706 248.049L878.932 251.567M747.945 248.049L747.945 244.379M878.932 251.567L922.595 251.567M794.503 240.547L795.556 236.542M794.503 240.547L747.945 240.547M747.945 244.379L747.945 240.547M747.945 240.547L747.945 236.542M843.167 236.542L845.37 232.351M843.167 236.542L795.556 236.542M843.167 236.542L890.778 236.542M795.556 236.542L796.657 232.351M795.556 236.542L747.945 236.542M747.945 236.542L747.945 232.351M845.37 232.351L796.657 232.351M845.37 232.351L894.082 232.351M797.811 227.962L796.657 232.351M797.811 227.962L799.02 223.359M797.811 227.962L747.945 227.962M796.657 232.351L747.945 232.351M894.082 232.351L942.795 232.351M894.082 232.351L890.778 236.542M747.945 232.351L747.945 227.962M890.778 236.542L938.39 236.542M799.02 223.359L800.29 218.528M799.02 223.359L747.945 223.359M747.945 227.962L747.945 223.359M747.945 223.359L747.945 218.528M852.635 218.528L855.303 213.451M852.635 218.528L800.29 218.528M852.635 218.528L904.979 218.528M800.29 218.528L801.624 213.451M800.29 218.528L747.945 218.528M747.945 218.528L747.945 213.451M855.303 213.451L801.624 213.451M855.303 213.451L908.982 213.451M803.028 208.108L801.624 213.451M803.028 208.108L804.507 202.479M803.028 208.108L747.945 208.108M801.624 213.451L747.945 213.451M908.982 213.451L962.662 213.451M908.982 213.451L904.979 218.528M747.945 213.451L747.945 208.108M904.979 218.528L957.324 218.528M804.507 202.479L806.069 196.537M804.507 202.479L747.945 202.479M747.945 208.108L747.945 202.479M747.945 202.479L747.945 196.537M864.193 196.537L867.492 190.26M864.193 196.537L806.069 196.537M864.193 196.537L922.317 196.537M806.069 196.537L807.719 190.26M806.069 196.537L747.945 196.537M747.945 196.537L747.945 190.26M867.492 190.26L807.719 190.26M867.492 190.26L927.266 190.26M809.465 183.615L807.719 190.26M809.465 183.615L811.316 176.571M809.465 183.615L747.945 183.615M807.719 190.26L747.945 190.26M927.266 190.26L987.04 190.26M927.266 190.26L922.317 196.537M747.945 190.26L747.945 183.615M922.317 196.537L980.441 196.537M811.316 176.571L813.282 169.088M811.316 176.571L747.945 176.571M747.945 183.615L747.945 176.571M747.945 176.571L747.945 169.088M878.62 169.088L882.804 161.128M878.62 169.088L813.282 169.088M878.62 169.088L943.957 169.088M813.282 169.088L815.374 161.128M813.282 169.088L747.945 169.088M747.945 169.088L747.945 161.128M882.804 161.128L815.374 161.128M882.804 161.128L950.233 161.128M817.605 152.64L815.374 161.128M817.605 152.64L819.988 143.572M817.605 152.64L747.945 152.64M815.374 161.128L747.945 161.128M950.233 161.128L1017.66 161.128M950.233 161.128L943.957 169.088M747.945 161.128L747.945 152.64M943.957 169.088L1009.29 169.088M819.988 143.572L822.54 133.861M819.988 143.572L747.945 143.572M747.945 152.64L747.945 143.572M747.945 143.572L747.945 133.861M897.135 133.861L902.614 123.437M897.135 133.861L822.54 133.861M897.135 133.861L971.73 133.861M822.54 133.861L825.279 123.437M822.54 133.861L747.945 133.861M747.945 133.861L747.945 123.437M902.614 123.437L825.279 123.437M902.614 123.437L979.948 123.437M828.228 112.218L825.279 123.437M828.228 112.218L831.409 100.11M828.228 112.218L747.945 112.218M825.279 123.437L747.945 123.437M979.948 123.437L1057.28 123.437M979.948 123.437L971.73 133.861M747.945 123.437L747.945 112.218M971.73 133.861L1046.33 133.861M831.409 100.11L834.854 87.0029M831.409 100.11L747.945 100.11M747.945 112.218L747.945 100.11M747.945 100.11L747.945 87.0029M921.763 87.0029L929.245 72.767M921.763 87.0029L834.854 87.0029M921.763 87.0029L1008.67 87.0029M834.854 87.0029L838.595 72.767M834.854 87.0029L747.945 87.0029M747.945 87.0029L747.945 72.767M929.245 72.767L838.595 72.767M929.245 72.767L1019.9 72.767M842.673 57.2505L838.595 72.767M842.673 57.2505L847.134 40.2723M842.673 57.2505L747.945 57.2505M838.595 72.767L747.945 72.767M1019.9 72.767L1110.55 72.767M1019.9 72.767L1008.67 87.0029M747.945 72.767L747.945 57.2505M1008.67 87.0029L1095.58 87.0029M847.134 40.2723L852.038 21.6153M847.134 40.2723L747.945 40.2723M747.945 57.2505L747.945 40.2723M747.945 40.2723L747.945 21.6153M956.13 21.6154L966.956 1.01801M956.13 21.6154L852.038 21.6153M956.13 21.6154L1060.22 21.6154M852.038 21.6153L857.451 1.018M852.038 21.6153L747.945 21.6153M747.945 21.6153L747.945 1.01799M857.451 1.018L966.956 1.01801M857.451 1.018L747.945 1.01799M966.956 1.01801L1076.46 1.01802M1076.46 1.01802L1185.97 1.01803M1076.46 1.01802L1060.22 21.6154M1060.22 21.6154L1164.32 21.6154M972.648 275.205L974.664 273.926L976.716 272.624M972.648 275.205L935.198 275.205M972.648 275.205L1010.1 275.205M931.926 277.695L928.766 280.1M931.926 277.695L935.198 275.205M931.926 277.695L895.13 277.695M928.766 280.1L892.602 280.1M928.766 280.1L926.467 281.849L925.714 282.423M961.267 282.423L925.714 282.423M961.267 282.423L959.925 283.274L957.726 284.669M961.267 282.423L996.821 282.423M935.198 275.205L938.588 272.624M935.198 275.205L897.747 275.205M895.13 277.695L892.602 280.1M895.13 277.695L897.747 275.205M892.602 280.1L891.37 281.271L890.46 282.137L890.16 282.423M925.714 282.423L890.16 282.423M925.714 282.423L923.491 284.115L922.762 284.669M897.747 275.205L899.773 273.278L900.459 272.624M854.606 282.423L854.382 282.708L853.935 283.274L853.273 284.115L852.835 284.669M854.606 282.423L890.16 282.423M890.16 282.423L889.861 282.708L889.265 283.274L887.799 284.669M976.716 272.624L938.588 272.624M976.716 272.624L1014.85 272.624M942.104 269.949L941.657 270.289L941.213 270.627L939.455 271.965L938.588 272.624M942.104 269.949L944.827 267.877L945.751 267.173M942.104 269.949L903.271 269.949M938.588 272.624L900.459 272.624M1014.85 272.624L1052.97 272.624M1014.85 272.624L1011.27 274.569L1010.1 275.205M900.459 272.624L903.271 269.949M1010.1 275.205L1047.55 275.205M945.751 267.173L946.216 266.819L946.685 266.463L948.101 265.385L948.578 265.022L949.538 264.291M945.751 267.173L906.19 267.173M903.271 269.949L903.631 269.608L906.19 267.173M906.19 267.173L906.562 266.819L906.937 266.463L907.312 266.105L909.219 264.291M989.857 264.291L994.579 261.296M989.857 264.291L949.538 264.291M989.857 264.291L1030.18 264.291M949.538 264.291L953.473 261.296M949.538 264.291L909.219 264.291M909.219 264.291L912.368 261.296M994.579 261.296L953.473 261.296M994.579 261.296L1035.68 261.296M957.565 258.182L953.473 261.296M957.565 258.182L961.823 254.942M957.565 258.182L915.641 258.182M953.473 261.296L912.368 261.296M1035.68 261.296L1076.79 261.296M1035.68 261.296L1030.18 264.291M912.368 261.296L915.641 258.182M1030.18 264.291L1070.49 264.291M961.823 254.942L966.257 251.567M961.823 254.942L919.047 254.942M915.641 258.182L916.48 257.385L919.047 254.942M919.047 254.942L920.361 253.693L921.695 252.424L922.595 251.567M1009.92 251.567L1012.66 249.827L1015.47 248.049M1009.92 251.567L966.257 251.567M1009.92 251.567L1053.58 251.567M966.257 251.567L970.88 248.049M966.257 251.567L922.595 251.567M922.595 251.567L926.292 248.049M1015.47 248.049L970.88 248.049M1015.47 248.049L1060.05 248.049M975.702 244.379L970.88 248.049M975.702 244.379L980.737 240.547M975.702 244.379L930.151 244.379M970.88 248.049L926.292 248.049M1060.05 248.049L1104.64 248.049M1060.05 248.049L1053.58 251.567M926.292 248.049L930.151 244.379M1053.58 251.567L1097.24 251.567M980.737 240.547L982.031 239.563L986 236.542M980.737 240.547L934.179 240.547M930.151 244.379L934.179 240.547M934.179 240.547L934.695 240.056L936.26 238.567L938.39 236.542M1033.61 236.542L1040.22 232.351M1033.61 236.542L986 236.542M1033.61 236.542L1081.22 236.542M986 236.542L991.507 232.351M986 236.542L938.39 236.542M938.39 236.542L942.795 232.351M1040.22 232.351L991.507 232.351M1040.22 232.351L1088.93 232.351M997.274 227.962L993.638 230.729L991.507 232.351M997.274 227.962L1003.32 223.359M997.274 227.962L947.409 227.962M991.507 232.351L942.795 232.351M1088.93 232.351L1137.64 232.351M1088.93 232.351L1081.22 236.542M942.795 232.351L947.409 227.962M1081.22 236.542L1128.83 236.542M1003.32 223.359L1009.67 218.528M1003.32 223.359L952.246 223.359M947.409 227.962L952.246 223.359M952.246 223.359L957.324 218.528M1062.01 218.528L1070.02 213.451M1062.01 218.528L1009.67 218.528M1062.01 218.528L1114.36 218.528M1009.67 218.528L1016.34 213.451M1009.67 218.528L957.324 218.528M957.324 218.528L962.662 213.451M1070.02 213.451L1016.34 213.451M1070.02 213.451L1123.7 213.451M1023.36 208.108L1016.34 213.451M1023.36 208.108L1030.76 202.479M1023.36 208.108L968.278 208.108M1016.34 213.451L962.662 213.451M1123.7 213.451L1177.38 213.451M1123.7 213.451L1114.36 218.528M962.662 213.451L968.278 208.108M1114.36 218.528L1166.7 218.528M1030.76 202.479L1038.56 196.537M1030.76 202.479L974.196 202.479M968.278 208.108L974.196 202.479M974.196 202.479L980.441 196.537M1096.69 196.538L1106.59 190.26M1096.69 196.538L1038.56 196.537M1096.69 196.538L1154.81 196.538M1038.56 196.537L1046.81 190.26M1038.56 196.537L980.441 196.537M980.441 196.537L987.04 190.26M1106.59 190.26L1046.81 190.26M1106.59 190.26L1166.36 190.26M1055.54 183.615L1046.81 190.26M1055.54 183.615L1064.8 176.571M1055.54 183.615L994.024 183.615M1046.81 190.26L987.04 190.26M1166.36 190.26L1226.13 190.26M1166.36 190.26L1154.81 196.538M987.04 190.26L994.024 183.615M1154.81 196.538L1212.94 196.538M1064.8 176.571L1074.63 169.088M1064.8 176.571L1001.43 176.571M994.024 183.615L1001.43 176.571M1001.43 176.571L1009.29 169.088M1139.97 169.088L1152.52 161.128M1139.97 169.088L1074.63 169.088M1139.97 169.088L1205.31 169.088M1074.63 169.088L1085.09 161.128M1074.63 169.088L1009.29 169.088M1009.29 169.088L1017.66 161.128M1152.52 161.128L1085.09 161.128M1152.52 161.128L1219.95 161.128M1096.24 152.64L1085.09 161.128M1096.24 152.64L1108.16 143.572M1096.24 152.64L1026.58 152.64M1085.09 161.128L1017.66 161.128M1219.95 161.128L1287.38 161.128M1219.95 161.128L1205.31 169.088M1017.66 161.128L1026.58 152.64M1205.31 169.088L1270.64 169.088M1108.16 143.572L1120.92 133.861M1108.16 143.572L1036.12 143.572M1026.58 152.64L1036.12 143.572M1036.12 143.572L1046.33 133.861M1195.51 133.861L1211.95 123.437M1195.51 133.861L1120.92 133.861M1195.51 133.861L1270.11 133.861M1120.92 133.861L1134.62 123.437M1120.92 133.861L1046.33 133.861M1046.33 133.861L1057.28 123.437M1211.95 123.437L1134.62 123.437M1211.95 123.437L1289.29 123.437M1149.36 112.219L1134.62 123.437M1149.36 112.219L1165.27 100.11M1149.36 112.219L1069.08 112.219M1134.62 123.437L1057.28 123.437M1289.29 123.437L1366.62 123.437M1289.29 123.437L1270.11 133.861M1057.28 123.437L1069.08 112.219M1270.11 133.861L1344.71 133.861M1165.27 100.11L1182.49 87.0029M1165.27 100.11L1081.8 100.11M1069.08 112.219L1081.8 100.11M1081.8 100.11L1095.58 87.0029M1269.4 87.0029L1291.85 72.7671M1269.4 87.0029L1182.49 87.0029M1269.4 87.0029L1356.31 87.0029M1182.49 87.0029L1201.2 72.767M1182.49 87.0029L1095.58 87.0029M1095.58 87.0029L1110.55 72.767M1291.85 72.7671L1201.2 72.767M1291.85 72.7671L1382.5 72.7671M1221.58 57.2505L1201.2 72.767M1221.58 57.2505L1243.89 40.2723M1221.58 57.2505L1126.86 57.2505M1201.2 72.767L1110.55 72.767M1382.5 72.7671L1473.15 72.7671M1382.5 72.7671L1356.31 87.0029M1110.55 72.767L1126.86 57.2505M1356.31 87.0029L1443.22 87.0029M1243.89 40.2723L1268.41 21.6154M1243.89 40.2723L1144.7 40.2723M1126.86 57.2505L1144.7 40.2723M1144.7 40.2723L1164.32 21.6154M1372.5 21.6154L1404.98 1.01805M1372.5 21.6154L1268.41 21.6154M1372.5 21.6154L1476.59 21.6154M1268.41 21.6154L1295.47 1.01804M1268.41 21.6154L1164.32 21.6154M1164.32 21.6154L1185.97 1.01803M1494.54 1.01843L1404.98 1.01805L1295.47 1.01804M1295.47 1.01804L1185.97 1.01803M1476.59 21.6154L1494.54 11.8577M1476.59 21.6154L1494.54 21.6154M1122.45 275.205L1129.23 272.624M1122.45 275.205L1085 275.205M1122.45 275.205L1159.9 275.205M1079.11 277.695L1073.42 280.1M1079.11 277.695L1085 275.205M1079.11 277.695L1042.31 277.695M1073.42 280.1L1037.26 280.1M1073.42 280.1L1067.93 282.423M1103.48 282.423L1067.93 282.423M1103.48 282.423L1101.25 283.274L1097.58 284.669M1103.48 282.423L1139.04 282.423M1085 275.205L1091.1 272.624M1085 275.205L1047.55 275.205M1042.31 277.695L1037.26 280.1M1042.31 277.695L1047.55 275.205M1037.26 280.1L1033.58 281.849L1032.37 282.423M1067.93 282.423L1067.25 282.708L1062.62 284.669M1067.93 282.423L1032.37 282.423M1047.55 275.205L1052.97 272.624M996.821 282.423L992.689 284.669M996.821 282.423L1032.37 282.423M1032.37 282.423L1030.59 283.274L1027.65 284.669M1129.23 272.624L1091.1 272.624M1129.23 272.624L1167.36 272.624M1097.43 269.949L1091.1 272.624M1097.43 269.949L1104 267.173M1097.43 269.949L1058.6 269.949M1091.1 272.624L1052.97 272.624M1167.36 272.624L1205.49 272.625M1167.36 272.624L1159.9 275.205M1052.97 272.624L1058.6 269.949M1159.9 275.205L1197.35 275.205M1104 267.173L1105.68 266.463L1110.81 264.291M1104 267.173L1064.43 267.173M1058.6 269.949L1064.43 267.173M1064.43 267.173L1070.49 264.291M1151.13 264.291L1152.1 263.923L1159 261.296M1151.13 264.291L1110.81 264.291M1151.13 264.291L1191.45 264.291M1110.81 264.291L1117.9 261.296M1110.81 264.291L1070.49 264.291M1070.49 264.291L1071.27 263.923L1076.79 261.296M1159 261.296L1117.9 261.296M1159 261.296L1200.11 261.296M1125.26 258.182L1117.9 261.296M1125.26 258.182L1132.93 254.942M1125.26 258.182L1083.34 258.182M1117.9 261.296L1076.79 261.296M1200.11 261.296L1241.21 261.296M1200.11 261.296L1191.45 264.291M1076.79 261.296L1083.34 258.182M1191.45 264.291L1231.77 264.291M1132.93 254.942L1140.91 251.567M1132.93 254.942L1090.15 254.942M1083.34 258.182L1090.15 254.942M1090.15 254.942L1097.24 251.567M1184.57 251.567L1193.81 248.049M1184.57 251.567L1140.91 251.567M1184.57 251.567L1228.23 251.567M1140.91 251.567L1149.23 248.049M1140.91 251.567L1097.24 251.567M1097.24 251.567L1104.64 248.049M1193.81 248.049L1149.23 248.049M1193.81 248.049L1238.4 248.049M1157.91 244.379L1149.23 248.049M1157.91 244.379L1166.97 240.547M1157.91 244.379L1112.36 244.379M1149.23 248.049L1104.64 248.049M1238.4 248.049L1282.99 248.049M1238.4 248.049L1228.23 251.567M1104.64 248.049L1112.36 244.379M1228.23 251.567L1271.89 251.567M1166.97 240.547L1176.44 236.542M1166.97 240.547L1120.41 240.547M1112.36 244.379L1120.41 240.547M1120.41 240.547L1128.83 236.542M1224.06 236.542L1235.07 232.351M1224.06 236.542L1176.44 236.542M1224.06 236.542L1271.67 236.542M1176.44 236.542L1186.36 232.351M1176.44 236.542L1128.83 236.542M1128.83 236.542L1137.64 232.351M1235.07 232.351L1186.36 232.351M1235.07 232.351L1283.78 232.351M1196.74 227.962L1186.36 232.351M1196.74 227.962L1207.62 223.359M1196.74 227.962L1146.87 227.962M1186.36 232.351L1137.64 232.351M1283.78 232.351L1332.49 232.351M1283.78 232.351L1271.67 236.542M1137.64 232.351L1146.87 227.962M1271.67 236.542L1319.28 236.542M1207.62 223.359L1219.05 218.528M1207.62 223.359L1156.55 223.359M1146.87 227.962L1156.55 223.359M1156.55 223.359L1166.7 218.528M1271.39 218.528L1284.74 213.451M1271.39 218.528L1219.05 218.528M1271.39 218.528L1323.74 218.528M1219.05 218.528L1231.06 213.451M1219.05 218.528L1166.7 218.528M1166.7 218.528L1177.38 213.451M1284.74 213.451L1231.06 213.451M1284.74 213.451L1338.42 213.451M1243.69 208.108L1231.06 213.451M1243.69 208.108L1257.01 202.479M1243.69 208.108L1188.61 208.108M1231.06 213.451L1177.38 213.451M1338.42 213.451L1392.09 213.451M1338.42 213.451L1323.74 218.528M1177.38 213.451L1188.61 208.108M1323.74 218.528L1376.08 218.528M1257.01 202.479L1271.06 196.538M1257.01 202.479L1200.45 202.479M1188.61 208.108L1200.45 202.479M1200.45 202.479L1212.94 196.538M1329.18 196.538L1345.68 190.26M1329.18 196.538L1271.06 196.538M1329.18 196.538L1387.31 196.538M1271.06 196.538L1285.91 190.26M1271.06 196.538L1212.94 196.538M1212.94 196.538L1226.13 190.26M1345.68 190.26L1285.91 190.26M1345.68 190.26L1405.46 190.26M1301.62 183.615L1285.91 190.26M1301.62 183.615L1318.29 176.571M1301.62 183.615L1240.1 183.615M1285.91 190.26L1226.13 190.26M1405.46 190.26L1465.23 190.26M1405.46 190.26L1387.31 196.538M1226.13 190.26L1240.1 183.615M1387.31 196.538L1445.43 196.538M1318.29 176.571L1335.98 169.088M1318.29 176.571L1254.91 176.571M1240.1 183.615L1254.91 176.571M1254.91 176.571L1270.64 169.088M1401.32 169.088L1422.24 161.128M1401.32 169.088L1335.98 169.088M1401.32 169.088L1466.66 169.088M1335.98 169.088L1354.81 161.128M1335.98 169.088L1270.64 169.088M1270.64 169.088L1287.38 161.128M1422.24 161.128L1354.81 161.128M1422.24 161.128L1489.67 161.128M1374.88 152.64L1354.81 161.128M1374.88 152.64L1396.33 143.572M1374.88 152.64L1305.23 152.64M1354.81 161.128L1287.38 161.128M1489.67 161.128L1466.66 169.088M1489.67 161.128L1494.54 161.128M1489.67 161.128L1494.54 159.442M1287.38 161.128L1305.23 152.64M1466.66 169.088L1494.54 169.088M1396.33 143.572L1419.3 133.861M1396.33 143.572L1324.29 143.572M1305.23 152.64L1324.29 143.572M1324.29 143.572L1344.71 133.861M1493.9 133.861L1419.3 133.861M1493.9 133.861L1494.54 133.861M1493.9 133.861L1494.54 133.615M1419.3 133.861L1443.95 123.437M1419.3 133.861L1344.71 133.861M1344.71 133.861L1366.62 123.437M1470.49 112.219L1443.95 123.437M1470.49 112.219L1390.21 112.219M1470.49 112.219L1494.54 112.219M1470.49 112.219L1494.54 102.048M1443.95 123.437L1366.62 123.437M1443.95 123.437L1494.54 123.437M1366.62 123.437L1390.21 112.219M1390.21 112.219L1415.66 100.11M1415.66 100.11L1443.22 87.0029M1415.66 100.11L1494.54 100.11M1443.22 87.0029L1473.15 72.7671M1443.22 87.0029L1494.54 87.0029M1473.15 72.7671L1494.54 72.7671M1473.15 72.7671L1494.54 62.5897M1272.25 275.205L1281.75 272.625M1272.25 275.205L1234.8 275.205M1272.25 275.205L1309.7 275.205M1226.3 277.695L1218.08 280.1M1226.3 277.695L1234.8 275.205M1226.3 277.695L1189.5 277.695M1218.08 280.1L1181.92 280.1M1218.08 280.1L1210.14 282.423M1245.7 282.423L1210.14 282.423M1245.7 282.423L1237.43 284.669M1245.7 282.423L1281.25 282.423M1234.8 275.205L1243.62 272.625M1234.8 275.205L1197.35 275.205M1189.5 277.695L1181.92 280.1M1189.5 277.695L1197.35 275.205M1181.92 280.1L1174.59 282.423M1210.14 282.423L1209.17 282.708L1202.47 284.669M1210.14 282.423L1174.59 282.423M1197.35 275.205L1205.49 272.625M1139.04 282.423L1132.54 284.669M1139.04 282.423L1174.59 282.423M1174.59 282.423L1173.69 282.708L1167.51 284.669M1281.75 272.625L1243.62 272.625M1281.75 272.625L1319.87 272.625M1252.76 269.949L1243.62 272.625M1252.76 269.949L1262.24 267.173M1252.76 269.949L1213.93 269.949M1243.62 272.625L1205.49 272.625M1319.87 272.625L1358 272.625M1319.87 272.625L1309.7 275.205M1205.49 272.625L1213.93 269.949M1309.7 275.205L1347.15 275.205M1262.24 267.173L1272.09 264.291M1262.24 267.173L1222.68 267.173M1213.93 269.949L1215 269.608L1222.68 267.173M1222.68 267.173L1231.77 264.291M1312.41 264.291L1323.42 261.296M1312.41 264.291L1272.09 264.291M1312.41 264.291L1352.73 264.291M1272.09 264.291L1282.32 261.296M1272.09 264.291L1231.77 264.291M1231.77 264.291L1241.21 261.296M1323.42 261.296L1282.32 261.296M1323.42 261.296L1364.53 261.296M1292.96 258.182L1282.32 261.296M1292.96 258.182L1304.03 254.942M1292.96 258.182L1251.03 258.182M1282.32 261.296L1241.21 261.296M1364.53 261.296L1405.64 261.296M1364.53 261.296L1352.73 264.291M1241.21 261.296L1251.03 258.182M1352.73 264.291L1393.04 264.291M1304.03 254.942L1315.56 251.567M1304.03 254.942L1261.25 254.942M1251.03 258.182L1261.25 254.942M1261.25 254.942L1271.89 251.567M1359.22 251.567L1372.16 248.049M1359.22 251.567L1315.56 251.567M1359.22 251.567L1402.88 251.567M1315.56 251.567L1327.57 248.049M1315.56 251.567L1271.89 251.567M1271.89 251.567L1282.99 248.049M1372.16 248.049L1327.57 248.049M1372.16 248.049L1416.75 248.049M1340.11 244.379L1327.57 248.049M1340.11 244.379L1353.2 240.547M1340.11 244.379L1294.56 244.379M1327.57 248.049L1282.99 248.049M1416.75 248.049L1461.34 248.049M1416.75 248.049L1402.88 251.567M1282.99 248.049L1294.56 244.379M1402.88 251.567L1446.54 251.567M1353.2 240.547L1366.89 236.542M1353.2 240.547L1306.65 240.547M1294.56 244.379L1306.65 240.547M1306.65 240.547L1319.28 236.542M1414.5 236.542L1429.92 232.351M1414.5 236.542L1366.89 236.542M1414.5 236.542L1462.11 236.542M1366.89 236.542L1381.21 232.351M1366.89 236.542L1319.28 236.542M1319.28 236.542L1332.49 232.351M1429.92 232.351L1381.21 232.351M1396.2 227.962L1381.21 232.351M1396.2 227.962L1411.92 223.359M1396.2 227.962L1346.34 227.962M1381.21 232.351L1332.49 232.351M1332.49 232.351L1346.34 227.962M1462.11 236.542L1494.54 236.542M1411.92 223.359L1428.43 218.528M1411.92 223.359L1360.85 223.359M1346.34 227.962L1360.85 223.359M1360.85 223.359L1376.08 218.528M1480.77 218.528L1428.43 218.528M1480.77 218.528L1494.54 218.528M1480.77 218.528L1494.54 214.786M1428.43 218.528L1445.77 213.451M1428.43 218.528L1376.08 218.528M1376.08 218.528L1392.09 213.451M1464.03 208.108L1445.77 213.451M1464.03 208.108L1483.26 202.479M1464.03 208.108L1408.94 208.108M1464.03 208.108L1494.54 208.108M1445.77 213.451L1392.09 213.451M1445.77 213.451L1494.54 213.451M1392.09 213.451L1408.94 208.108M1494.69 214.745L1494.54 214.786M1483.26 202.479L1426.7 202.479M1483.26 202.479L1494.54 202.479M1483.26 202.479L1494.54 199.176M1408.94 208.108L1426.7 202.479M1426.7 202.479L1445.43 196.538M1445.43 196.538L1465.23 190.26M1445.43 196.538L1494.54 196.538M1486.18 183.615L1465.23 190.26M1486.18 183.615L1494.54 183.615M1486.18 183.615L1494.54 180.965M1465.23 190.26L1494.54 190.26M1422.06 275.205L1434.26 272.625M1422.06 275.205L1384.6 275.205M1422.06 275.205L1459.51 275.205M1373.48 277.695L1362.74 280.1M1373.48 277.695L1384.6 275.205M1373.48 277.695L1336.68 277.695M1362.74 280.1L1326.57 280.1M1362.74 280.1L1352.36 282.423M1387.91 282.423L1352.36 282.423M1387.91 282.423L1377.29 284.669M1387.91 282.423L1423.47 282.423M1384.6 275.205L1396.13 272.625M1384.6 275.205L1347.15 275.205M1336.68 277.695L1326.57 280.1M1336.68 277.695L1347.15 275.205M1326.57 280.1L1316.81 282.423M1352.36 282.423L1316.81 282.423M1352.36 282.423L1342.32 284.669M1347.15 275.205L1358 272.625M1281.25 282.423L1272.4 284.669M1281.25 282.423L1316.81 282.423M1316.81 282.423L1307.36 284.669M1434.26 272.625L1396.13 272.625M1434.26 272.625L1472.39 272.625M1408.08 269.949L1396.13 272.625M1408.08 269.949L1420.49 267.173M1408.08 269.949L1369.25 269.949M1396.13 272.625L1358 272.625M1472.39 272.625L1459.51 275.205M1472.39 272.625L1494.54 272.625M1358 272.625L1369.25 269.949M1459.51 275.205L1494.54 275.205M1420.49 267.173L1433.36 264.291M1420.49 267.173L1380.92 267.173M1369.25 269.949L1380.92 267.173M1380.92 267.173L1393.04 264.291M1473.68 264.291L1487.85 261.296M1473.68 264.291L1433.36 264.291M1473.68 264.291L1494.54 264.291M1433.36 264.291L1446.74 261.296M1433.36 264.291L1393.04 264.291M1393.04 264.291L1405.64 261.296M1460.65 258.182L1446.74 261.296M1460.65 258.182L1475.13 254.942M1460.65 258.182L1418.73 258.182M1460.65 258.182L1494.54 258.182M1446.74 261.296L1487.85 261.296M1446.74 261.296L1405.64 261.296M1487.85 261.296L1494.54 259.881M1487.85 261.296L1494.54 261.296M1405.64 261.296L1418.73 258.182M1475.13 254.942L1490.21 251.567M1475.13 254.942L1432.35 254.942M1475.13 254.942L1494.54 254.942M1418.73 258.182L1432.35 254.942M1432.35 254.942L1446.54 251.567M1490.21 251.567L1446.54 251.567M1490.21 251.567L1494.54 250.597M1490.21 251.567L1494.54 251.567M1446.54 251.567L1461.34 248.049M1476.77 244.379L1461.34 248.049M1476.77 244.379L1492.88 240.547M1476.77 244.379L1494.54 244.379M1461.34 248.049L1494.54 248.049M1494.78 248.049L1494.54 248.049M1492.88 240.547L1494.54 240.547M1492.88 240.547L1494.54 240.152M1494.94 240.056L1494.54 240.152M1483.87 277.695L1471.23 280.1M1483.87 277.695L1494.54 277.695M1483.87 277.695L1494.54 275.664M1471.23 280.1L1459.02 282.423M1471.23 280.1L1494.54 280.1M1423.47 282.423L1412.25 284.669M1423.47 282.423L1459.02 282.423M1459.02 282.423L1447.21 284.669M1459.02 282.423L1494.54 282.423M258.457 284.669L223.493 284.669M258.457 284.669L293.42 284.669M232.058 286.842L229.944 286.305L223.493 284.669M232.058 286.842L197.666 286.842M223.493 284.669L188.53 284.669M197.666 286.842L195.41 286.305L194.275 286.036L188.53 284.669M188.53 284.669L153.567 284.669M153.567 284.669L118.603 284.669M293.42 284.669L328.383 284.669M118.603 284.669L83.6392 284.669M83.6392 284.669L94.489 286.842M83.6392 284.669L48.6759 284.669M94.489 286.842L60.0965 286.842M398.311 284.669L363.347 284.669M398.311 284.669L433.274 284.669M369.628 286.842L368.077 286.305L367.297 286.036L363.347 284.669M369.628 286.842L335.236 286.842M363.347 284.669L328.383 284.669M335.236 286.842L328.383 284.669M433.274 284.669L468.237 284.669M538.164 284.669L503.201 284.669M538.164 284.669L573.127 284.669M507.198 286.842L506.705 286.574L506.211 286.305L505.714 286.036L503.201 284.669M507.198 286.842L472.806 286.842M503.201 284.669L468.237 284.669M472.806 286.842L468.237 284.669M573.127 284.669L608.092 284.669M678.018 284.669L643.055 284.669M678.018 284.669L712.982 284.669M644.767 286.842L643.055 284.669M644.767 286.842L610.375 286.842M643.055 284.669L608.092 284.669M610.375 286.842L610.093 286.574L609.811 286.305L609.527 286.036L608.092 284.669M712.982 284.669L747.945 284.669M817.872 284.669L782.908 284.669M817.872 284.669L852.835 284.669M782.337 286.842L782.908 284.669M782.337 286.842L747.945 286.842M782.908 284.669L747.945 284.669M747.945 286.842L747.945 284.669M852.835 284.669L887.799 284.669M957.726 284.669L922.762 284.669M957.726 284.669L992.689 284.669M919.907 286.842L920.612 286.305L922.04 285.219L922.762 284.669M919.907 286.842L885.515 286.842M922.762 284.669L887.799 284.669M885.515 286.842L885.796 286.574L886.079 286.305L886.363 286.036L887.799 284.669M992.689 284.669L1027.65 284.669M1097.58 284.669L1062.62 284.669M1097.58 284.669L1132.54 284.669M1057.48 286.842L1058.75 286.305L1059.38 286.036L1062.62 284.669M1057.48 286.842L1023.08 286.842M1062.62 284.669L1027.65 284.669M1023.08 286.842L1023.65 286.574L1027.65 284.669M1132.54 284.669L1167.51 284.669M1237.43 284.669L1202.47 284.669M1237.43 284.669L1272.4 284.669M1195.05 286.842L1196.88 286.305L1197.8 286.036L1202.47 284.669M1195.05 286.842L1160.65 286.842M1202.47 284.669L1167.51 284.669M1160.65 286.842L1161.5 286.574L1167.51 284.669M1272.4 284.669L1307.36 284.669M1377.29 284.669L1342.32 284.669M1377.29 284.669L1412.25 284.669M1332.62 286.842L1342.32 284.669M1332.62 286.842L1298.22 286.842M1342.32 284.669L1307.36 284.669M1298.22 286.842L1300.48 286.305L1301.61 286.036L1307.36 284.669M1412.25 284.669L1447.21 284.669M1470.19 286.842L1482.18 284.669M1470.19 286.842L1435.79 286.842M1470.19 286.842L1494.54 286.842M1482.18 284.669L1447.21 284.669M1482.18 284.669L1494.54 282.428M1482.18 284.669L1494.54 284.669M1435.79 286.842L1438.61 286.305L1447.21 284.669M60.0965 286.842L57.2765 286.305L48.6759 284.669M48.6759 284.669L13.7125 284.669M13.7125 284.669L1.34698 282.428M13.7125 284.669L1.34698 284.669M1.34699 180.964L1.34699 183.615M1.34699 180.964L1.34699 176.57M1.34699 183.615L1.34699 190.26M1.34699 176.57L1.34699 175.257L1.34699 169.088M1.34699 169.088L1.34699 161.128M1.34699 232.351L1.34699 236.542M1.34699 232.351L1.34699 228.314M1.34698 286.842L1.34698 284.669M1.34698 284.669L1.34698 282.428M1.34698 282.428L1.3167 282.423L1.34698 282.423M1.34698 282.428L1.34698 282.423M1.34698 282.423L1.34698 280.099M1.34698 280.099L1.34698 277.695M1.34698 277.695L1.34698 275.664M1.34698 275.664L1.34698 275.205M1.34698 275.205L1.34698 272.624M1.34698 272.624L1.34698 269.949M1.34698 269.949L1.34698 268.188M1.34698 268.188L1.34698 267.173M1.34698 267.173L1.34698 264.291M1.34698 264.291L1.34698 261.296M1.34698 261.296L1.34698 259.881M1.34698 259.881L1.34698 258.182M1.34698 258.182L1.34698 254.942M1.34698 254.942L1.34699 251.567M1.34699 251.567L1.34699 250.597M1.34699 250.597L1.34699 248.049M1.34699 248.049L1.34699 244.379M1.34699 244.379L1.34699 240.547M1.34699 240.547L1.34699 240.152M1.34699 240.152L1.34699 236.542M1.34699 227.962L1.34699 223.359M1.34699 227.962L1.34699 228.314M1.34699 223.359L1.34699 218.528M1.34699 218.528L1.34699 214.786M1.34699 214.786L1.34699 213.451M1.34699 213.451L1.34699 208.108M1.34699 208.108L1.34699 202.478M1.34699 202.478L1.34699 199.176M1.34699 199.176L1.34699 196.537M1.34699 196.537L1.34699 190.26M1.34699 161.128L1.34699 159.442M1.34699 159.442L1.34699 152.64M1.34699 152.64L1.34699 143.572M1.34699 143.572L1.347 133.861M1.347 133.861L1.347 133.615M1.347 133.615L1.347 123.437M1.347 123.437L1.347 112.218M1.347 112.218L1.347 102.048M1.347 102.048L1.347 100.11M1.347 100.11L1.347 87.0028M1.347 87.0028L1.347 72.7669M1.347 72.7669L1.347 62.5896M1.347 62.5896L1.347 57.2504M1.347 57.2504L1.347 40.2722M1.347 40.2722L1.34701 21.6153M1.34701 21.6153L1.34701 11.8575M1.34701 11.8575L1.34701 1.0183M1.34701 1.0183L1.34701 0.944754L1494.54 0.944884L1494.54 1.01843M1494.54 227.962L1494.54 223.36M1494.54 227.962L1494.54 228.314M1494.54 228.314L1494.54 232.351M1494.54 232.351L1494.54 236.542M1494.54 236.542L1494.54 240.152M1494.54 240.152L1494.54 240.547M1494.54 240.547L1494.54 244.379M1494.54 244.379L1494.54 248.049M1494.54 248.049L1494.54 250.597M1494.54 250.597L1494.54 251.567M1494.54 251.567L1494.54 254.942M1494.54 254.942L1494.54 258.182M1494.54 258.182L1494.54 259.881M1494.54 259.881L1494.54 261.296M1494.54 261.296L1494.54 264.291M1494.54 264.291L1494.54 267.173M1494.54 267.173L1494.54 268.188M1494.54 268.188L1494.54 269.949M1494.54 269.949L1494.54 272.625M1494.54 272.625L1494.54 275.205M1494.54 275.205L1494.54 275.664M1494.54 275.664L1494.54 277.695M1494.54 277.695L1494.54 280.1M1494.54 280.1L1494.54 282.423M1494.54 282.423L1494.57 282.423L1494.54 282.428M1494.54 282.423L1494.54 282.428M1494.54 282.428L1494.54 284.669M1494.54 284.669L1494.54 286.842M1494.54 1.01843L1494.54 11.8577M1494.54 11.8577L1494.54 21.6154M1494.54 21.6154L1494.54 40.272M1494.54 40.272L1494.54 57.2505M1494.54 57.2505L1494.54 62.5897M1494.54 62.5897L1494.54 72.7671M1494.54 72.7671L1494.54 87.0029M1494.54 87.0029L1494.54 100.11M1494.54 100.11L1494.54 102.048M1494.54 102.048L1494.54 112.219M1494.54 112.219L1494.54 123.437M1494.54 123.437L1494.54 133.615M1494.54 133.615L1494.54 133.861M1494.54 133.861L1494.54 143.572M1494.54 143.572L1494.54 152.64M1494.54 152.64L1494.54 159.442M1494.54 159.442L1494.54 161.128M1494.54 161.128L1494.54 169.088M1494.54 169.088L1494.54 176.571M1494.54 176.571L1494.54 180.965M1494.54 180.965L1494.54 183.615M1494.54 183.615L1494.54 190.26M1494.54 190.26L1494.54 196.538M1494.54 196.538L1494.54 199.176M1494.54 199.176L1494.54 202.479M1494.54 202.479L1494.54 208.108M1494.54 208.108L1494.54 213.451M1494.54 213.451L1494.54 214.786M1494.54 214.786L1494.54 218.528M1494.54 218.528L1494.54 223.36" stroke="url(#paint0_radial_1_62)" stroke-opacity="0.25" stroke-width="1.8895" stroke-miterlimit="10" stroke-linecap="round" stroke-linejoin="round"/>
<defs>
<radialGradient id="paint0_radial_1_62" cx="0" cy="0" r="1" gradientUnits="userSpaceOnUse" gradientTransform="translate(747.945 11.5596) rotate(90) scale(450.826 2338.66)">
<stop stop-color="#5813C1"/>
<stop offset="0.489074" stop-color="#CED2DF" stop-opacity="0"/>
</radialGradient>
</defs>
</svg>
